CascadiaSymbol.glyphspackage
{
color = 10;
glyphname = cent;
layers = (
{
components = (
{
name = c;
}
);
layerId = master01;
paths = (
{
closed = 1;
nodes = (
"710 -334 LINE",
"710 1394 LINE",
"616 1394 LINE",
"616 -334 LINE"
);
}
);
width = 1200;
},
{
components = (
{
name = c;
}
);
layerId = "1F90C004-9C90-48FA-B407-176B3E9F1E65";
paths = (
{
closed = 1;
nodes = (
"732 -334 LINE",
"732 1394 LINE",
"594 1394 LINE",
"594 -334 LINE"
);
}
);
width = 1200;
},
{
components = (
{
alignment = -1;
name = c;
}
);
layerId = "8E053A5E-67DA-4970-A6F5-068DBFE5AD21";
paths = (
{
closed = 1;
nodes = (
"792 -334 LINE",
"792 1394 LINE",
"534 1394 LINE",
"534 -334 LINE"
);
}
);
width = 1200;
}
);
unicode = 00A2;
}
{
glyphname = blackHexagon;
production = uni2B22;
layers = (
{
layerId = master01;
paths = (
{
closed = 1;
nodes = (
"1120 410 LINE",
"1120 1010 LINE",
"600 1310 LINE",
"80 1010 LINE",
"80 410 LINE",
"600 110 LINE"
);
}
);
width = 1200;
},
{
layerId = "1F90C004-9C90-48FA-B407-176B3E9F1E65";
paths = (
{
closed = 1;
nodes = (
"1120 410 LINE",
"1120 1010 LINE",
"600 1310 LINE",
"80 1010 LINE",
"80 410 LINE",
"600 110 LINE"
);
}
);
width = 1200;
},
{
layerId = "8E053A5E-67DA-4970-A6F5-068DBFE5AD21";
paths = (
{
closed = 1;
nodes = (
"1120 410 LINE",
"1120 1010 LINE",
"600 1310 LINE",
"80 1010 LINE",
"80 410 LINE",
"600 110 LINE"
);
}
);
width = 1200;
}
);
note = uni2B22;
unicode = 2B22;
}
{
glyphname = blackHorizontalEllipse;
production = uni2B2C;
layers = (
{
layerId = master01;
paths = (
{
closed = 1;
nodes = (
"916 395 OFFCURVE",
"1125 520 OFFCURVE",
"1125 710 CURVE SMOOTH",
"1125 900 OFFCURVE",
"916 1025 OFFCURVE",
"600 1025 CURVE SMOOTH",
"284 1025 OFFCURVE",
"75 900 OFFCURVE",
"75 710 CURVE SMOOTH",
"75 520 OFFCURVE",
"284 395 OFFCURVE",
"600 395 CURVE SMOOTH"
);
}
);
width = 1200;
},
{
layerId = "1F90C004-9C90-48FA-B407-176B3E9F1E65";
paths = (
{
closed = 1;
nodes = (
"916 395 OFFCURVE",
"1125 520 OFFCURVE",
"1125 710 CURVE SMOOTH",
"1125 900 OFFCURVE",
"916 1025 OFFCURVE",
"600 1025 CURVE SMOOTH",
"284 1025 OFFCURVE",
"75 900 OFFCURVE",
"75 710 CURVE SMOOTH",
"75 520 OFFCURVE",
"284 395 OFFCURVE",
"600 395 CURVE SMOOTH"
);
}
);
width = 1200;
},
{
layerId = "8E053A5E-67DA-4970-A6F5-068DBFE5AD21";
paths = (
{
closed = 1;
nodes = (
"916 395 OFFCURVE",
"1125 520 OFFCURVE",
"1125 710 CURVE SMOOTH",
"1125 900 OFFCURVE",
"916 1025 OFFCURVE",
"600 1025 CURVE SMOOTH",
"284 1025 OFFCURVE",
"75 900 OFFCURVE",
"75 710 CURVE SMOOTH",
"75 520 OFFCURVE",
"284 395 OFFCURVE",
"600 395 CURVE SMOOTH"
);
}
);
width = 1200;
}
);
note = uni2B2C;
unicode = 2B2C;
}
{
glyphname = blackLargeCircle;
production = uni2B24;
layers = (
{
layerId = master01;
paths = (
{
closed = 1;
nodes = (
"962 110 OFFCURVE",
"1200 348 OFFCURVE",
"1200 710 CURVE SMOOTH",
"1200 1072 OFFCURVE",
"962 1310 OFFCURVE",
"600 1310 CURVE SMOOTH",
"238 1310 OFFCURVE",
"0 1072 OFFCURVE",
"0 710 CURVE SMOOTH",
"0 348 OFFCURVE",
"238 110 OFFCURVE",
"600 110 CURVE SMOOTH"
);
}
);
width = 1200;
},
{
layerId = "1F90C004-9C90-48FA-B407-176B3E9F1E65";
paths = (
{
closed = 1;
nodes = (
"962 110 OFFCURVE",
"1200 348 OFFCURVE",
"1200 710 CURVE SMOOTH",
"1200 1072 OFFCURVE",
"962 1310 OFFCURVE",
"600 1310 CURVE SMOOTH",
"238 1310 OFFCURVE",
"0 1072 OFFCURVE",
"0 710 CURVE SMOOTH",
"0 348 OFFCURVE",
"238 110 OFFCURVE",
"600 110 CURVE SMOOTH"
);
}
);
width = 1200;
},
{
layerId = "8E053A5E-67DA-4970-A6F5-068DBFE5AD21";
paths = (
{
closed = 1;
nodes = (
"962 110 OFFCURVE",
"1200 348 OFFCURVE",
"1200 710 CURVE SMOOTH",
"1200 1072 OFFCURVE",
"962 1310 OFFCURVE",
"600 1310 CURVE SMOOTH",
"238 1310 OFFCURVE",
"0 1072 OFFCURVE",
"0 710 CURVE SMOOTH",
"0 348 OFFCURVE",
"238 110 OFFCURVE",
"600 110 CURVE SMOOTH"
);
}
);
width = 1200;
}
);
note = uni2B24;
unicode = 2B24;
}
{
glyphname = blackMediumDiamond;
production = uni2B25;
layers = (
{
layerId = master01;
paths = (
{
closed = 1;
nodes = (
"988 710 LINE",
"600 1098 LINE",
"212 710 LINE",
"600 322 LINE"
);
}
);
width = 1200;
},
{
layerId = "1F90C004-9C90-48FA-B407-176B3E9F1E65";
paths = (
{
closed = 1;
nodes = (
"988 710 LINE",
"600 1098 LINE",
"212 710 LINE",
"600 322 LINE"
);
}
);
width = 1200;
},
{
layerId = "8E053A5E-67DA-4970-A6F5-068DBFE5AD21";
paths = (
{
closed = 1;
nodes = (
"988 710 LINE",
"600 1098 LINE",
"212 710 LINE",
"600 322 LINE"
);
}
);
width = 1200;
}
);
note = uni2B25;
unicode = 2B25;
}
{
glyphname = blackMediumDownTriangleCentred;
production = uni2BC6;
layers = (
{
layerId = master01;
paths = (
{
closed = 1;
nodes = (
"938 1040 LINE",
"262 1040 LINE",
"600 466 LINE"
);
}
);
width = 1200;
},
{
layerId = "1F90C004-9C90-48FA-B407-176B3E9F1E65";
paths = (
{
closed = 1;
nodes = (
"938 1040 LINE",
"262 1040 LINE",
"600 466 LINE"
);
}
);
width = 1200;
},
{
layerId = "8E053A5E-67DA-4970-A6F5-068DBFE5AD21";
paths = (
{
closed = 1;
nodes = (
"938 1040 LINE",
"262 1040 LINE",
"600 466 LINE"
);
}
);
width = 1200;
}
);
note = uni2BC6;
unicode = 2BC6;
}
{
glyphname = blackMediumLeftTriangleCentred;
production = uni2BC7;
layers = (
{
layerId = master01;
paths = (
{
closed = 1;
nodes = (
"840 1048 LINE",
"266 710 LINE",
"840 372 LINE"
);
}
);
width = 1200;
},
{
layerId = "1F90C004-9C90-48FA-B407-176B3E9F1E65";
paths = (
{
closed = 1;
nodes = (
"840 1048 LINE",
"266 710 LINE",
"840 372 LINE"
);
}
);
width = 1200;
},
{
layerId = "8E053A5E-67DA-4970-A6F5-068DBFE5AD21";
paths = (
{
closed = 1;
nodes = (
"840 1048 LINE",
"266 710 LINE",
"840 372 LINE"
);
}
);
width = 1200;
}
);
note = uni2BC7;
unicode = 2BC7;
}
{
glyphname = blackMediumLozenge;
production = uni2B27;
layers = (
{
layerId = master01;
paths = (
{
closed = 1;
nodes = (
"873 710 LINE",
"600 1164 LINE",
"328 710 LINE",
"600 256 LINE"
);
}
);
width = 1200;
},
{
layerId = "1F90C004-9C90-48FA-B407-176B3E9F1E65";
paths = (
{
closed = 1;
nodes = (
"873 710 LINE",
"600 1164 LINE",
"328 710 LINE",
"600 256 LINE"
);
}
);
width = 1200;
},
{
layerId = "8E053A5E-67DA-4970-A6F5-068DBFE5AD21";
paths = (
{
closed = 1;
nodes = (
"873 710 LINE",
"600 1164 LINE",
"328 710 LINE",
"600 256 LINE"
);
}
);
width = 1200;
}
);
note = uni2B27;
unicode = 2B27;
}
{
glyphname = blackMediumRightTriangleCentred;
production = uni2BC8;
layers = (
{
layerId = master01;
paths = (
{
closed = 1;
nodes = (
"934 710 LINE",
"360 1048 LINE",
"360 372 LINE"
);
}
);
width = 1200;
},
{
layerId = "1F90C004-9C90-48FA-B407-176B3E9F1E65";
paths = (
{
closed = 1;
nodes = (
"934 710 LINE",
"360 1048 LINE",
"360 372 LINE"
);
}
);
width = 1200;
},
{
layerId = "8E053A5E-67DA-4970-A6F5-068DBFE5AD21";
paths = (
{
closed = 1;
nodes = (
"934 710 LINE",
"360 1048 LINE",
"360 372 LINE"
);
}
);
width = 1200;
}
);
note = uni2BC8;
unicode = 2BC8;
}
{
glyphname = blackMediumUpTriangleCentred;
production = uni2BC5;
layers = (
{
layerId = master01;
paths = (
{
closed = 1;
nodes = (
"938 380 LINE",
"600 954 LINE",
"262 380 LINE"
);
}
);
width = 1200;
},
{
layerId = "1F90C004-9C90-48FA-B407-176B3E9F1E65";
paths = (
{
closed = 1;
nodes = (
"938 380 LINE",
"600 954 LINE",
"262 380 LINE"
);
}
);
width = 1200;
},
{
layerId = "8E053A5E-67DA-4970-A6F5-068DBFE5AD21";
paths = (
{
closed = 1;
nodes = (
"938 380 LINE",
"600 954 LINE",
"262 380 LINE"
);
}
);
width = 1200;
}
);
note = uni2BC5;
unicode = 2BC5;
}
{
glyphname = blackPentagon;
production = uni2B1F;
layers = (
{
layerId = master01;
paths = (
{
closed = 1;
nodes = (
"970 168 LINE",
"1200 874 LINE",
"600 1310 LINE",
"0 874 LINE",
"230 168 LINE"
);
}
);
width = 1200;
},
{
layerId = "1F90C004-9C90-48FA-B407-176B3E9F1E65";
paths = (
{
closed = 1;
nodes = (
"970 168 LINE",
"1200 874 LINE",
"600 1310 LINE",
"0 874 LINE",
"230 168 LINE"
);
}
);
width = 1200;
},
{
layerId = "8E053A5E-67DA-4970-A6F5-068DBFE5AD21";
paths = (
{
closed = 1;
nodes = (
"970 168 LINE",
"1200 874 LINE",
"600 1310 LINE",
"0 874 LINE",
"230 168 LINE"
);
}
);
width = 1200;
}
);
note = uni2B1F;
unicode = 2B1F;
}
{
glyphname = blackSmallDiamond;
production = uni2B29;
layers = (
{
layerId = master01;
paths = (
{
closed = 1;
nodes = (
"776 710 LINE",
"600 886 LINE",
"424 710 LINE",
"600 534 LINE"
);
}
);
width = 1200;
},
{
layerId = "1F90C004-9C90-48FA-B407-176B3E9F1E65";
paths = (
{
closed = 1;
nodes = (
"776 710 LINE",
"600 886 LINE",
"424 710 LINE",
"600 534 LINE"
);
}
);
width = 1200;
},
{
layerId = "8E053A5E-67DA-4970-A6F5-068DBFE5AD21";
paths = (
{
closed = 1;
nodes = (
"776 710 LINE",
"600 886 LINE",
"424 710 LINE",
"600 534 LINE"
);
}
);
width = 1200;
}
);
note = uni2B29;
unicode = 2B29;
}
{
glyphname = blackSmallLozenge;
production = uni2B2A;
layers = (
{
layerId = master01;
paths = (
{
closed = 1;
nodes = (
"785 710 LINE",
"600 1019 LINE",
"415 710 LINE",
"600 402 LINE"
);
}
);
width = 1200;
},
{
layerId = "1F90C004-9C90-48FA-B407-176B3E9F1E65";
paths = (
{
closed = 1;
nodes = (
"785 710 LINE",
"600 1019 LINE",
"415 710 LINE",
"600 402 LINE"
);
}
);
width = 1200;
},
{
layerId = "8E053A5E-67DA-4970-A6F5-068DBFE5AD21";
paths = (
{
closed = 1;
nodes = (
"785 710 LINE",
"600 1019 LINE",
"415 710 LINE",
"600 402 LINE"
);
}
);
width = 1200;
}
);
note = uni2B2A;
unicode = 2B2A;
}
{
glyphname = blackVerticalEllipse;
production = uni2B2E;
layers = (
{
layerId = master01;
paths = (
{
closed = 1;
nodes = (
"790 185 OFFCURVE",
"915 394 OFFCURVE",
"915 710 CURVE SMOOTH",
"915 1026 OFFCURVE",
"790 1235 OFFCURVE",
"600 1235 CURVE SMOOTH",
"410 1235 OFFCURVE",
"285 1026 OFFCURVE",
"285 710 CURVE SMOOTH",
"285 394 OFFCURVE",
"410 185 OFFCURVE",
"600 185 CURVE SMOOTH"
);
}
);
width = 1200;
},
{
layerId = "1F90C004-9C90-48FA-B407-176B3E9F1E65";
paths = (
{
closed = 1;
nodes = (
"790 185 OFFCURVE",
"915 394 OFFCURVE",
"915 710 CURVE SMOOTH",
"915 1026 OFFCURVE",
"790 1235 OFFCURVE",
"600 1235 CURVE SMOOTH",
"410 1235 OFFCURVE",
"285 1026 OFFCURVE",
"285 710 CURVE SMOOTH",
"285 394 OFFCURVE",
"410 185 OFFCURVE",
"600 185 CURVE SMOOTH"
);
}
);
width = 1200;
},
{
layerId = "8E053A5E-67DA-4970-A6F5-068DBFE5AD21";
paths = (
{
closed = 1;
nodes = (
"790 185 OFFCURVE",
"915 394 OFFCURVE",
"915 710 CURVE SMOOTH",
"915 1026 OFFCURVE",
"790 1235 OFFCURVE",
"600 1235 CURVE SMOOTH",
"410 1235 OFFCURVE",
"285 1026 OFFCURVE",
"285 710 CURVE SMOOTH",
"285 394 OFFCURVE",
"410 185 OFFCURVE",
"600 185 CURVE SMOOTH"
);
}
);
width = 1200;
}
);
note = uni2B2E;
unicode = 2B2E;
}
{
glyphname = blackVerysmallSquare;
production = uni2B1D;
layers = (
{
layerId = master01;
paths = (
{
closed = 1;
nodes = (
"825 485 LINE",
"825 935 LINE",
"375 935 LINE",
"375 485 LINE"
);
}
);
width = 1200;
},
{
layerId = "1F90C004-9C90-48FA-B407-176B3E9F1E65";
paths = (
{
closed = 1;
nodes = (
"825 485 LINE",
"825 935 LINE",
"375 935 LINE",
"375 485 LINE"
);
}
);
width = 1200;
},
{
layerId = "8E053A5E-67DA-4970-A6F5-068DBFE5AD21";
paths = (
{
closed = 1;
nodes = (
"825 485 LINE",
"825 935 LINE",
"375 935 LINE",
"375 485 LINE"
);
}
);
width = 1200;
}
);
note = uni2B1D;
unicode = 2B1D;
}
{
glyphname = bottomHalfBlackCircle;
production = uni2BCB;
layers = (
{
layerId = master01;
paths = (
{
closed = 1;
nodes = (
"916 185 OFFCURVE",
"1125 394 OFFCURVE",
"1125 710 CURVE",
"75 710 LINE",
"75 394 OFFCURVE",
"284 185 OFFCURVE",
"600 185 CURVE SMOOTH"
);
}
);
width = 1200;
},
{
layerId = "1F90C004-9C90-48FA-B407-176B3E9F1E65";
paths = (
{
closed = 1;
nodes = (
"916 185 OFFCURVE",
"1125 394 OFFCURVE",
"1125 710 CURVE",
"75 710 LINE",
"75 394 OFFCURVE",
"284 185 OFFCURVE",
"600 185 CURVE SMOOTH"
);
}
);
width = 1200;
},
{
layerId = "8E053A5E-67DA-4970-A6F5-068DBFE5AD21";
paths = (
{
closed = 1;
nodes = (
"916 185 OFFCURVE",
"1125 394 OFFCURVE",
"1125 710 CURVE",
"75 710 LINE",
"75 394 OFFCURVE",
"284 185 OFFCURVE",
"600 185 CURVE SMOOTH"
);
}
);
width = 1200;
}
);
note = uni2BCB;
unicode = 2BCB;
}
{
glyphname = bottomHalfBlackDiamond;
production = uni2B19;
layers = (
{
components = (
{
name = whiteDiamond;
transform = "{-1, 0, 0, -1, 1200, 1420}";
}
);
layerId = master01;
paths = (
{
closed = 1;
nodes = (
"600 192 LINE",
"1133 710 LINE",
"67 710 LINE"
);
}
);
width = 1200;
},
{
components = (
{
name = whiteDiamond;
transform = "{-1, 0, 0, -1, 1200, 1420}";
}
);
layerId = "1F90C004-9C90-48FA-B407-176B3E9F1E65";
paths = (
{
closed = 1;
nodes = (
"600 192 LINE",
"1133 710 LINE",
"67 710 LINE"
);
}
);
width = 1200;
},
{
components = (
{
alignment = -1;
name = whiteDiamond;
transform = "{-1, 0, 0, -1, 1200, 1420}";
}
);
layerId = "8E053A5E-67DA-4970-A6F5-068DBFE5AD21";
paths = (
{
closed = 1;
nodes = (
"600 192 LINE",
"1133 710 LINE",
"67 710 LINE"
);
}
);
width = 1200;
}
);
note = uni2B19;
unicode = 2B19;
}
{
glyphname = dottedSquare;
production = uni2B1A;
layers = (
{
layerId = master01;
paths = (
{
closed = 1;
nodes = (
"1084 1098 OFFCURVE",
"1112 1126 OFFCURVE",
"1112 1160 CURVE SMOOTH",
"1112 1194 OFFCURVE",
"1084 1222 OFFCURVE",
"1050 1222 CURVE SMOOTH",
"1016 1222 OFFCURVE",
"988 1194 OFFCURVE",
"988 1160 CURVE SMOOTH",
"988 1126 OFFCURVE",
"1016 1098 OFFCURVE",
"1050 1098 CURVE SMOOTH"
);
},
{
closed = 1;
nodes = (
"184 198 OFFCURVE",
"212 226 OFFCURVE",
"212 260 CURVE SMOOTH",
"212 294 OFFCURVE",
"184 322 OFFCURVE",
"150 322 CURVE SMOOTH",
"116 322 OFFCURVE",
"88 294 OFFCURVE",
"88 260 CURVE SMOOTH",
"88 226 OFFCURVE",
"116 198 OFFCURVE",
"150 198 CURVE SMOOTH"
);
},
{
closed = 1;
nodes = (
"184 498 OFFCURVE",
"212 526 OFFCURVE",
"212 560 CURVE SMOOTH",
"212 594 OFFCURVE",
"184 622 OFFCURVE",
"150 622 CURVE SMOOTH",
"116 622 OFFCURVE",
"88 594 OFFCURVE",
"88 560 CURVE SMOOTH",
"88 526 OFFCURVE",
"116 498 OFFCURVE",
"150 498 CURVE SMOOTH"
);
},
{
closed = 1;
nodes = (
"484 198 OFFCURVE",
"512 226 OFFCURVE",
"512 260 CURVE SMOOTH",
"512 294 OFFCURVE",
"484 322 OFFCURVE",
"450 322 CURVE SMOOTH",
"416 322 OFFCURVE",
"388 294 OFFCURVE",
"388 260 CURVE SMOOTH",
"388 226 OFFCURVE",
"416 198 OFFCURVE",
"450 198 CURVE SMOOTH"
);
},
{
closed = 1;
nodes = (
"184 798 OFFCURVE",
"212 826 OFFCURVE",
"212 860 CURVE SMOOTH",
"212 894 OFFCURVE",
"184 922 OFFCURVE",
"150 922 CURVE SMOOTH",
"116 922 OFFCURVE",
"88 894 OFFCURVE",
"88 860 CURVE SMOOTH",
"88 826 OFFCURVE",
"116 798 OFFCURVE",
"150 798 CURVE SMOOTH"
);
},
{
closed = 1;
nodes = (
"784 198 OFFCURVE",
"812 226 OFFCURVE",
"812 260 CURVE SMOOTH",
"812 294 OFFCURVE",
"784 322 OFFCURVE",
"750 322 CURVE SMOOTH",
"716 322 OFFCURVE",
"688 294 OFFCURVE",
"688 260 CURVE SMOOTH",
"688 226 OFFCURVE",
"716 198 OFFCURVE",
"750 198 CURVE SMOOTH"
);
},
{
closed = 1;
nodes = (
"184 1098 OFFCURVE",
"212 1126 OFFCURVE",
"212 1160 CURVE SMOOTH",
"212 1194 OFFCURVE",
"184 1222 OFFCURVE",
"150 1222 CURVE SMOOTH",
"116 1222 OFFCURVE",
"88 1194 OFFCURVE",
"88 1160 CURVE SMOOTH",
"88 1126 OFFCURVE",
"116 1098 OFFCURVE",
"150 1098 CURVE SMOOTH"
);
},
{
closed = 1;
nodes = (
"1084 198 OFFCURVE",
"1112 226 OFFCURVE",
"1112 260 CURVE SMOOTH",
"1112 294 OFFCURVE",
"1084 322 OFFCURVE",
"1050 322 CURVE SMOOTH",
"1016 322 OFFCURVE",
"988 294 OFFCURVE",
"988 260 CURVE SMOOTH",
"988 226 OFFCURVE",
"1016 198 OFFCURVE",
"1050 198 CURVE SMOOTH"
);
},
{
closed = 1;
nodes = (
"484 1098 OFFCURVE",
"512 1126 OFFCURVE",
"512 1160 CURVE SMOOTH",
"512 1194 OFFCURVE",
"484 1222 OFFCURVE",
"450 1222 CURVE SMOOTH",
"416 1222 OFFCURVE",
"388 1194 OFFCURVE",
"388 1160 CURVE SMOOTH",
"388 1126 OFFCURVE",
"416 1098 OFFCURVE",
"450 1098 CURVE SMOOTH"
);
},
{
closed = 1;
nodes = (
"1084 498 OFFCURVE",
"1112 526 OFFCURVE",
"1112 560 CURVE SMOOTH",
"1112 594 OFFCURVE",
"1084 622 OFFCURVE",
"1050 622 CURVE SMOOTH",
"1016 622 OFFCURVE",
"988 594 OFFCURVE",
"988 560 CURVE SMOOTH",
"988 526 OFFCURVE",
"1016 498 OFFCURVE",
"1050 498 CURVE SMOOTH"
);
},
{
closed = 1;
nodes = (
"1084 798 OFFCURVE",
"1112 826 OFFCURVE",
"1112 860 CURVE SMOOTH",
"1112 894 OFFCURVE",
"1084 922 OFFCURVE",
"1050 922 CURVE SMOOTH",
"1016 922 OFFCURVE",
"988 894 OFFCURVE",
"988 860 CURVE SMOOTH",
"988 826 OFFCURVE",
"1016 798 OFFCURVE",
"1050 798 CURVE SMOOTH"
);
},
{
closed = 1;
nodes = (
"784 1098 OFFCURVE",
"812 1126 OFFCURVE",
"812 1160 CURVE SMOOTH",
"812 1194 OFFCURVE",
"784 1222 OFFCURVE",
"750 1222 CURVE SMOOTH",
"716 1222 OFFCURVE",
"688 1194 OFFCURVE",
"688 1160 CURVE SMOOTH",
"688 1126 OFFCURVE",
"716 1098 OFFCURVE",
"750 1098 CURVE SMOOTH"
);
}
);
width = 1200;
},
{
layerId = "1F90C004-9C90-48FA-B407-176B3E9F1E65";
paths = (
{
closed = 1;
nodes = (
"1091 1085 OFFCURVE",
"1125 1119 OFFCURVE",
"1125 1160 CURVE SMOOTH",
"1125 1201 OFFCURVE",
"1091 1235 OFFCURVE",
"1050 1235 CURVE SMOOTH",
"1009 1235 OFFCURVE",
"975 1201 OFFCURVE",
"975 1160 CURVE SMOOTH",
"975 1119 OFFCURVE",
"1009 1085 OFFCURVE",
"1050 1085 CURVE SMOOTH"
);
},
{
closed = 1;
nodes = (
"191 185 OFFCURVE",
"225 219 OFFCURVE",
"225 260 CURVE SMOOTH",
"225 301 OFFCURVE",
"191 335 OFFCURVE",
"150 335 CURVE SMOOTH",
"109 335 OFFCURVE",
"75 301 OFFCURVE",
"75 260 CURVE SMOOTH",
"75 219 OFFCURVE",
"109 185 OFFCURVE",
"150 185 CURVE SMOOTH"
);
},
{
closed = 1;
nodes = (
"191 485 OFFCURVE",
"225 519 OFFCURVE",
"225 560 CURVE SMOOTH",
"225 601 OFFCURVE",
"191 635 OFFCURVE",
"150 635 CURVE SMOOTH",
"109 635 OFFCURVE",
"75 601 OFFCURVE",
"75 560 CURVE SMOOTH",
"75 519 OFFCURVE",
"109 485 OFFCURVE",
"150 485 CURVE SMOOTH"
);
},
{
closed = 1;
nodes = (
"491 185 OFFCURVE",
"525 219 OFFCURVE",
"525 260 CURVE SMOOTH",
"525 301 OFFCURVE",
"491 335 OFFCURVE",
"450 335 CURVE SMOOTH",
"409 335 OFFCURVE",
"375 301 OFFCURVE",
"375 260 CURVE SMOOTH",
"375 219 OFFCURVE",
"409 185 OFFCURVE",
"450 185 CURVE SMOOTH"
);
},
{
closed = 1;
nodes = (
"191 785 OFFCURVE",
"225 819 OFFCURVE",
"225 860 CURVE SMOOTH",
"225 901 OFFCURVE",
"191 935 OFFCURVE",
"150 935 CURVE SMOOTH",
"109 935 OFFCURVE",
"75 901 OFFCURVE",
"75 860 CURVE SMOOTH",
"75 819 OFFCURVE",
"109 785 OFFCURVE",
"150 785 CURVE SMOOTH"
);
},
{
closed = 1;
nodes = (
"791 185 OFFCURVE",
"825 219 OFFCURVE",
"825 260 CURVE SMOOTH",
"825 301 OFFCURVE",
"791 335 OFFCURVE",
"750 335 CURVE SMOOTH",
"709 335 OFFCURVE",
"675 301 OFFCURVE",
"675 260 CURVE SMOOTH",
"675 219 OFFCURVE",
"709 185 OFFCURVE",
"750 185 CURVE SMOOTH"
);
},
{
closed = 1;
nodes = (
"191 1085 OFFCURVE",
"225 1119 OFFCURVE",
"225 1160 CURVE SMOOTH",
"225 1201 OFFCURVE",
"191 1235 OFFCURVE",
"150 1235 CURVE SMOOTH",
"109 1235 OFFCURVE",
"75 1201 OFFCURVE",
"75 1160 CURVE SMOOTH",
"75 1119 OFFCURVE",
"109 1085 OFFCURVE",
"150 1085 CURVE SMOOTH"
);
},
{
closed = 1;
nodes = (
"1091 185 OFFCURVE",
"1125 219 OFFCURVE",
"1125 260 CURVE SMOOTH",
"1125 301 OFFCURVE",
"1091 335 OFFCURVE",
"1050 335 CURVE SMOOTH",
"1009 335 OFFCURVE",
"975 301 OFFCURVE",
"975 260 CURVE SMOOTH",
"975 219 OFFCURVE",
"1009 185 OFFCURVE",
"1050 185 CURVE SMOOTH"
);
},
{
closed = 1;
nodes = (
"491 1085 OFFCURVE",
"525 1119 OFFCURVE",
"525 1160 CURVE SMOOTH",
"525 1201 OFFCURVE",
"491 1235 OFFCURVE",
"450 1235 CURVE SMOOTH",
"409 1235 OFFCURVE",
"375 1201 OFFCURVE",
"375 1160 CURVE SMOOTH",
"375 1119 OFFCURVE",
"409 1085 OFFCURVE",
"450 1085 CURVE SMOOTH"
);
},
{
closed = 1;
nodes = (
"1091 485 OFFCURVE",
"1125 519 OFFCURVE",
"1125 560 CURVE SMOOTH",
"1125 601 OFFCURVE",
"1091 635 OFFCURVE",
"1050 635 CURVE SMOOTH",
"1009 635 OFFCURVE",
"975 601 OFFCURVE",
"975 560 CURVE SMOOTH",
"975 519 OFFCURVE",
"1009 485 OFFCURVE",
"1050 485 CURVE SMOOTH"
);
},
{
closed = 1;
nodes = (
"1091 785 OFFCURVE",
"1125 819 OFFCURVE",
"1125 860 CURVE SMOOTH",
"1125 901 OFFCURVE",
"1091 935 OFFCURVE",
"1050 935 CURVE SMOOTH",
"1009 935 OFFCURVE",
"975 901 OFFCURVE",
"975 860 CURVE SMOOTH",
"975 819 OFFCURVE",
"1009 785 OFFCURVE",
"1050 785 CURVE SMOOTH"
);
},
{
closed = 1;
nodes = (
"791 1085 OFFCURVE",
"825 1119 OFFCURVE",
"825 1160 CURVE SMOOTH",
"825 1201 OFFCURVE",
"791 1235 OFFCURVE",
"750 1235 CURVE SMOOTH",
"709 1235 OFFCURVE",
"675 1201 OFFCURVE",
"675 1160 CURVE SMOOTH",
"675 1119 OFFCURVE",
"709 1085 OFFCURVE",
"750 1085 CURVE SMOOTH"
);
}
);
width = 1200;
},
{
layerId = "8E053A5E-67DA-4970-A6F5-068DBFE5AD21";
paths = (
{
closed = 1;
nodes = (
"1099 1072 OFFCURVE",
"1138 1112 OFFCURVE",
"1138 1160 CURVE SMOOTH",
"1138 1209 OFFCURVE",
"1099 1248 OFFCURVE",
"1050 1248 CURVE SMOOTH",
"1002 1248 OFFCURVE",
"962 1209 OFFCURVE",
"962 1160 CURVE SMOOTH",
"962 1112 OFFCURVE",
"1002 1072 OFFCURVE",
"1050 1072 CURVE SMOOTH"
);
},
{
closed = 1;
nodes = (
"199 172 OFFCURVE",
"238 212 OFFCURVE",
"238 260 CURVE SMOOTH",
"238 309 OFFCURVE",
"199 348 OFFCURVE",
"150 348 CURVE SMOOTH",
"102 348 OFFCURVE",
"62 309 OFFCURVE",
"62 260 CURVE SMOOTH",
"62 212 OFFCURVE",
"102 172 OFFCURVE",
"150 172 CURVE SMOOTH"
);
},
{
closed = 1;
nodes = (
"199 472 OFFCURVE",
"238 512 OFFCURVE",
"238 560 CURVE SMOOTH",
"238 609 OFFCURVE",
"199 648 OFFCURVE",
"150 648 CURVE SMOOTH",
"102 648 OFFCURVE",
"62 609 OFFCURVE",
"62 560 CURVE SMOOTH",
"62 512 OFFCURVE",
"102 472 OFFCURVE",
"150 472 CURVE SMOOTH"
);
},
{
closed = 1;
nodes = (
"499 172 OFFCURVE",
"538 212 OFFCURVE",
"538 260 CURVE SMOOTH",
"538 309 OFFCURVE",
"499 348 OFFCURVE",
"450 348 CURVE SMOOTH",
"402 348 OFFCURVE",
"362 309 OFFCURVE",
"362 260 CURVE SMOOTH",
"362 212 OFFCURVE",
"402 172 OFFCURVE",
"450 172 CURVE SMOOTH"
);
},
{
closed = 1;
nodes = (
"199 772 OFFCURVE",
"238 812 OFFCURVE",
"238 860 CURVE SMOOTH",
"238 909 OFFCURVE",
"199 948 OFFCURVE",
"150 948 CURVE SMOOTH",
"102 948 OFFCURVE",
"62 909 OFFCURVE",
"62 860 CURVE SMOOTH",
"62 812 OFFCURVE",
"102 772 OFFCURVE",
"150 772 CURVE SMOOTH"
);
},
{
closed = 1;
nodes = (
"799 172 OFFCURVE",
"838 212 OFFCURVE",
"838 260 CURVE SMOOTH",
"838 309 OFFCURVE",
"799 348 OFFCURVE",
"750 348 CURVE SMOOTH",
"702 348 OFFCURVE",
"662 309 OFFCURVE",
"662 260 CURVE SMOOTH",
"662 212 OFFCURVE",
"702 172 OFFCURVE",
"750 172 CURVE SMOOTH"
);
},
{
closed = 1;
nodes = (
"199 1072 OFFCURVE",
"238 1112 OFFCURVE",
"238 1160 CURVE SMOOTH",
"238 1209 OFFCURVE",
"199 1248 OFFCURVE",
"150 1248 CURVE SMOOTH",
"102 1248 OFFCURVE",
"62 1209 OFFCURVE",
"62 1160 CURVE SMOOTH",
"62 1112 OFFCURVE",
"102 1072 OFFCURVE",
"150 1072 CURVE SMOOTH"
);
},
{
closed = 1;
nodes = (
"1099 172 OFFCURVE",
"1138 212 OFFCURVE",
"1138 260 CURVE SMOOTH",
"1138 309 OFFCURVE",
"1099 348 OFFCURVE",
"1050 348 CURVE SMOOTH",
"1002 348 OFFCURVE",
"962 309 OFFCURVE",
"962 260 CURVE SMOOTH",
"962 212 OFFCURVE",
"1002 172 OFFCURVE",
"1050 172 CURVE SMOOTH"
);
},
{
closed = 1;
nodes = (
"499 1072 OFFCURVE",
"538 1112 OFFCURVE",
"538 1160 CURVE SMOOTH",
"538 1209 OFFCURVE",
"499 1248 OFFCURVE",
"450 1248 CURVE SMOOTH",
"402 1248 OFFCURVE",
"362 1209 OFFCURVE",
"362 1160 CURVE SMOOTH",
"362 1112 OFFCURVE",
"402 1072 OFFCURVE",
"450 1072 CURVE SMOOTH"
);
},
{
closed = 1;
nodes = (
"1099 472 OFFCURVE",
"1138 512 OFFCURVE",
"1138 560 CURVE SMOOTH",
"1138 609 OFFCURVE",
"1099 648 OFFCURVE",
"1050 648 CURVE SMOOTH",
"1002 648 OFFCURVE",
"962 609 OFFCURVE",
"962 560 CURVE SMOOTH",
"962 512 OFFCURVE",
"1002 472 OFFCURVE",
"1050 472 CURVE SMOOTH"
);
},
{
closed = 1;
nodes = (
"1099 772 OFFCURVE",
"1138 812 OFFCURVE",
"1138 860 CURVE SMOOTH",
"1138 909 OFFCURVE",
"1099 948 OFFCURVE",
"1050 948 CURVE SMOOTH",
"1002 948 OFFCURVE",
"962 909 OFFCURVE",
"962 860 CURVE SMOOTH",
"962 812 OFFCURVE",
"1002 772 OFFCURVE",
"1050 772 CURVE SMOOTH"
);
},
{
closed = 1;
nodes = (
"799 1072 OFFCURVE",
"838 1112 OFFCURVE",
"838 1160 CURVE SMOOTH",
"838 1209 OFFCURVE",
"799 1248 OFFCURVE",
"750 1248 CURVE SMOOTH",
"702 1248 OFFCURVE",
"662 1209 OFFCURVE",
"662 1160 CURVE SMOOTH",
"662 1112 OFFCURVE",
"702 1072 OFFCURVE",
"750 1072 CURVE SMOOTH"
);
}
);
width = 1200;
}
);
note = uni2B1A;
unicode = 2B1A;
}
{
glyphname = horizontalBlackHexagon;
production = uni2B23;
layers = (
{
layerId = master01;
paths = (
{
closed = 1;
nodes = (
"900 190 LINE",
"1200 710 LINE",
"900 1230 LINE",
"300 1230 LINE",
"0 710 LINE",
"300 190 LINE"
);
}
);
width = 1200;
},
{
layerId = "1F90C004-9C90-48FA-B407-176B3E9F1E65";
paths = (
{
closed = 1;
nodes = (
"900 190 LINE",
"1200 710 LINE",
"900 1230 LINE",
"300 1230 LINE",
"0 710 LINE",
"300 190 LINE"
);
}
);
width = 1200;
},
{
layerId = "8E053A5E-67DA-4970-A6F5-068DBFE5AD21";
paths = (
{
closed = 1;
nodes = (
"900 190 LINE",
"1200 710 LINE",
"900 1230 LINE",
"300 1230 LINE",
"0 710 LINE",
"300 190 LINE"
);
}
);
width = 1200;
}
);
note = uni2B23;
unicode = 2B23;
}
{
glyphname = leftHalfBlackDiamond;
production = uni2B16;
layers = (
{
components = (
{
name = whiteDiamond;
}
);
layerId = master01;
paths = (
{
closed = 1;
nodes = (
"600 1228 LINE",
"67 710 LINE",
"600 192 LINE"
);
}
);
width = 1200;
},
{
components = (
{
name = whiteDiamond;
}
);
layerId = "1F90C004-9C90-48FA-B407-176B3E9F1E65";
paths = (
{
closed = 1;
nodes = (
"600 1228 LINE",
"67 710 LINE",
"600 192 LINE"
);
}
);
width = 1200;
},
{
components = (
{
alignment = -1;
name = whiteDiamond;
}
);
layerId = "8E053A5E-67DA-4970-A6F5-068DBFE5AD21";
paths = (
{
closed = 1;
nodes = (
"600 1228 LINE",
"67 710 LINE",
"600 192 LINE"
);
}
);
width = 1200;
}
);
note = uni2B16;
unicode = 2B16;
}
{
glyphname = lowerHalfWhiteSquare;
production = uni2B12;
layers = (
{
components = (
{
name = whiteSquare;
}
);
layerId = master01;
paths = (
{
closed = 1;
nodes = (
"1075 710 LINE",
"1075 1195 LINE",
"125 1195 LINE",
"125 710 LINE"
);
}
);
width = 1200;
},
{
components = (
{
name = whiteSquare;
}
);
layerId = "1F90C004-9C90-48FA-B407-176B3E9F1E65";
paths = (
{
closed = 1;
nodes = (
"1075 710 LINE",
"1075 1195 LINE",
"125 1195 LINE",
"125 710 LINE"
);
}
);
width = 1200;
},
{
components = (
{
name = whiteSquare;
}
);
layerId = "8E053A5E-67DA-4970-A6F5-068DBFE5AD21";
paths = (
{
closed = 1;
nodes = (
"1075 710 LINE",
"1075 1195 LINE",
"125 1195 LINE",
"125 710 LINE"
);
}
);
width = 1200;
}
);
note = uni2B12;
unicode = 2B12;
}
{
glyphname = lowerLeftHalfWhiteSquare;
production = uni2B14;
layers = (
{
components = (
{
name = whiteSquare;
}
);
layerId = master01;
paths = (
{
closed = 1;
nodes = (
"1090 221 LINE",
"1090 1209 LINE",
"111 1209 LINE"
);
}
);
width = 1200;
},
{
components = (
{
name = whiteSquare;
}
);
layerId = "1F90C004-9C90-48FA-B407-176B3E9F1E65";
paths = (
{
closed = 1;
nodes = (
"1090 221 LINE",
"1090 1209 LINE",
"111 1209 LINE"
);
}
);
width = 1200;
},
{
components = (
{
name = whiteSquare;
}
);
layerId = "8E053A5E-67DA-4970-A6F5-068DBFE5AD21";
paths = (
{
closed = 1;
nodes = (
"1090 221 LINE",
"1090 1209 LINE",
"111 1209 LINE"
);
}
);
width = 1200;
}
);
note = uni2B14;
unicode = 2B14;
}
{
glyphname = rightHalfBlackDiamond;
production = uni2B17;
layers = (
{
components = (
{
name = whiteDiamond;
}
);
layerId = master01;
paths = (
{
closed = 1;
nodes = (
"1133 710 LINE",
"600 1228 LINE",
"600 192 LINE"
);
}
);
width = 1200;
},
{
components = (
{
name = whiteDiamond;
}
);
layerId = "1F90C004-9C90-48FA-B407-176B3E9F1E65";
paths = (
{
closed = 1;
nodes = (
"1133 710 LINE",
"600 1228 LINE",
"600 192 LINE"
);
}
);
width = 1200;
},
{
components = (
{
name = whiteDiamond;
}
);
layerId = "8E053A5E-67DA-4970-A6F5-068DBFE5AD21";
paths = (
{
closed = 1;
nodes = (
"1133 710 LINE",
"600 1228 LINE",
"600 192 LINE"
);
}
);
width = 1200;
}
);
note = uni2B17;
unicode = 2B17;
}
{
glyphname = topHalfBlackCircle;
production = uni2BCA;
layers = (
{
layerId = master01;
paths = (
{
closed = 1;
nodes = (
"1125 710 LINE",
"1125 1026 OFFCURVE",
"916 1235 OFFCURVE",
"600 1235 CURVE SMOOTH",
"284 1235 OFFCURVE",
"75 1026 OFFCURVE",
"75 710 CURVE"
);
}
);
width = 1200;
},
{
layerId = "1F90C004-9C90-48FA-B407-176B3E9F1E65";
paths = (
{
closed = 1;
nodes = (
"1125 710 LINE",
"1125 1026 OFFCURVE",
"916 1235 OFFCURVE",
"600 1235 CURVE SMOOTH",
"284 1235 OFFCURVE",
"75 1026 OFFCURVE",
"75 710 CURVE"
);
}
);
width = 1200;
},
{
layerId = "8E053A5E-67DA-4970-A6F5-068DBFE5AD21";
paths = (
{
closed = 1;
nodes = (
"1125 710 LINE",
"1125 1026 OFFCURVE",
"916 1235 OFFCURVE",
"600 1235 CURVE SMOOTH",
"284 1235 OFFCURVE",
"75 1026 OFFCURVE",
"75 710 CURVE"
);
}
);
width = 1200;
}
);
note = uni2BCA;
unicode = 2BCA;
}
{
glyphname = topHalfWhiteSquare;
production = uni2B13;
layers = (
{
components = (
{
name = whiteSquare;
}
);
layerId = master01;
paths = (
{
closed = 1;
nodes = (
"125 225 LINE",
"1075 225 LINE",
"1075 710 LINE",
"125 710 LINE"
);
}
);
width = 1200;
},
{
components = (
{
name = whiteSquare;
}
);
layerId = "1F90C004-9C90-48FA-B407-176B3E9F1E65";
paths = (
{
closed = 1;
nodes = (
"125 225 LINE",
"1075 225 LINE",
"1075 710 LINE",
"125 710 LINE"
);
}
);
width = 1200;
},
{
components = (
{
name = whiteSquare;
}
);
layerId = "8E053A5E-67DA-4970-A6F5-068DBFE5AD21";
paths = (
{
closed = 1;
nodes = (
"125 225 LINE",
"1075 225 LINE",
"1075 710 LINE",
"125 710 LINE"
);
}
);
width = 1200;
}
);
note = uni2B13;
unicode = 2B13;
}
{
glyphname = topRightHalfWhiteSquare;
production = uni2B15;
layers = (
{
components = (
{
name = whiteSquare;
}
);
layerId = master01;
paths = (
{
closed = 1;
nodes = (
"110 1199 LINE",
"110 211 LINE",
"1089 211 LINE"
);
}
);
width = 1200;
},
{
components = (
{
name = whiteSquare;
}
);
layerId = "1F90C004-9C90-48FA-B407-176B3E9F1E65";
paths = (
{
closed = 1;
nodes = (
"110 1199 LINE",
"110 211 LINE",
"1089 211 LINE"
);
}
);
width = 1200;
},
{
components = (
{
name = whiteSquare;
}
);
layerId = "8E053A5E-67DA-4970-A6F5-068DBFE5AD21";
paths = (
{
closed = 1;
nodes = (
"110 1199 LINE",
"110 211 LINE",
"1089 211 LINE"
);
}
);
width = 1200;
}
);
note = uni2B15;
unicode = 2B15;
}
{
glyphname = whiteHexagon;
production = uni2B21;
layers = (
{
layerId = master01;
paths = (
{
closed = 1;
nodes = (
"1120 410 LINE",
"1120 1010 LINE",
"600 1310 LINE",
"80 1010 LINE",
"80 410 LINE",
"600 110 LINE"
);
},
{
closed = 1;
nodes = (
"107 509 LINE",
"174 390 LINE",
"174 1024 LINE",
"100 907 LINE",
"644 1223 LINE",
"556 1223 LINE",
"1101 907 LINE",
"1026 1024 LINE",
"1026 391 LINE",
"1091 508 LINE",
"524 179 LINE",
"675 179 LINE"
);
}
);
width = 1200;
},
{
layerId = "1F90C004-9C90-48FA-B407-176B3E9F1E65";
paths = (
{
closed = 1;
nodes = (
"1120 410 LINE",
"1120 1010 LINE",
"600 1310 LINE",
"80 1010 LINE",
"80 410 LINE",
"600 110 LINE"
);
},
{
closed = 1;
nodes = (
"160 538 LINE",
"230 416 LINE",
"230 1004 LINE",
"160 882 LINE",
"670 1178 LINE",
"530 1178 LINE",
"1040 882 LINE",
"970 1004 LINE",
"970 416 LINE",
"1040 538 LINE",
"530 242 LINE",
"670 242 LINE"
);
}
);
width = 1200;
},
{
layerId = "8E053A5E-67DA-4970-A6F5-068DBFE5AD21";
paths = (
{
closed = 1;
nodes = (
"1120 410 LINE",
"1120 1010 LINE",
"600 1310 LINE",
"80 1010 LINE",
"80 410 LINE",
"600 110 LINE"
);
},
{
closed = 1;
nodes = (
"160 613 LINE",
"305 416 LINE",
"305 1004 LINE",
"160 807 LINE",
"670 1103 LINE",
"530 1103 LINE",
"1040 807 LINE",
"895 1004 LINE",
"895 416 LINE",
"1040 613 LINE",
"530 317 LINE",
"670 317 LINE"
);
}
);
width = 1200;
}
);
note = uni2B21;
unicode = 2B21;
}
{
glyphname = whiteHorizontalEllipse;
production = uni2B2D;
layers = (
{
layerId = master01;
paths = (
{
closed = 1;
nodes = (
"916 395 OFFCURVE",
"1125 520 OFFCURVE",
"1125 710 CURVE SMOOTH",
"1125 900 OFFCURVE",
"916 1025 OFFCURVE",
"600 1025 CURVE SMOOTH",
"284 1025 OFFCURVE",
"75 900 OFFCURVE",
"75 710 CURVE SMOOTH",
"75 520 OFFCURVE",
"284 395 OFFCURVE",
"600 395 CURVE SMOOTH"
);
},
{
closed = 1;
nodes = (
"341 487 OFFCURVE",
"171 576 OFFCURVE",
"171 710 CURVE SMOOTH",
"171 844 OFFCURVE",
"341 933 OFFCURVE",
"600 933 CURVE SMOOTH",
"859 933 OFFCURVE",
"1029 844 OFFCURVE",
"1029 710 CURVE SMOOTH",
"1029 576 OFFCURVE",
"859 487 OFFCURVE",
"600 487 CURVE SMOOTH"
);
}
);
width = 1200;
},
{
layerId = "1F90C004-9C90-48FA-B407-176B3E9F1E65";
paths = (
{
closed = 1;
nodes = (
"916 395 OFFCURVE",
"1125 520 OFFCURVE",
"1125 710 CURVE SMOOTH",
"1125 900 OFFCURVE",
"916 1025 OFFCURVE",
"600 1025 CURVE SMOOTH",
"284 1025 OFFCURVE",
"75 900 OFFCURVE",
"75 710 CURVE SMOOTH",
"75 520 OFFCURVE",
"284 395 OFFCURVE",
"600 395 CURVE SMOOTH"
);
},
{
closed = 1;
nodes = (
"374 545 OFFCURVE",
"225 611 OFFCURVE",
"225 710 CURVE SMOOTH",
"225 809 OFFCURVE",
"374 875 OFFCURVE",
"600 875 CURVE SMOOTH",
"826 875 OFFCURVE",
"975 809 OFFCURVE",
"975 710 CURVE SMOOTH",
"975 611 OFFCURVE",
"826 545 OFFCURVE",
"600 545 CURVE SMOOTH"
);
}
);
width = 1200;
},
{
layerId = "8E053A5E-67DA-4970-A6F5-068DBFE5AD21";
paths = (
{
closed = 1;
nodes = (
"916 395 OFFCURVE",
"1125 520 OFFCURVE",
"1125 710 CURVE SMOOTH",
"1125 900 OFFCURVE",
"916 1025 OFFCURVE",
"600 1025 CURVE SMOOTH",
"284 1025 OFFCURVE",
"75 900 OFFCURVE",
"75 710 CURVE SMOOTH",
"75 520 OFFCURVE",
"284 395 OFFCURVE",
"600 395 CURVE SMOOTH"
);
},
{
closed = 1;
nodes = (
"419 578 OFFCURVE",
"300 631 OFFCURVE",
"300 710 CURVE SMOOTH",
"300 789 OFFCURVE",
"419 842 OFFCURVE",
"600 842 CURVE SMOOTH",
"781 842 OFFCURVE",
"900 789 OFFCURVE",
"900 710 CURVE SMOOTH",
"900 631 OFFCURVE",
"781 578 OFFCURVE",
"600 578 CURVE SMOOTH"
);
}
);
width = 1200;
}
);
note = uni2B2D;
unicode = 2B2D;
}
{
glyphname = whiteLargeSquare;
production = uni2B1C;
layers = (
{
layerId = master01;
paths = (
{
closed = 1;
nodes = (
"1200 110 LINE",
"1200 1310 LINE",
"0 1310 LINE",
"0 110 LINE"
);
},
{
closed = 1;
nodes = (
"94 1220 LINE",
"1106 1220 LINE",
"1106 200 LINE",
"94 200 LINE"
);
}
);
width = 1200;
},
{
layerId = "1F90C004-9C90-48FA-B407-176B3E9F1E65";
paths = (
{
closed = 1;
nodes = (
"1200 110 LINE",
"1200 1310 LINE",
"0 1310 LINE",
"0 110 LINE"
);
},
{
closed = 1;
nodes = (
"150 1160 LINE",
"1050 1160 LINE",
"1050 260 LINE",
"150 260 LINE"
);
}
);
width = 1200;
},
{
layerId = "8E053A5E-67DA-4970-A6F5-068DBFE5AD21";
paths = (
{
closed = 1;
nodes = (
"1200 110 LINE",
"1200 1310 LINE",
"0 1310 LINE",
"0 110 LINE"
);
},
{
closed = 1;
nodes = (
"225 1085 LINE",
"975 1085 LINE",
"975 335 LINE",
"225 335 LINE"
);
}
);
width = 1200;
}
);
note = uni2B1C;
unicode = 2B1C;
}
{
glyphname = whiteMediumDiamond;
production = uni2B26;
layers = (
{
layerId = master01;
paths = (
{
closed = 1;
nodes = (
"988 710 LINE",
"600 1098 LINE",
"212 710 LINE",
"600 322 LINE"
);
},
{
closed = 1;
nodes = (
"304 750 LINE",
"304 670 LINE",
"647 1013 LINE",
"553 1013 LINE",
"902 664 LINE",
"902 756 LINE",
"564 418 LINE",
"636 418 LINE"
);
}
);
width = 1200;
},
{
layerId = "1F90C004-9C90-48FA-B407-176B3E9F1E65";
paths = (
{
closed = 1;
nodes = (
"988 710 LINE",
"600 1098 LINE",
"212 710 LINE",
"600 322 LINE"
);
},
{
closed = 1;
nodes = (
"367 767 LINE",
"367 653 LINE",
"657 943 LINE",
"543 943 LINE",
"833 653 LINE",
"833 767 LINE",
"543 477 LINE",
"657 477 LINE"
);
}
);
width = 1200;
},
{
layerId = "8E053A5E-67DA-4970-A6F5-068DBFE5AD21";
paths = (
{
closed = 1;
nodes = (
"988 710 LINE",
"600 1098 LINE",
"212 710 LINE",
"600 322 LINE"
);
},
{
closed = 1;
nodes = (
"392 792 LINE",
"392 628 LINE",
"682 918 LINE",
"518 918 LINE",
"808 628 LINE",
"808 792 LINE",
"518 502 LINE",
"682 502 LINE"
);
}
);
width = 1200;
}
);
note = uni2B26;
unicode = 2B26;
}
{
glyphname = whiteMediumLozenge;
production = uni2B28;
layers = (
{
layerId = master01;
paths = (
{
closed = 1;
nodes = (
"873 710 LINE",
"600 1164 LINE",
"328 710 LINE",
"600 256 LINE"
);
},
{
closed = 1;
nodes = (
"390 779 LINE",
"390 641 LINE",
"642 1072 LINE",
"558 1072 LINE",
"810 641 LINE",
"810 779 LINE",
"558 348 LINE",
"642 348 LINE"
);
}
);
width = 1200;
},
{
layerId = "1F90C004-9C90-48FA-B407-176B3E9F1E65";
paths = (
{
closed = 1;
nodes = (
"873 710 LINE",
"600 1164 LINE",
"328 710 LINE",
"600 256 LINE"
);
},
{
closed = 1;
nodes = (
"460 779 LINE",
"460 641 LINE",
"642 942 LINE",
"558 942 LINE",
"740 641 LINE",
"740 779 LINE",
"558 478 LINE",
"642 478 LINE"
);
}
);
width = 1200;
},
{
layerId = "8E053A5E-67DA-4970-A6F5-068DBFE5AD21";
paths = (
{
closed = 1;
nodes = (
"873 710 LINE",
"600 1164 LINE",
"328 710 LINE",
"600 256 LINE"
);
},
{
closed = 1;
nodes = (
"477 787 LINE",
"477 633 LINE",
"659 934 LINE",
"541 934 LINE",
"723 633 LINE",
"723 787 LINE",
"541 486 LINE",
"659 486 LINE"
);
}
);
width = 1200;
}
);
note = uni2B28;
unicode = 2B28;
}
{
glyphname = whitePentagon;
production = uni2B20;
layers = (
{
layerId = master01;
paths = (
{
closed = 1;
nodes = (
"970 168 LINE",
"1200 874 LINE",
"600 1310 LINE",
"0 874 LINE",
"230 168 LINE"
);
},
{
closed = 1;
nodes = (
"104 840 LINE",
"600 1200 LINE",
"1096 840 LINE",
"906 258 LINE",
"294 258 LINE"
);
}
);
width = 1200;
},
{
layerId = "1F90C004-9C90-48FA-B407-176B3E9F1E65";
paths = (
{
closed = 1;
nodes = (
"970 168 LINE",
"1200 874 LINE",
"600 1310 LINE",
"0 874 LINE",
"230 168 LINE"
);
},
{
closed = 1;
nodes = (
"176 817 LINE",
"600 1125 LINE",
"1024 817 LINE",
"861 318 LINE",
"339 318 LINE"
);
}
);
width = 1200;
},
{
layerId = "8E053A5E-67DA-4970-A6F5-068DBFE5AD21";
paths = (
{
closed = 1;
nodes = (
"970 168 LINE",
"1200 874 LINE",
"600 1310 LINE",
"0 874 LINE",
"230 168 LINE"
);
},
{
closed = 1;
nodes = (
"226 800 LINE",
"600 1075 LINE",
"974 800 LINE",
"836 368 LINE",
"364 368 LINE"
);
}
);
width = 1200;
}
);
note = uni2B20;
unicode = 2B20;
}
{
glyphname = whiteSmallLozenge;
production = uni2B2B;
layers = (
{
layerId = master01;
paths = (
{
closed = 1;
nodes = (
"785 710 LINE",
"600 1019 LINE",
"415 710 LINE",
"600 402 LINE"
);
},
{
closed = 1;
nodes = (
"507 710 LINE",
"600 879 LINE",
"694 710 LINE",
"600 541 LINE"
);
}
);
width = 1200;
},
{
layerId = "1F90C004-9C90-48FA-B407-176B3E9F1E65";
paths = (
{
closed = 1;
nodes = (
"785 710 LINE",
"600 1019 LINE",
"415 710 LINE",
"600 402 LINE"
);
},
{
closed = 1;
nodes = (
"532 710 LINE",
"600 824 LINE",
"669 710 LINE",
"600 596 LINE"
);
}
);
width = 1200;
},
{
layerId = "8E053A5E-67DA-4970-A6F5-068DBFE5AD21";
paths = (
{
closed = 1;
nodes = (
"785 710 LINE",
"600 1019 LINE",
"415 710 LINE",
"600 402 LINE"
);
},
{
closed = 1;
nodes = (
"557 710 LINE",
"600 799 LINE",
"644 710 LINE",
"600 621 LINE"
);
}
);
width = 1200;
}
);
note = uni2B2B;
unicode = 2B2B;
}
{
glyphname = whiteVerticalEllipse;
production = uni2B2F;
layers = (
{
layerId = master01;
paths = (
{
closed = 1;
nodes = (
"790 185 OFFCURVE",
"915 394 OFFCURVE",
"915 710 CURVE SMOOTH",
"915 1026 OFFCURVE",
"790 1235 OFFCURVE",
"600 1235 CURVE SMOOTH",
"410 1235 OFFCURVE",
"285 1026 OFFCURVE",
"285 710 CURVE SMOOTH",
"285 394 OFFCURVE",
"410 185 OFFCURVE",
"600 185 CURVE SMOOTH"
);
},
{
closed = 1;
nodes = (
"469 277 OFFCURVE",
"381 449 OFFCURVE",
"381 710 CURVE SMOOTH",
"381 971 OFFCURVE",
"469 1143 OFFCURVE",
"600 1143 CURVE SMOOTH",
"731 1143 OFFCURVE",
"819 971 OFFCURVE",
"819 710 CURVE SMOOTH",
"819 449 OFFCURVE",
"731 277 OFFCURVE",
"600 277 CURVE SMOOTH"
);
}
);
width = 1200;
},
{
layerId = "1F90C004-9C90-48FA-B407-176B3E9F1E65";
paths = (
{
closed = 1;
nodes = (
"790 185 OFFCURVE",
"915 394 OFFCURVE",
"915 710 CURVE SMOOTH",
"915 1026 OFFCURVE",
"790 1235 OFFCURVE",
"600 1235 CURVE SMOOTH",
"410 1235 OFFCURVE",
"285 1026 OFFCURVE",
"285 710 CURVE SMOOTH",
"285 394 OFFCURVE",
"410 185 OFFCURVE",
"600 185 CURVE SMOOTH"
);
},
{
closed = 1;
nodes = (
"501 335 OFFCURVE",
"435 484 OFFCURVE",
"435 710 CURVE SMOOTH",
"435 936 OFFCURVE",
"501 1085 OFFCURVE",
"600 1085 CURVE SMOOTH",
"699 1085 OFFCURVE",
"765 936 OFFCURVE",
"765 710 CURVE SMOOTH",
"765 484 OFFCURVE",
"699 335 OFFCURVE",
"600 335 CURVE SMOOTH"
);
}
);
width = 1200;
},
{
layerId = "8E053A5E-67DA-4970-A6F5-068DBFE5AD21";
paths = (
{
closed = 1;
nodes = (
"790 185 OFFCURVE",
"915 394 OFFCURVE",
"915 710 CURVE SMOOTH",
"915 1026 OFFCURVE",
"790 1235 OFFCURVE",
"600 1235 CURVE SMOOTH",
"410 1235 OFFCURVE",
"285 1026 OFFCURVE",
"285 710 CURVE SMOOTH",
"285 394 OFFCURVE",
"410 185 OFFCURVE",
"600 185 CURVE SMOOTH"
);
},
{
closed = 1;
nodes = (
"531 402 OFFCURVE",
"485 524 OFFCURVE",
"485 710 CURVE SMOOTH",
"485 896 OFFCURVE",
"531 1018 OFFCURVE",
"600 1018 CURVE SMOOTH",
"669 1018 OFFCURVE",
"715 896 OFFCURVE",
"715 710 CURVE SMOOTH",
"715 524 OFFCURVE",
"669 402 OFFCURVE",
"600 402 CURVE SMOOTH"
);
}
);
width = 1200;
}
);
note = uni2B2F;
unicode = 2B2F;
}
{
glyphname = whiteVerysmallSquare;
production = uni2B1E;
layers = (
{
layerId = master01;
paths = (
{
closed = 1;
nodes = (
"825 485 LINE",
"825 935 LINE",
"375 935 LINE",
"375 485 LINE"
);
},
{
closed = 1;
nodes = (
"469 845 LINE",
"731 845 LINE",
"731 575 LINE",
"469 575 LINE"
);
}
);
width = 1200;
},
{
layerId = "1F90C004-9C90-48FA-B407-176B3E9F1E65";
paths = (
{
closed = 1;
nodes = (
"825 485 LINE",
"825 935 LINE",
"375 935 LINE",
"375 485 LINE"
);
},
{
closed = 1;
nodes = (
"525 785 LINE",
"675 785 LINE",
"675 635 LINE",
"525 635 LINE"
);
}
);
width = 1200;
},
{
layerId = "8E053A5E-67DA-4970-A6F5-068DBFE5AD21";
paths = (
{
closed = 1;
nodes = (
"825 485 LINE",
"825 935 LINE",
"375 935 LINE",
"375 485 LINE"
);
},
{
closed = 1;
nodes = (
"542 768 LINE",
"658 768 LINE",
"658 652 LINE",
"542 652 LINE"
);
}
);
width = 1200;
}
);
note = uni2B1E;
unicode = 2B1E;
}
{
color = 10;
glyphname = N;
layers = (
{
anchors = (
{
name = bottom;
position = "{600, 0}";
},
{
name = top;
position = "{600, 1420}";
}
);
layerId = master01;
paths = (
{
closed = 1;
nodes = (
"969 0 LINE",
"969 88 LINE",
"927 88 LINE",
"333 1420 LINE",
"215 1420 LINE",
"215 1332 LINE",
"274 1332 LINE",
"868 0 LINE"
);
},
{
closed = 1;
nodes = (
"266 0 LINE",
"266 1420 LINE",
"172 1420 LINE",
"172 0 LINE"
);
},
{
closed = 1;
nodes = (
"1028 0 LINE",
"1028 1420 LINE",
"934 1420 LINE",
"934 0 LINE"
);
}
);
width = 1200;
},
{
anchors = (
{
name = bottom;
position = "{600, 0}";
},
{
name = top;
position = "{600, 1420}";
}
);
annotations = (
{
position = "{603.456, 1706.061}";
text = "vertical stems feel light. Maybe need a little boost? (see D)";
type = Text;
}
);
layerId = "1F90C004-9C90-48FA-B407-176B3E9F1E65";
paths = (
{
closed = 1;
nodes = (
"874 0 LINE",
"874 340 LINE",
"824 340 LINE",
"416 1420 LINE",
"284 1420 LINE",
"284 1080 LINE",
"376 1080 LINE",
"784 0 LINE"
);
},
{
closed = 1;
nodes = (
"356 0 LINE",
"356 1420 LINE",
"148 1420 LINE",
"148 0 LINE"
);
},
{
closed = 1;
nodes = (
"1052 0 LINE",
"1052 1420 LINE",
"844 1420 LINE",
"844 0 LINE"
);
}
);
width = 1200;
},
{
anchors = (
{
name = bottom;
position = "{600, 0}";
},
{
name = top;
position = "{600, 1420}";
}
);
layerId = "8E053A5E-67DA-4970-A6F5-068DBFE5AD21";
paths = (
{
closed = 1;
nodes = (
"845 0 LINE",
"845 310 LINE",
"778 310 LINE",
"528 1420 LINE",
"313 1420 LINE",
"313 1110 LINE",
"422 1110 LINE",
"672 0 LINE"
);
},
{
closed = 1;
nodes = (
"385 0 LINE",
"385 1420 LINE",
"131 1420 LINE",
"131 0 LINE"
);
},
{
closed = 1;
nodes = (
"1069 0 LINE",
"1069 1420 LINE",
"815 1420 LINE",
"815 0 LINE"
);
}
);
width = 1200;
}
);
unicode = 004E;
}
{
color = 10;
glyphname = O;
layers = (
{
anchors = (
{
name = bottom;
position = "{600, 0}";
},
{
name = center;
position = "{600, 710}";
},
{
name = ogonek;
position = "{599, 10}";
},
{
name = top;
position = "{600, 1420}";
},
{
name = topleft;
position = "{20, 1420}";
},
{
name = topright;
position = "{1180, 1420}";
}
);
layerId = master01;
paths = (
{
closed = 1;
nodes = (
"932 -20 OFFCURVE",
"1100 218 OFFCURVE",
"1100 700 CURVE SMOOTH",
"1100 1194 OFFCURVE",
"932 1440 OFFCURVE",
"600 1440 CURVE SMOOTH",
"268 1440 OFFCURVE",
"100 1194 OFFCURVE",
"100 700 CURVE SMOOTH",
"100 218 OFFCURVE",
"268 -20 OFFCURVE",
"600 -20 CURVE SMOOTH"
);
},
{
closed = 1;
nodes = (
"331 70 OFFCURVE",
"196 280 OFFCURVE",
"196 700 CURVE SMOOTH",
"196 1135 OFFCURVE",
"331 1350 OFFCURVE",
"600 1350 CURVE SMOOTH",
"869 1350 OFFCURVE",
"1004 1135 OFFCURVE",
"1004 700 CURVE SMOOTH",
"1004 280 OFFCURVE",
"869 70 OFFCURVE",
"600 70 CURVE SMOOTH"
);
}
);
width = 1200;
},
{
anchors = (
{
name = bottom;
position = "{600, 0}";
},
{
name = center;
position = "{600, 710}";
},
{
name = ogonek;
position = "{1080, 10}";
},
{
name = top;
position = "{600, 1420}";
},
{
name = topleft;
position = "{20, 1420}";
},
{
name = topright;
position = "{1180, 1420}";
}
);
guideLines = (
{
angle = 90;
position = "{1124, 1269}";
}
);
layerId = "1F90C004-9C90-48FA-B407-176B3E9F1E65";
paths = (
{
closed = 1;
nodes = (
"948 -20 OFFCURVE",
"1124 218 OFFCURVE",
"1124 700 CURVE SMOOTH",
"1124 1194 OFFCURVE",
"948 1440 OFFCURVE",
"600 1440 CURVE SMOOTH",
"252 1440 OFFCURVE",
"76 1194 OFFCURVE",
"76 700 CURVE SMOOTH",
"76 218 OFFCURVE",
"252 -20 OFFCURVE",
"600 -20 CURVE SMOOTH"
);
},
{
closed = 1;
nodes = (
"394 164 OFFCURVE",
"290 342 OFFCURVE",
"290 700 CURVE SMOOTH",
"290 1072 OFFCURVE",
"394 1256 OFFCURVE",
"600 1256 CURVE SMOOTH",
"806 1256 OFFCURVE",
"910 1072 OFFCURVE",
"910 700 CURVE SMOOTH",
"910 342 OFFCURVE",
"806 164 OFFCURVE",
"600 164 CURVE SMOOTH"
);
}
);
width = 1200;
},
{
anchors = (
{
name = bottom;
position = "{600, 0}";
},
{
name = center;
position = "{600, 710}";
},
{
name = ogonek;
position = "{1080, 10}";
},
{
name = top;
position = "{600, 1420}";
},
{
name = topleft;
position = "{20, 1420}";
},
{
name = topright;
position = "{1180, 1420}";
}
);
layerId = "8E053A5E-67DA-4970-A6F5-068DBFE5AD21";
paths = (
{
closed = 1;
nodes = (
"959 -20 OFFCURVE",
"1141 218 OFFCURVE",
"1141 700 CURVE SMOOTH",
"1141 1194 OFFCURVE",
"959 1440 OFFCURVE",
"600 1440 CURVE SMOOTH",
"241 1440 OFFCURVE",
"59 1194 OFFCURVE",
"59 700 CURVE SMOOTH",
"59 218 OFFCURVE",
"241 -20 OFFCURVE",
"600 -20 CURVE SMOOTH"
);
},
{
closed = 1;
nodes = (
"424 232 OFFCURVE",
"336 387 OFFCURVE",
"336 700 CURVE SMOOTH",
"336 1026 OFFCURVE",
"424 1188 OFFCURVE",
"600 1188 CURVE SMOOTH",
"776 1188 OFFCURVE",
"864 1026 OFFCURVE",
"864 700 CURVE SMOOTH",
"864 387 OFFCURVE",
"776 232 OFFCURVE",
"600 232 CURVE SMOOTH"
);
}
);
width = 1200;
}
);
unicode = 004F;
}
{
glyphname = bitcoin;
layers = (
{
components = (
{
name = B;
}
);
layerId = master01;
paths = (
{
closed = 1;
nodes = (
"396 -320 LINE",
"490 -320 LINE",
"490 54 LINE",
"396 54 LINE"
);
},
{
closed = 1;
nodes = (
"676 -320 LINE",
"770 -320 LINE",
"770 54 LINE",
"676 54 LINE"
);
},
{
closed = 1;
nodes = (
"490 1740 LINE",
"396 1740 LINE",
"396 1367 LINE",
"490 1367 LINE"
);
},
{
closed = 1;
nodes = (
"770 1740 LINE",
"676 1740 LINE",
"676 1367 LINE",
"770 1367 LINE"
);
}
);
width = 1200;
},
{
components = (
{
name = B;
}
);
layerId = "1F90C004-9C90-48FA-B407-176B3E9F1E65";
paths = (
{
closed = 1;
nodes = (
"374 -320 LINE",
"512 -320 LINE",
"512 94 LINE",
"374 94 LINE"
);
},
{
closed = 1;
nodes = (
"654 -320 LINE",
"792 -320 LINE",
"792 94 LINE",
"654 94 LINE"
);
},
{
closed = 1;
nodes = (
"512 1740 LINE",
"374 1740 LINE",
"374 1327 LINE",
"512 1327 LINE"
);
},
{
closed = 1;
nodes = (
"792 1740 LINE",
"654 1740 LINE",
"654 1327 LINE",
"792 1327 LINE"
);
}
);
width = 1200;
},
{
components = (
{
name = B;
}
);
layerId = "8E053A5E-67DA-4970-A6F5-068DBFE5AD21";
paths = (
{
closed = 1;
nodes = (
"284 -320 LINE",
"532 -320 LINE",
"532 94 LINE",
"284 94 LINE"
);
},
{
closed = 1;
nodes = (
"634 -320 LINE",
"882 -320 LINE",
"882 94 LINE",
"634 94 LINE"
);
},
{
closed = 1;
nodes = (
"532 1740 LINE",
"284 1740 LINE",
"284 1327 LINE",
"532 1327 LINE"
);
},
{
closed = 1;
nodes = (
"882 1740 LINE",
"634 1740 LINE",
"634 1327 LINE",
"882 1327 LINE"
);
}
);
width = 1200;
}
);
unicode = 20BF;
}
{
glyphname = cedi;
production = uni20B5;
layers = (
{
components = (
{
name = C;
}
);
layerId = master01;
paths = (
{
closed = 1;
nodes = (
"750 -320 LINE",
"750 1740 LINE",
"656 1740 LINE",
"656 -320 LINE"
);
}
);
width = 1200;
},
{
components = (
{
name = C;
}
);
layerId = "1F90C004-9C90-48FA-B407-176B3E9F1E65";
paths = (
{
closed = 1;
nodes = (
"772 -320 LINE",
"772 1740 LINE",
"634 1740 LINE",
"634 -320 LINE"
);
}
);
width = 1200;
},
{
components = (
{
alignment = -1;
name = C;
}
);
layerId = "8E053A5E-67DA-4970-A6F5-068DBFE5AD21";
paths = (
{
closed = 1;
nodes = (
"830 -320 LINE",
"830 1740 LINE",
"576 1740 LINE",
"576 -320 LINE"
);
}
);
width = 1200;
}
);
unicode = 20B5;
}
{
glyphname = colonsign;
production = colonmonetary;
layers = (
{
components = (
{
name = C;
}
);
layerId = master01;
paths = (
{
closed = 1;
nodes = (
"1029 1692 LINE",
"933 1716 LINE",
"547 -306 LINE",
"633 -330 LINE"
);
},
{
closed = 1;
nodes = (
"739 1692 LINE",
"643 1716 LINE",
"257 -306 LINE",
"343 -330 LINE"
);
}
);
width = 1200;
},
{
components = (
{
name = C;
}
);
layerId = "1F90C004-9C90-48FA-B407-176B3E9F1E65";
paths = (
{
closed = 1;
nodes = (
"1029 1692 LINE",
"893 1716 LINE",
"537 -306 LINE",
"673 -330 LINE"
);
},
{
closed = 1;
nodes = (
"749 1692 LINE",
"613 1716 LINE",
"257 -306 LINE",
"393 -330 LINE"
);
}
);
width = 1200;
},
{
components = (
{
alignment = -1;
name = C;
}
);
layerId = "8E053A5E-67DA-4970-A6F5-068DBFE5AD21";
paths = (
{
closed = 1;
nodes = (
"1096 1692 LINE",
"893 1716 LINE",
"537 -306 LINE",
"740 -330 LINE"
);
},
{
closed = 1;
nodes = (
"799 1692 LINE",
"596 1716 LINE",
"240 -306 LINE",
"443 -330 LINE"
);
}
);
width = 1200;
}
);
unicode = 20A1;
}
{
glyphname = dong;
layers = (
{
components = (
{
name = dcroat;
}
);
layerId = master01;
paths = (
{
closed = 1;
nodes = (
"1032 -282 LINE",
"1032 -192 LINE",
"166 -192 LINE",
"166 -282 LINE"
);
}
);
width = 1200;
},
{
components = (
{
name = dcroat;
}
);
layerId = "1F90C004-9C90-48FA-B407-176B3E9F1E65";
paths = (
{
closed = 1;
nodes = (
"1033 -330 LINE",
"1033 -154 LINE",
"167 -154 LINE",
"167 -330 LINE"
);
}
);
width = 1200;
},
{
components = (
{
alignment = -1;
name = dcroat;
}
);
layerId = "8E053A5E-67DA-4970-A6F5-068DBFE5AD21";
paths = (
{
closed = 1;
nodes = (
"1049 -370 LINE",
"1049 -121 LINE",
"149 -121 LINE",
"149 -370 LINE"
);
}
);
width = 1200;
}
);
unicode = 20AB;
}
{
glyphname = eurocurrency;
production = uni20A0;
layers = (
{
layerId = master01;
paths = (
{
closed = 1;
nodes = (
"578 584 LINE",
"578 676 LINE",
"532 676 LINE SMOOTH",
"309 676 OFFCURVE",
"182 791 OFFCURVE",
"182 1011 CURVE SMOOTH",
"182 1224 OFFCURVE",
"298 1347 OFFCURVE",
"502 1347 CURVE SMOOTH",
"603 1347 OFFCURVE",
"693 1303 OFFCURVE",
"746 1228 CURVE",
"813 1299 LINE",
"737 1387 OFFCURVE",
"654 1439 OFFCURVE",
"500 1439 CURVE SMOOTH",
"237 1439 OFFCURVE",
"86 1283 OFFCURVE",
"86 1011 CURVE SMOOTH",
"86 740 OFFCURVE",
"239 584 OFFCURVE",
"508 584 CURVE SMOOTH"
);
},
{
closed = 1;
nodes = (
"1055 0 LINE",
"1055 90 LINE",
"519 90 LINE",
"519 0 LINE"
);
},
{
closed = 1;
nodes = (
"613 0 LINE",
"613 880 LINE",
"519 880 LINE",
"519 0 LINE"
);
},
{
closed = 1;
nodes = (
"975 396 LINE",
"975 486 LINE",
"519 486 LINE",
"519 396 LINE"
);
},
{
closed = 1;
nodes = (
"1055 790 LINE",
"1055 880 LINE",
"519 880 LINE",
"519 790 LINE"
);
}
);
width = 1200;
},
{
layerId = "1F90C004-9C90-48FA-B407-176B3E9F1E65";
paths = (
{
closed = 1;
nodes = (
"628 535 LINE",
"628 725 LINE",
"532 725 LINE SMOOTH",
"370 725 OFFCURVE",
"277 819 OFFCURVE",
"277 981 CURVE SMOOTH",
"277 1151 OFFCURVE",
"359 1249 OFFCURVE",
"502 1249 CURVE SMOOTH",
"576 1249 OFFCURVE",
"641 1215 OFFCURVE",
"680 1156 CURVE",
"813 1299 LINE",
"737 1387 OFFCURVE",
"654 1439 OFFCURVE",
"500 1439 CURVE SMOOTH",
"222 1439 OFFCURVE",
"62 1272 OFFCURVE",
"62 981 CURVE SMOOTH",
"62 698 OFFCURVE",
"224 535 OFFCURVE",
"508 535 CURVE SMOOTH"
);
},
{
closed = 1;
nodes = (
"1079 0 LINE",
"1079 186 LINE",
"519 186 LINE",
"519 0 LINE"
);
},
{
closed = 1;
nodes = (
"704 0 LINE",
"704 880 LINE",
"519 880 LINE",
"519 0 LINE"
);
},
{
closed = 1;
nodes = (
"979 348 LINE",
"979 534 LINE",
"519 534 LINE",
"519 348 LINE"
);
},
{
closed = 1;
nodes = (
"1079 694 LINE",
"1079 880 LINE",
"519 880 LINE",
"519 694 LINE"
);
}
);
width = 1200;
},
{
layerId = "8E053A5E-67DA-4970-A6F5-068DBFE5AD21";
paths = (
{
closed = 1;
nodes = (
"628 510 LINE",
"628 767 LINE",
"532 767 LINE SMOOTH",
"411 767 OFFCURVE",
"340 841 OFFCURVE",
"340 969 CURVE SMOOTH",
"340 1104 OFFCURVE",
"411 1182 OFFCURVE",
"535 1182 CURVE SMOOTH",
"616 1182 OFFCURVE",
"688 1154 OFFCURVE",
"730 1106 CURVE",
"863 1316 LINE",
"781 1393 OFFCURVE",
"692 1439 OFFCURVE",
"525 1439 CURVE SMOOTH",
"220 1439 OFFCURVE",
"45 1265 OFFCURVE",
"45 960 CURVE SMOOTH",
"45 675 OFFCURVE",
"213 510 OFFCURVE",
"508 510 CURVE SMOOTH"
);
},
{
closed = 1;
nodes = (
"1096 0 LINE",
"1096 251 LINE",
"486 251 LINE",
"486 0 LINE"
);
},
{
closed = 1;
nodes = (
"737 0 LINE",
"737 880 LINE",
"486 880 LINE",
"486 0 LINE"
);
},
{
closed = 1;
nodes = (
"996 348 LINE",
"996 534 LINE",
"486 534 LINE",
"486 348 LINE"
);
},
{
closed = 1;
nodes = (
"1096 629 LINE",
"1096 880 LINE",
"486 880 LINE",
"486 629 LINE"
);
}
);
width = 1200;
}
);
unicode = 20A0;
}
{
glyphname = franc;
layers = (
{
components = (
{
name = F;
}
);
layerId = master01;
paths = (
{
closed = 1;
nodes = (
"678 255 LINE",
"678 345 LINE",
"54 345 LINE",
"54 255 LINE"
);
}
);
width = 1200;
},
{
components = (
{
name = F;
}
);
layerId = "1F90C004-9C90-48FA-B407-176B3E9F1E65";
paths = (
{
closed = 1;
nodes = (
"678 231 LINE",
"678 369 LINE",
"30 369 LINE",
"30 231 LINE"
);
}
);
width = 1200;
},
{
components = (
{
alignment = -1;
name = F;
}
);
layerId = "8E053A5E-67DA-4970-A6F5-068DBFE5AD21";
paths = (
{
closed = 1;
nodes = (
"695 199 LINE",
"695 386 LINE",
"13 386 LINE",
"13 199 LINE"
);
}
);
width = 1200;
}
);
unicode = 20A3;
}
{
glyphname = guarani;
production = uni20B2;
layers = (
{
components = (
{
name = G;
}
);
layerId = master01;
paths = (
{
closed = 1;
nodes = (
"680 -320 LINE",
"680 3 LINE",
"680 33 LINE",
"680 591 LINE",
"680 632 LINE",
"680 1740 LINE",
"586 1740 LINE",
"586 -320 LINE"
);
}
);
width = 1200;
},
{
components = (
{
name = G;
}
);
layerId = "1F90C004-9C90-48FA-B407-176B3E9F1E65";
paths = (
{
closed = 1;
nodes = (
"722 -320 LINE",
"722 15 LINE",
"722 93 LINE",
"722 603 LINE",
"722 665 LINE",
"722 1740 LINE",
"584 1740 LINE",
"584 -320 LINE"
);
}
);
width = 1200;
},
{
components = (
{
alignment = -1;
name = G;
}
);
layerId = "8E053A5E-67DA-4970-A6F5-068DBFE5AD21";
paths = (
{
closed = 1;
nodes = (
"771 -320 LINE",
"771 54 LINE",
"721 121 LINE",
"721 578 LINE",
"771 648 LINE",
"771 1740 LINE",
"518 1740 LINE",
"518 -320 LINE"
);
}
);
width = 1200;
}
);
unicode = 20B2;
}
{
glyphname = hryvnia;
production = uni20B4;
layers = (
{
layerId = master01;
paths = (
{
closed = 1;
nodes = (
"884 871 LINE",
"884 909 LINE",
"965 977 OFFCURVE",
"1009 1059 OFFCURVE",
"1009 1150 CURVE SMOOTH",
"1009 1334 OFFCURVE",
"880 1440 OFFCURVE",
"654 1440 CURVE SMOOTH",
"471 1440 OFFCURVE",
"292 1375 OFFCURVE",
"163 1261 CURVE",
"222 1200 LINE",
"359 1295 OFFCURVE",
"509 1350 OFFCURVE",
"633 1350 CURVE SMOOTH",
"810 1350 OFFCURVE",
"913 1277 OFFCURVE",
"913 1150 CURVE SMOOTH",
"913 1024 OFFCURVE",
"839 905 OFFCURVE",
"693 820 CURVE"
);
},
{
closed = 1;
nodes = (
"786 -20 OFFCURVE",
"917 3 OFFCURVE",
"1047 58 CURVE",
"1034 142 LINE",
"873 91 OFFCURVE",
"748 70 OFFCURVE",
"613 70 CURVE SMOOTH",
"391 70 OFFCURVE",
"263 142 OFFCURVE",
"263 267 CURVE SMOOTH",
"263 361 OFFCURVE",
"332 449 OFFCURVE",
"452 510 CURVE",
"331 555 LINE",
"331 482 LINE",
"227 434 OFFCURVE",
"167 348 OFFCURVE",
"167 247 CURVE SMOOTH",
"167 77 OFFCURVE",
"328 -20 OFFCURVE",
"609 -20 CURVE SMOOTH"
);
},
{
closed = 1;
nodes = (
"1106 490 LINE",
"1106 580 LINE",
"94 580 LINE",
"94 490 LINE"
);
},
{
closed = 1;
nodes = (
"453 515 LINE",
"802 821 LINE",
"721 821 LINE",
"372 515 LINE"
);
},
{
closed = 1;
nodes = (
"1106 810 LINE",
"1106 900 LINE",
"94 900 LINE",
"94 810 LINE"
);
}
);
width = 1200;
},
{
layerId = "1F90C004-9C90-48FA-B407-176B3E9F1E65";
paths = (
{
closed = 1;
nodes = (
"884 901 LINE",
"884 949 LINE",
"981 1012 OFFCURVE",
"1033 1086 OFFCURVE",
"1033 1170 CURVE SMOOTH",
"1033 1342 OFFCURVE",
"891 1440 OFFCURVE",
"644 1440 CURVE SMOOTH",
"456 1440 OFFCURVE",
"272 1375 OFFCURVE",
"139 1261 CURVE",
"279 1119 LINE",
"391 1206 OFFCURVE",
"516 1256 OFFCURVE",
"623 1256 CURVE SMOOTH",
"747 1256 OFFCURVE",
"819 1196 OFFCURVE",
"819 1090 CURVE SMOOTH",
"819 995 OFFCURVE",
"777 912 OFFCURVE",
"693 840 CURVE"
);
},
{
closed = 1;
nodes = (
"777 -20 OFFCURVE",
"946 8 OFFCURVE",
"1071 58 CURVE",
"1045 260 LINE",
"896 199 OFFCURVE",
"739 164 OFFCURVE",
"613 164 CURVE SMOOTH",
"450 164 OFFCURVE",
"357 225 OFFCURVE",
"357 332 CURVE SMOOTH",
"357 386 OFFCURVE",
"388 435 OFFCURVE",
"452 480 CURVE",
"301 525 LINE",
"301 441 LINE",
"195 396 OFFCURVE",
"143 319 OFFCURVE",
"143 246 CURVE SMOOTH",
"143 77 OFFCURVE",
"313 -20 OFFCURVE",
"609 -20 CURVE SMOOTH"
);
},
{
closed = 1;
nodes = (
"1130 461 LINE",
"1130 609 LINE",
"70 609 LINE",
"70 461 LINE"
);
},
{
closed = 1;
nodes = (
"448 515 LINE",
"833 845 LINE",
"707 845 LINE",
"322 515 LINE"
);
},
{
closed = 1;
nodes = (
"1130 781 LINE",
"1130 929 LINE",
"70 929 LINE",
"70 781 LINE"
);
}
);
width = 1200;
},
{
layerId = "8E053A5E-67DA-4970-A6F5-068DBFE5AD21";
paths = (
{
closed = 1;
nodes = (
"934 934 LINE",
"934 991 LINE",
"1009 1051 OFFCURVE",
"1050 1123 OFFCURVE",
"1050 1203 CURVE SMOOTH",
"1050 1355 OFFCURVE",
"902 1440 OFFCURVE",
"644 1440 CURVE SMOOTH",
"450 1440 OFFCURVE",
"260 1375 OFFCURVE",
"122 1261 CURVE",
"262 1052 LINE",
"388 1136 OFFCURVE",
"528 1184 OFFCURVE",
"648 1184 CURVE SMOOTH",
"729 1184 OFFCURVE",
"772 1154 OFFCURVE",
"772 1097 CURVE SMOOTH",
"772 1031 OFFCURVE",
"730 973 OFFCURVE",
"646 923 CURVE"
);
},
{
closed = 1;
nodes = (
"783 -20 OFFCURVE",
"959 8 OFFCURVE",
"1088 58 CURVE",
"1062 327 LINE",
"907 269 OFFCURVE",
"744 236 OFFCURVE",
"613 236 CURVE SMOOTH",
"480 236 OFFCURVE",
"404 271 OFFCURVE",
"404 332 CURVE SMOOTH",
"404 374 OFFCURVE",
"435 412 OFFCURVE",
"499 447 CURVE",
"251 492 LINE",
"251 399 LINE",
"168 356 OFFCURVE",
"126 282 OFFCURVE",
"126 213 CURVE SMOOTH",
"126 65 OFFCURVE",
"302 -20 OFFCURVE",
"609 -20 CURVE SMOOTH"
);
},
{
closed = 1;
nodes = (
"1147 428 LINE",
"1147 642 LINE",
"53 642 LINE",
"53 428 LINE"
);
},
{
closed = 1;
nodes = (
"515 515 LINE",
"866 878 LINE",
"657 878 LINE",
"305 515 LINE"
);
},
{
closed = 1;
nodes = (
"1147 748 LINE",
"1147 962 LINE",
"53 962 LINE",
"53 748 LINE"
);
}
);
width = 1200;
}
);
unicode = 20B4;
}
{
glyphname = kip;
production = uni20AD;
layers = (
{
components = (
{
name = K;
}
);
layerId = master01;
paths = (
{
closed = 1;
nodes = (
"1200 625 LINE",
"1200 715 LINE",
"760 715 LINE",
"760 625 LINE"
);
},
{
closed = 1;
nodes = (
"247 625 LINE",
"247 715 LINE",
"0 715 LINE",
"0 625 LINE"
);
}
);
width = 1200;
},
{
components = (
{
name = K;
}
);
layerId = "1F90C004-9C90-48FA-B407-176B3E9F1E65";
paths = (
{
closed = 1;
nodes = (
"1200 601 LINE",
"1200 739 LINE",
"700 739 LINE",
"700 601 LINE"
);
},
{
closed = 1;
nodes = (
"297 601 LINE",
"297 739 LINE",
"0 739 LINE",
"0 601 LINE"
);
}
);
width = 1200;
},
{
components = (
{
alignment = -1;
name = K;
}
);
layerId = "8E053A5E-67DA-4970-A6F5-068DBFE5AD21";
paths = (
{
closed = 1;
nodes = (
"1200 551 LINE",
"1200 756 LINE",
"700 756 LINE",
"700 551 LINE"
);
},
{
closed = 1;
nodes = (
"297 551 LINE",
"297 756 LINE",
"0 756 LINE",
"0 551 LINE"
);
}
);
width = 1200;
}
);
unicode = 20AD;
}
{
glyphname = lari;
production = uni20BE;
layers = (
{
layerId = master01;
paths = (
{
closed = 1;
nodes = (
"760 90 LINE",
"383 90 OFFCURVE",
"196 302 OFFCURVE",
"196 730 CURVE SMOOTH",
"196 1125 OFFCURVE",
"348 1350 OFFCURVE",
"615 1350 CURVE SMOOTH",
"863 1350 OFFCURVE",
"1004 1179 OFFCURVE",
"1004 880 CURVE SMOOTH",
"1004 768 LINE",
"1100 768 LINE",
"1100 880 LINE SMOOTH",
"1100 1236 OFFCURVE",
"924 1440 OFFCURVE",
"615 1440 CURVE SMOOTH",
"288 1440 OFFCURVE",
"100 1182 OFFCURVE",
"100 730 CURVE SMOOTH",
"100 366 OFFCURVE",
"203 189 OFFCURVE",
"380 101 CURVE",
"380 47 LINE"
);
},
{
closed = 1;
nodes = (
"1082 0 LINE",
"1082 90 LINE",
"110 90 LINE",
"110 0 LINE"
);
},
{
closed = 1;
nodes = (
"533 768 LINE",
"533 1568 LINE",
"439 1568 LINE",
"439 768 LINE"
);
},
{
closed = 1;
nodes = (
"767 768 LINE",
"767 1568 LINE",
"673 1568 LINE",
"673 768 LINE"
);
}
);
width = 1200;
},
{
layerId = "1F90C004-9C90-48FA-B407-176B3E9F1E65";
paths = (
{
closed = 1;
nodes = (
"760 186 LINE",
"468 186 OFFCURVE",
"276 410 OFFCURVE",
"276 750 CURVE SMOOTH",
"276 1085 OFFCURVE",
"399 1276 OFFCURVE",
"615 1276 CURVE SMOOTH",
"812 1276 OFFCURVE",
"924 1132 OFFCURVE",
"924 880 CURVE SMOOTH",
"924 708 LINE",
"1124 708 LINE",
"1124 880 LINE SMOOTH",
"1124 1236 OFFCURVE",
"939 1440 OFFCURVE",
"615 1440 CURVE SMOOTH",
"273 1440 OFFCURVE",
"76 1189 OFFCURVE",
"76 750 CURVE SMOOTH",
"76 437 OFFCURVE",
"197 253 OFFCURVE",
"380 212 CURVE",
"380 143 LINE"
);
},
{
closed = 1;
nodes = (
"1106 0 LINE",
"1106 186 LINE",
"86 186 LINE",
"86 0 LINE"
);
},
{
closed = 1;
nodes = (
"542 708 LINE",
"542 1568 LINE",
"434 1568 LINE",
"434 708 LINE"
);
},
{
closed = 1;
nodes = (
"772 708 LINE",
"772 1568 LINE",
"664 1568 LINE",
"664 708 LINE"
);
}
);
width = 1200;
},
{
layerId = "8E053A5E-67DA-4970-A6F5-068DBFE5AD21";
paths = (
{
closed = 1;
nodes = (
"760 251 LINE",
"503 251 OFFCURVE",
"334 449 OFFCURVE",
"334 750 CURVE SMOOTH",
"334 1028 OFFCURVE",
"437 1188 OFFCURVE",
"615 1188 CURVE SMOOTH",
"782 1188 OFFCURVE",
"877 1075 OFFCURVE",
"877 880 CURVE SMOOTH",
"877 708 LINE",
"1141 708 LINE",
"1141 880 LINE SMOOTH",
"1141 1236 OFFCURVE",
"950 1440 OFFCURVE",
"615 1440 CURVE SMOOTH",
"262 1440 OFFCURVE",
"59 1189 OFFCURVE",
"59 750 CURVE SMOOTH",
"59 485 OFFCURVE",
"167 329 OFFCURVE",
"330 294 CURVE",
"330 208 LINE"
);
},
{
closed = 1;
nodes = (
"1123 0 LINE",
"1123 251 LINE",
"69 251 LINE",
"69 0 LINE"
);
},
{
closed = 1;
nodes = (
"579 708 LINE",
"579 1568 LINE",
"429 1568 LINE",
"429 708 LINE"
);
},
{
closed = 1;
nodes = (
"796 708 LINE",
"796 1568 LINE",
"647 1568 LINE",
"647 708 LINE"
);
}
);
width = 1200;
}
);
unicode = 20BE;
}
{
glyphname = lira;
layers = (
{
layerId = master01;
paths = (
{
closed = 1;
nodes = (
"239 0 LINE",
"239 90 LINE",
"338 275 OFFCURVE",
"386 441 OFFCURVE",
"386 627 CURVE SMOOTH",
"386 1035 LINE SMOOTH",
"386 1239 OFFCURVE",
"523 1350 OFFCURVE",
"722 1350 CURVE SMOOTH",
"845 1350 OFFCURVE",
"955 1282 OFFCURVE",
"1025 1164 CURVE",
"1103 1221 LINE",
"1030 1360 OFFCURVE",
"894 1440 OFFCURVE",
"730 1440 CURVE SMOOTH",
"455 1440 OFFCURVE",
"292 1294 OFFCURVE",
"292 1036 CURVE SMOOTH",
"292 627 LINE SMOOTH",
"292 441 OFFCURVE",
"244 278 OFFCURVE",
"144 90 CURVE",
"144 0 LINE"
);
},
{
closed = 1;
nodes = (
"1084 0 LINE",
"1084 90 LINE",
"204 90 LINE",
"204 0 LINE"
);
},
{
closed = 1;
nodes = (
"885 495 LINE",
"885 585 LINE",
"121 585 LINE",
"121 495 LINE"
);
},
{
closed = 1;
nodes = (
"885 755 LINE",
"885 845 LINE",
"121 845 LINE",
"121 755 LINE"
);
}
);
width = 1200;
},
{
layerId = "1F90C004-9C90-48FA-B407-176B3E9F1E65";
paths = (
{
closed = 1;
nodes = (
"444 0 LINE",
"344 186 LINE",
"453 338 OFFCURVE",
"506 474 OFFCURVE",
"506 627 CURVE SMOOTH",
"506 1035 LINE SMOOTH",
"506 1173 OFFCURVE",
"586 1248 OFFCURVE",
"702 1248 CURVE SMOOTH",
"802 1248 OFFCURVE",
"891 1192 OFFCURVE",
"947 1094 CURVE",
"1115 1221 LINE",
"1049 1360 OFFCURVE",
"902 1440 OFFCURVE",
"710 1440 CURVE SMOOTH",
"448 1440 OFFCURVE",
"292 1294 OFFCURVE",
"292 1036 CURVE SMOOTH",
"292 627 LINE SMOOTH",
"292 474 OFFCURVE",
"240 340 OFFCURVE",
"132 186 CURVE",
"132 0 LINE"
);
},
{
closed = 1;
nodes = (
"1096 0 LINE",
"1096 186 LINE",
"192 186 LINE",
"192 0 LINE"
);
},
{
closed = 1;
nodes = (
"897 471 LINE",
"897 609 LINE",
"109 609 LINE",
"109 471 LINE"
);
},
{
closed = 1;
nodes = (
"897 731 LINE",
"897 869 LINE",
"109 869 LINE",
"109 731 LINE"
);
}
);
width = 1200;
},
{
layerId = "8E053A5E-67DA-4970-A6F5-068DBFE5AD21";
paths = (
{
closed = 1;
nodes = (
"444 0 LINE",
"394 243 LINE",
"503 376 OFFCURVE",
"556 494 OFFCURVE",
"556 627 CURVE SMOOTH",
"556 973 LINE SMOOTH",
"556 1111 OFFCURVE",
"636 1187 OFFCURVE",
"752 1187 CURVE SMOOTH",
"825 1187 OFFCURVE",
"889 1140 OFFCURVE",
"930 1057 CURVE",
"1132 1213 LINE",
"1068 1357 OFFCURVE",
"928 1440 OFFCURVE",
"743 1440 CURVE SMOOTH",
"450 1440 OFFCURVE",
"275 1294 OFFCURVE",
"275 1036 CURVE SMOOTH",
"275 627 LINE SMOOTH",
"275 494 OFFCURVE",
"223 377 OFFCURVE",
"115 243 CURVE",
"115 0 LINE"
);
},
{
closed = 1;
nodes = (
"1113 0 LINE",
"1113 243 LINE",
"192 243 LINE",
"192 0 LINE"
);
},
{
closed = 1;
nodes = (
"897 438 LINE",
"897 626 LINE",
"92 626 LINE",
"92 438 LINE"
);
},
{
closed = 1;
nodes = (
"897 714 LINE",
"897 902 LINE",
"92 902 LINE",
"92 714 LINE"
);
}
);
width = 1200;
}
);
unicode = 20A4;
}
{
glyphname = liraTurkish;
production = uni20BA;
layers = (
{
layerId = master01;
paths = (
{
closed = 1;
nodes = (
"848 -20 OFFCURVE",
"963 18 OFFCURVE",
"1102 107 CURVE",
"1062 184 LINE",
"938 104 OFFCURVE",
"836 70 OFFCURVE",
"718 70 CURVE SMOOTH",
"542 70 OFFCURVE",
"467 151 OFFCURVE",
"467 340 CURVE SMOOTH",
"467 1420 LINE",
"373 1420 LINE",
"373 330 LINE SMOOTH",
"373 84 OFFCURVE",
"476 -20 OFFCURVE",
"718 -20 CURVE SMOOTH"
);
},
{
closed = 1;
nodes = (
"998 639 LINE",
"998 733 LINE",
"144 587 LINE",
"144 493 LINE"
);
},
{
closed = 1;
nodes = (
"998 969 LINE",
"998 1063 LINE",
"144 917 LINE",
"144 823 LINE"
);
}
);
width = 1200;
},
{
layerId = "1F90C004-9C90-48FA-B407-176B3E9F1E65";
paths = (
{
closed = 1;
nodes = (
"849 -20 OFFCURVE",
"979 19 OFFCURVE",
"1124 112 CURVE",
"1040 278 LINE",
"929 206 OFFCURVE",
"829 170 OFFCURVE",
"738 170 CURVE SMOOTH",
"561 170 OFFCURVE",
"528 242 OFFCURVE",
"528 410 CURVE SMOOTH",
"528 1420 LINE",
"320 1420 LINE",
"320 400 LINE SMOOTH",
"320 106 OFFCURVE",
"428 -20 OFFCURVE",
"688 -20 CURVE SMOOTH"
);
},
{
closed = 1;
nodes = (
"998 601 LINE",
"998 759 LINE",
"120 609 LINE",
"120 451 LINE"
);
},
{
closed = 1;
nodes = (
"998 931 LINE",
"998 1089 LINE",
"120 939 LINE",
"120 781 LINE"
);
}
);
width = 1200;
},
{
layerId = "8E053A5E-67DA-4970-A6F5-068DBFE5AD21";
paths = (
{
closed = 1;
nodes = (
"855 -20 OFFCURVE",
"990 19 OFFCURVE",
"1141 112 CURVE",
"1057 341 LINE",
"940 269 OFFCURVE",
"834 233 OFFCURVE",
"738 233 CURVE SMOOTH",
"593 233 OFFCURVE",
"567 305 OFFCURVE",
"567 473 CURVE SMOOTH",
"567 1420 LINE",
"303 1420 LINE",
"303 400 LINE SMOOTH",
"303 106 OFFCURVE",
"416 -20 OFFCURVE",
"688 -20 CURVE SMOOTH"
);
},
{
closed = 1;
nodes = (
"998 553 LINE",
"998 776 LINE",
"103 626 LINE",
"103 403 LINE"
);
},
{
closed = 1;
nodes = (
"998 933 LINE",
"998 1156 LINE",
"103 1006 LINE",
"103 783 LINE"
);
}
);
width = 1200;
}
);
unicode = 20BA;
}
{
glyphname = manat;
production = uni20BC;
layers = (
{
layerId = master01;
paths = (
{
closed = 1;
nodes = (
"196 0 LINE",
"196 600 LINE SMOOTH",
"196 870 OFFCURVE",
"331 1004 OFFCURVE",
"600 1004 CURVE SMOOTH",
"869 1004 OFFCURVE",
"1004 870 OFFCURVE",
"1004 600 CURVE SMOOTH",
"1004 0 LINE",
"1100 0 LINE",
"1100 600 LINE SMOOTH",
"1100 930 OFFCURVE",
"932 1094 OFFCURVE",
"600 1094 CURVE SMOOTH",
"268 1094 OFFCURVE",
"100 930 OFFCURVE",
"100 600 CURVE SMOOTH",
"100 0 LINE"
);
},
{
closed = 1;
nodes = (
"647 0 LINE",
"647 1420 LINE",
"553 1420 LINE",
"553 0 LINE"
);
}
);
width = 1200;
},
{
layerId = "1F90C004-9C90-48FA-B407-176B3E9F1E65";
paths = (
{
closed = 1;
nodes = (
"284 0 LINE",
"284 540 LINE SMOOTH",
"284 818 OFFCURVE",
"390 956 OFFCURVE",
"600 956 CURVE SMOOTH",
"810 956 OFFCURVE",
"916 818 OFFCURVE",
"916 540 CURVE SMOOTH",
"916 0 LINE",
"1124 0 LINE",
"1124 540 LINE SMOOTH",
"1124 941 OFFCURVE",
"948 1140 OFFCURVE",
"600 1140 CURVE SMOOTH",
"252 1140 OFFCURVE",
"76 941 OFFCURVE",
"76 540 CURVE SMOOTH",
"76 0 LINE"
);
},
{
closed = 1;
nodes = (
"669 0 LINE",
"669 1420 LINE",
"531 1420 LINE",
"531 0 LINE"
);
}
);
width = 1200;
},
{
layerId = "8E053A5E-67DA-4970-A6F5-068DBFE5AD21";
paths = (
{
closed = 1;
nodes = (
"324 0 LINE",
"324 540 LINE SMOOTH",
"324 784 OFFCURVE",
"417 905 OFFCURVE",
"600 905 CURVE SMOOTH",
"783 905 OFFCURVE",
"876 784 OFFCURVE",
"876 540 CURVE SMOOTH",
"876 0 LINE",
"1141 0 LINE",
"1141 540 LINE SMOOTH",
"1141 952 OFFCURVE",
"959 1157 OFFCURVE",
"600 1157 CURVE SMOOTH",
"241 1157 OFFCURVE",
"59 952 OFFCURVE",
"59 540 CURVE SMOOTH",
"59 0 LINE"
);
},
{
closed = 1;
nodes = (
"702 0 LINE",
"702 1420 LINE",
"498 1420 LINE",
"498 0 LINE"
);
}
);
width = 1200;
}
);
unicode = 20BC;
}
{
glyphname = naira;
production = uni20A6;
layers = (
{
components = (
{
name = N;
}
);
layerId = master01;
paths = (
{
closed = 1;
nodes = (
"1176 665 LINE",
"1176 755 LINE",
"24 755 LINE",
"24 665 LINE"
);
}
);
width = 1200;
},
{
components = (
{
name = N;
}
);
layerId = "1F90C004-9C90-48FA-B407-176B3E9F1E65";
paths = (
{
closed = 1;
nodes = (
"1200 641 LINE",
"1200 779 LINE",
"0 779 LINE",
"0 641 LINE"
);
}
);
width = 1200;
},
{
components = (
{
alignment = -1;
name = N;
}
);
layerId = "8E053A5E-67DA-4970-A6F5-068DBFE5AD21";
paths = (
{
closed = 1;
nodes = (
"1200 599 LINE",
"1200 821 LINE",
"0 821 LINE",
"0 599 LINE"
);
}
);
width = 1200;
}
);
unicode = 20A6;
}
{
glyphname = peseta;
layers = (
{
components = (
{
name = P;
transform = "{1, 0, 0, 1, -20, 0}";
}
);
layerId = master01;
paths = (
{
closed = 1;
nodes = (
"1176 875 LINE",
"1176 965 LINE",
"24 965 LINE",
"24 875 LINE"
);
}
);
width = 1200;
},
{
components = (
{
name = P;
transform = "{1, 0, 0, 1, -20, 0}";
}
);
layerId = "1F90C004-9C90-48FA-B407-176B3E9F1E65";
paths = (
{
closed = 1;
nodes = (
"1200 851 LINE",
"1200 989 LINE",
"0 989 LINE",
"0 851 LINE"
);
}
);
width = 1200;
},
{
components = (
{
alignment = -1;
name = P;
transform = "{1, 0, 0, 1, -20, 0}";
}
);
layerId = "8E053A5E-67DA-4970-A6F5-068DBFE5AD21";
paths = (
{
closed = 1;
nodes = (
"1200 809 LINE",
"1200 1031 LINE",
"0 1031 LINE",
"0 809 LINE"
);
}
);
width = 1200;
}
);
unicode = 20A7;
}
{
glyphname = peso;
production = uni20B1;
layers = (
{
components = (
{
name = P;
transform = "{1, 0, 0, 1, -20, 0}";
}
);
layerId = master01;
paths = (
{
closed = 1;
nodes = (
"1176 1006 LINE",
"1176 1096 LINE",
"24 1096 LINE",
"24 1006 LINE"
);
},
{
closed = 1;
nodes = (
"1176 759 LINE",
"1176 849 LINE",
"24 849 LINE",
"24 759 LINE"
);
}
);
width = 1200;
},
{
components = (
{
name = P;
transform = "{1, 0, 0, 1, -20, 0}";
}
);
layerId = "1F90C004-9C90-48FA-B407-176B3E9F1E65";
paths = (
{
closed = 1;
nodes = (
"1200 981 LINE",
"1200 1119 LINE",
"0 1119 LINE",
"0 981 LINE"
);
},
{
closed = 1;
nodes = (
"1200 736 LINE",
"1200 874 LINE",
"0 874 LINE",
"0 736 LINE"
);
}
);
width = 1200;
},
{
components = (
{
alignment = -1;
name = P;
transform = "{1, 0, 0, 1, -20, 0}";
}
);
layerId = "8E053A5E-67DA-4970-A6F5-068DBFE5AD21";
paths = (
{
closed = 1;
nodes = (
"1200 956 LINE",
"1200 1119 LINE",
"0 1119 LINE",
"0 956 LINE"
);
},
{
closed = 1;
nodes = (
"1200 719 LINE",
"1200 882 LINE",
"0 882 LINE",
"0 719 LINE"
);
}
);
width = 1200;
}
);
unicode = 20B1;
}
{
glyphname = ruble;
production = uni20BD;
layers = (
{
components = (
{
name = P;
}
);
layerId = master01;
paths = (
{
closed = 1;
nodes = (
"788 185 LINE",
"788 275 LINE",
"24 275 LINE",
"24 185 LINE"
);
},
{
closed = 1;
nodes = (
"437 489 LINE",
"437 579 LINE",
"24 579 LINE",
"24 489 LINE"
);
}
);
width = 1200;
},
{
components = (
{
name = P;
}
);
layerId = "1F90C004-9C90-48FA-B407-176B3E9F1E65";
paths = (
{
closed = 1;
nodes = (
"788 161 LINE",
"788 299 LINE",
"0 299 LINE",
"0 161 LINE"
);
},
{
closed = 1;
nodes = (
"437 440 LINE",
"437 630 LINE",
"0 630 LINE",
"0 440 LINE"
);
}
);
width = 1200;
},
{
components = (
{
alignment = -1;
name = P;
}
);
layerId = "8E053A5E-67DA-4970-A6F5-068DBFE5AD21";
paths = (
{
closed = 1;
nodes = (
"788 111 LINE",
"788 316 LINE",
"0 316 LINE",
"0 111 LINE"
);
},
{
closed = 1;
nodes = (
"437 407 LINE",
"437 647 LINE",
"0 647 LINE",
"0 407 LINE"
);
}
);
width = 1200;
}
);
unicode = 20BD;
}
{
glyphname = rupee;
production = uni20A8;
layers = (
{
layerId = master01;
paths = (
{
closed = 1;
nodes = (
"1069 -20 OFFCURVE",
"1150 53 OFFCURVE",
"1150 226 CURVE SMOOTH",
"1150 319 OFFCURVE",
"1104 414 OFFCURVE",
"990 539 CURVE SMOOTH",
"851 692 OFFCURVE",
"788 785 OFFCURVE",
"788 860 CURVE SMOOTH",
"788 950 OFFCURVE",
"836 988 OFFCURVE",
"950 988 CURVE SMOOTH",
"978 988 OFFCURVE",
"1029 983 OFFCURVE",
"1090 974 CURVE",
"1102 1060 LINE",
"1052 1073 OFFCURVE",
"992 1080 OFFCURVE",
"936 1080 CURVE SMOOTH",
"765 1080 OFFCURVE",
"692 1014 OFFCURVE",
"692 860 CURVE SMOOTH",
"692 753 OFFCURVE",
"754 649 OFFCURVE",
"892 507 CURVE SMOOTH",
"1006 388 OFFCURVE",
"1054 303 OFFCURVE",
"1054 222 CURVE SMOOTH",
"1054 117 OFFCURVE",
"1001 72 OFFCURVE",
"878 72 CURVE SMOOTH",
"808 72 OFFCURVE",
"750 79 OFFCURVE",
"689 93 CURVE",
"676 0 LINE",
"740 -14 OFFCURVE",
"800 -20 OFFCURVE",
"878 -20 CURVE SMOOTH"
);
},
{
closed = 1;
nodes = (
"632 0 LINE",
"464 628 LINE",
"369 628 LINE",
"537 0 LINE"
);
},
{
closed = 1;
nodes = (
"198 0 LINE",
"198 1420 LINE",
"104 1420 LINE",
"104 0 LINE"
);
},
{
closed = 1;
nodes = (
"308 582 LINE SMOOTH",
"523 582 OFFCURVE",
"640 738 OFFCURVE",
"640 1010 CURVE SMOOTH",
"640 1271 OFFCURVE",
"523 1420 OFFCURVE",
"308 1420 CURVE SMOOTH",
"160 1420 LINE",
"160 1330 LINE",
"308 1330 LINE SMOOTH",
"462 1330 OFFCURVE",
"544 1211 OFFCURVE",
"544 1001 CURVE SMOOTH",
"544 793 OFFCURVE",
"462 672 OFFCURVE",
"308 672 CURVE SMOOTH",
"184 672 LINE",
"184 582 LINE"
);
}
);
width = 1200;
},
{
layerId = "1F90C004-9C90-48FA-B407-176B3E9F1E65";
paths = (
{
closed = 1;
nodes = (
"1076 -20 OFFCURVE",
"1174 78 OFFCURVE",
"1174 276 CURVE SMOOTH",
"1174 365 OFFCURVE",
"1125 466 OFFCURVE",
"1026 579 CURVE SMOOTH",
"940 677 OFFCURVE",
"892 743 OFFCURVE",
"892 790 CURVE SMOOTH",
"892 857 OFFCURVE",
"928 890 OFFCURVE",
"1000 890 CURVE SMOOTH",
"1026 890 OFFCURVE",
"1060 885 OFFCURVE",
"1104 876 CURVE",
"1126 1060 LINE",
"1076 1073 OFFCURVE",
"1020 1080 OFFCURVE",
"956 1080 CURVE SMOOTH",
"779 1080 OFFCURVE",
"692 984 OFFCURVE",
"692 790 CURVE SMOOTH",
"692 680 OFFCURVE",
"744 580 OFFCURVE",
"838 477 CURVE SMOOTH",
"929 377 OFFCURVE",
"974 306 OFFCURVE",
"974 262 CURVE SMOOTH",
"974 200 OFFCURVE",
"942 170 OFFCURVE",
"878 170 CURVE SMOOTH",
"845 170 OFFCURVE",
"786 179 OFFCURVE",
"700 196 CURVE",
"676 0 LINE",
"731 -13 OFFCURVE",
"798 -20 OFFCURVE",
"878 -20 CURVE SMOOTH"
);
},
{
closed = 1;
nodes = (
"632 0 LINE",
"474 668 LINE",
"299 668 LINE",
"437 0 LINE"
);
},
{
closed = 1;
nodes = (
"265 0 LINE",
"265 1420 LINE",
"80 1420 LINE",
"80 0 LINE"
);
},
{
closed = 1;
nodes = (
"308 540 LINE SMOOTH",
"523 540 OFFCURVE",
"640 704 OFFCURVE",
"640 990 CURVE SMOOTH",
"640 1264 OFFCURVE",
"523 1420 OFFCURVE",
"308 1420 CURVE SMOOTH",
"231 1420 LINE",
"231 1246 LINE",
"308 1246 LINE SMOOTH",
"414 1246 OFFCURVE",
"470 1146 OFFCURVE",
"470 970 CURVE SMOOTH",
"470 808 OFFCURVE",
"414 714 OFFCURVE",
"308 714 CURVE SMOOTH",
"251 714 LINE",
"251 540 LINE"
);
}
);
width = 1200;
},
{
layerId = "8E053A5E-67DA-4970-A6F5-068DBFE5AD21";
paths = (
{
closed = 1;
nodes = (
"1087 -20 OFFCURVE",
"1191 72 OFFCURVE",
"1191 259 CURVE SMOOTH",
"1191 353 OFFCURVE",
"1138 471 OFFCURVE",
"1068 571 CURVE SMOOTH",
"996 672 OFFCURVE",
"950 725 OFFCURVE",
"950 765 CURVE SMOOTH",
"950 805 OFFCURVE",
"976 823 OFFCURVE",
"1025 823 CURVE SMOOTH",
"1049 823 OFFCURVE",
"1080 818 OFFCURVE",
"1121 809 CURVE",
"1143 1060 LINE",
"1088 1073 OFFCURVE",
"1027 1080 OFFCURVE",
"956 1080 CURVE SMOOTH",
"779 1080 OFFCURVE",
"692 992 OFFCURVE",
"692 815 CURVE SMOOTH",
"692 697 OFFCURVE",
"728 611 OFFCURVE",
"813 494 CURVE SMOOTH",
"886 394 OFFCURVE",
"932 332 OFFCURVE",
"932 295 CURVE SMOOTH",
"932 256 OFFCURVE",
"906 237 OFFCURVE",
"853 237 CURVE SMOOTH",
"825 237 OFFCURVE",
"774 246 OFFCURVE",
"700 263 CURVE",
"676 0 LINE",
"731 -13 OFFCURVE",
"798 -20 OFFCURVE",
"878 -20 CURVE SMOOTH"
);
},
{
closed = 1;
nodes = (
"657 0 LINE",
"557 668 LINE",
"332 668 LINE",
"412 0 LINE"
);
},
{
closed = 1;
nodes = (
"315 0 LINE",
"315 1420 LINE",
"63 1420 LINE",
"63 0 LINE"
);
},
{
closed = 1;
nodes = (
"341 507 LINE SMOOTH",
"556 507 OFFCURVE",
"673 683 OFFCURVE",
"673 990 CURVE SMOOTH",
"673 1264 OFFCURVE",
"556 1420 OFFCURVE",
"341 1420 CURVE SMOOTH",
"239 1420 LINE",
"239 1179 LINE",
"341 1179 LINE SMOOTH",
"415 1179 OFFCURVE",
"453 1104 OFFCURVE",
"453 970 CURVE SMOOTH",
"453 829 OFFCURVE",
"415 747 OFFCURVE",
"341 747 CURVE SMOOTH",
"259 747 LINE",
"259 507 LINE"
);
}
);
width = 1200;
}
);
unicode = 20A8;
}
{
glyphname = rupeeIndian;
production = uni20B9;
layers = (
{
layerId = master01;
paths = (
{
closed = 1;
nodes = (
"466 590 LINE SMOOTH",
"745 590 OFFCURVE",
"904 732 OFFCURVE",
"904 980 CURVE SMOOTH",
"904 1160 OFFCURVE",
"846 1284 OFFCURVE",
"746 1320 CURVE",
"746 1368 LINE",
"156 1330 LINE",
"466 1330 LINE SMOOTH",
"683 1330 OFFCURVE",
"808 1202 OFFCURVE",
"808 980 CURVE SMOOTH",
"808 789 OFFCURVE",
"683 680 OFFCURVE",
"466 680 CURVE SMOOTH",
"156 680 LINE",
"156 590 LINE"
);
},
{
closed = 1;
nodes = (
"986 0 LINE",
"612 668 LINE",
"497 668 LINE",
"871 0 LINE"
);
},
{
closed = 1;
nodes = (
"1044 960 LINE",
"1044 1050 LINE",
"156 1050 LINE",
"156 960 LINE"
);
},
{
closed = 1;
nodes = (
"1036 1330 LINE",
"1036 1420 LINE",
"156 1420 LINE",
"156 1330 LINE"
);
}
);
width = 1200;
},
{
layerId = "1F90C004-9C90-48FA-B407-176B3E9F1E65";
paths = (
{
closed = 1;
nodes = (
"466 540 LINE SMOOTH",
"760 540 OFFCURVE",
"928 689 OFFCURVE",
"928 950 CURVE SMOOTH",
"928 1096 OFFCURVE",
"865 1190 OFFCURVE",
"756 1210 CURVE",
"756 1268 LINE",
"132 1230 LINE",
"466 1230 LINE SMOOTH",
"625 1230 OFFCURVE",
"718 1136 OFFCURVE",
"718 970 CURVE SMOOTH",
"718 818 OFFCURVE",
"625 730 OFFCURVE",
"466 730 CURVE SMOOTH",
"132 730 LINE",
"132 540 LINE"
);
},
{
closed = 1;
nodes = (
"1010 0 LINE",
"632 668 LINE",
"412 668 LINE",
"770 0 LINE"
);
},
{
closed = 1;
nodes = (
"1068 911 LINE",
"1068 1049 LINE",
"132 1049 LINE",
"132 911 LINE"
);
},
{
closed = 1;
nodes = (
"1068 1230 LINE",
"1068 1420 LINE",
"132 1420 LINE",
"132 1230 LINE"
);
}
);
width = 1200;
},
{
layerId = "8E053A5E-67DA-4970-A6F5-068DBFE5AD21";
paths = (
{
closed = 1;
nodes = (
"476 481 LINE SMOOTH",
"781 481 OFFCURVE",
"955 640 OFFCURVE",
"955 917 CURVE SMOOTH",
"955 1047 OFFCURVE",
"886 1131 OFFCURVE",
"766 1148 CURVE",
"766 1215 LINE",
"115 1177 LINE",
"476 1177 LINE SMOOTH",
"603 1177 OFFCURVE",
"678 1096 OFFCURVE",
"678 953 CURVE SMOOTH",
"678 806 OFFCURVE",
"603 724 OFFCURVE",
"476 724 CURVE SMOOTH",
"115 724 LINE",
"115 481 LINE"
);
},
{
closed = 1;
nodes = (
"1027 0 LINE",
"649 668 LINE",
"362 668 LINE",
"720 0 LINE"
);
},
{
closed = 1;
nodes = (
"1085 834 LINE",
"1085 1068 LINE",
"115 1068 LINE",
"115 834 LINE"
);
},
{
closed = 1;
nodes = (
"1077 1177 LINE",
"1077 1420 LINE",
"115 1420 LINE",
"115 1177 LINE"
);
}
);
width = 1200;
}
);
unicode = 20B9;
}
{
glyphname = tenge;
production = uni20B8;
layers = (
{
layerId = master01;
paths = (
{
closed = 1;
nodes = (
"647 0 LINE",
"647 1160 LINE",
"553 1160 LINE",
"553 0 LINE"
);
},
{
closed = 1;
nodes = (
"1096 1070 LINE",
"1096 1160 LINE",
"104 1160 LINE",
"104 1070 LINE"
);
},
{
closed = 1;
nodes = (
"1096 1330 LINE",
"1096 1420 LINE",
"104 1420 LINE",
"104 1330 LINE"
);
}
);
width = 1200;
},
{
layerId = "1F90C004-9C90-48FA-B407-176B3E9F1E65";
paths = (
{
closed = 1;
nodes = (
"704 0 LINE",
"704 1060 LINE",
"496 1060 LINE",
"496 0 LINE"
);
},
{
closed = 1;
nodes = (
"1120 870 LINE",
"1120 1060 LINE",
"80 1060 LINE",
"80 870 LINE"
);
},
{
closed = 1;
nodes = (
"1120 1230 LINE",
"1120 1420 LINE",
"80 1420 LINE",
"80 1230 LINE"
);
}
);
width = 1200;
},
{
layerId = "8E053A5E-67DA-4970-A6F5-068DBFE5AD21";
paths = (
{
closed = 1;
nodes = (
"732 0 LINE",
"732 1057 LINE",
"468 1057 LINE",
"468 0 LINE"
);
},
{
closed = 1;
nodes = (
"1137 813 LINE",
"1137 1057 LINE",
"63 1057 LINE",
"63 813 LINE"
);
},
{
closed = 1;
nodes = (
"1137 1177 LINE",
"1137 1420 LINE",
"63 1420 LINE",
"63 1177 LINE"
);
}
);
width = 1200;
}
);
unicode = 20B8;
}
{
glyphname = tugrik;
production = uni20AE;
layers = (
{
components = (
{
name = T;
}
);
layerId = master01;
paths = (
{
closed = 1;
nodes = (
"1039 848 LINE",
"1039 942 LINE",
"161 792 LINE",
"161 698 LINE"
);
},
{
closed = 1;
nodes = (
"1039 518 LINE",
"1039 612 LINE",
"161 462 LINE",
"161 368 LINE"
);
}
);
width = 1200;
},
{
components = (
{
name = T;
}
);
layerId = "1F90C004-9C90-48FA-B407-176B3E9F1E65";
paths = (
{
closed = 1;
nodes = (
"1039 821 LINE",
"1039 969 LINE",
"161 819 LINE",
"161 671 LINE"
);
},
{
closed = 1;
nodes = (
"1039 491 LINE",
"1039 639 LINE",
"161 489 LINE",
"161 341 LINE"
);
}
);
width = 1200;
},
{
components = (
{
alignment = -1;
name = T;
}
);
layerId = "8E053A5E-67DA-4970-A6F5-068DBFE5AD21";
paths = (
{
closed = 1;
nodes = (
"1056 779 LINE",
"1056 1011 LINE",
"144 861 LINE",
"144 629 LINE"
);
},
{
closed = 1;
nodes = (
"1056 424 LINE",
"1056 656 LINE",
"144 506 LINE",
"144 274 LINE"
);
}
);
width = 1200;
}
);
unicode = 20AE;
}
{
glyphname = won;
production = uni20A9;
layers = (
{
components = (
{
name = W;
}
);
layerId = master01;
paths = (
{
closed = 1;
nodes = (
"1176 605 LINE",
"1176 695 LINE",
"24 695 LINE",
"24 605 LINE"
);
}
);
width = 1200;
},
{
components = (
{
name = W;
}
);
layerId = "1F90C004-9C90-48FA-B407-176B3E9F1E65";
paths = (
{
closed = 1;
nodes = (
"1200 501 LINE",
"1200 639 LINE",
"0 639 LINE",
"0 501 LINE"
);
}
);
width = 1200;
},
{
components = (
{
alignment = -1;
name = W;
}
);
layerId = "8E053A5E-67DA-4970-A6F5-068DBFE5AD21";
paths = (
{
closed = 1;
nodes = (
"1200 388 LINE",
"1200 609 LINE",
"0 609 LINE",
"0 388 LINE"
);
}
);
width = 1200;
}
);
unicode = 20A9;
}
{
glyphname = dashdownArrow;
production = uni21E3;
layers = (
{
layerId = master01;
paths = (
{
closed = 1;
nodes = (
"611 -20 LINE",
"1006 368 LINE",
"949 432 LINE",
"609 93 LINE",
"591 93 LINE",
"251 432 LINE",
"194 368 LINE",
"589 -20 LINE"
);
},
{
closed = 1;
nodes = (
"647 58 LINE",
"647 502 LINE",
"553 502 LINE",
"553 58 LINE"
);
},
{
closed = 1;
nodes = (
"647 652 LINE",
"647 794 LINE",
"553 794 LINE",
"553 652 LINE"
);
},
{
closed = 1;
nodes = (
"647 934 LINE",
"647 1076 LINE",
"553 1076 LINE",
"553 934 LINE"
);
},
{
closed = 1;
nodes = (
"647 1236 LINE",
"647 1420 LINE",
"553 1420 LINE",
"553 1236 LINE"
);
}
);
width = 1200;
},
{
layerId = "1F90C004-9C90-48FA-B407-176B3E9F1E65";
paths = (
{
closed = 1;
nodes = (
"661 -20 LINE",
"1122 426 LINE",
"1007 556 LINE",
"609 174 LINE",
"591 174 LINE",
"195 556 LINE",
"80 426 LINE",
"539 -20 LINE"
);
},
{
closed = 1;
nodes = (
"694 128 LINE",
"694 532 LINE",
"506 532 LINE",
"506 128 LINE"
);
},
{
closed = 1;
nodes = (
"694 642 LINE",
"694 824 LINE",
"506 824 LINE",
"506 642 LINE"
);
},
{
closed = 1;
nodes = (
"694 934 LINE",
"694 1116 LINE",
"506 1116 LINE",
"506 934 LINE"
);
},
{
closed = 1;
nodes = (
"694 1226 LINE",
"694 1420 LINE",
"506 1420 LINE",
"506 1226 LINE"
);
}
);
width = 1200;
},
{
layerId = "8E053A5E-67DA-4970-A6F5-068DBFE5AD21";
paths = (
{
closed = 1;
nodes = (
"661 -20 LINE",
"1161 470 LINE",
"1006 650 LINE",
"609 264 LINE",
"591 264 LINE",
"194 650 LINE",
"39 470 LINE",
"539 -20 LINE"
);
},
{
closed = 1;
nodes = (
"731 228 LINE",
"731 574 LINE",
"469 574 LINE",
"469 228 LINE"
);
},
{
closed = 1;
nodes = (
"731 642 LINE",
"731 849 LINE",
"469 849 LINE",
"469 642 LINE"
);
},
{
closed = 1;
nodes = (
"731 917 LINE",
"731 1133 LINE",
"469 1133 LINE",
"469 917 LINE"
);
},
{
closed = 1;
nodes = (
"731 1201 LINE",
"731 1420 LINE",
"469 1420 LINE",
"469 1201 LINE"
);
}
);
width = 1200;
}
);
unicode = 21E3;
}
{
glyphname = downTipLeftArrow;
layers = (
{
components = (
{
name = leftArrow;
transform = "{1, 0, 0, 1, 0, -198}";
}
);
layerId = master01;
paths = (
{
closed = 1;
nodes = (
"1127 466 LINE",
"1127 1128 LINE",
"1033 1128 LINE",
"1033 466 LINE"
);
}
);
width = 1200;
},
{
components = (
{
name = leftArrow;
transform = "{1, 0, 0, 1, 0, -198}";
}
);
layerId = "1F90C004-9C90-48FA-B407-176B3E9F1E65";
paths = (
{
closed = 1;
nodes = (
"1125 418 LINE",
"1125 1128 LINE",
"955 1128 LINE",
"955 418 LINE"
);
}
);
width = 1200;
},
{
components = (
{
name = leftArrow;
transform = "{1, 0, 0, 1, 0, -198}";
}
);
layerId = "8E053A5E-67DA-4970-A6F5-068DBFE5AD21";
paths = (
{
closed = 1;
nodes = (
"1125 388 LINE",
"1125 1127 LINE",
"883 1127 LINE",
"883 388 LINE"
);
}
);
width = 1200;
}
);
unicode = 21B2;
}
{
glyphname = upDashArrow;
production = uni21E1;
layers = (
{
layerId = master01;
paths = (
{
closed = 1;
nodes = (
"647 0 LINE",
"647 184 LINE",
"553 184 LINE",
"553 0 LINE"
);
},
{
closed = 1;
nodes = (
"647 344 LINE",
"647 486 LINE",
"553 486 LINE",
"553 344 LINE"
);
},
{
closed = 1;
nodes = (
"647 626 LINE",
"647 768 LINE",
"553 768 LINE",
"553 626 LINE"
);
},
{
closed = 1;
nodes = (
"647 918 LINE",
"647 1342 LINE",
"553 1342 LINE",
"553 918 LINE"
);
},
{
closed = 1;
nodes = (
"591 1327 LINE",
"609 1327 LINE",
"949 988 LINE",
"1006 1052 LINE",
"611 1440 LINE",
"589 1440 LINE",
"194 1052 LINE",
"251 988 LINE"
);
}
);
width = 1200;
},
{
layerId = "1F90C004-9C90-48FA-B407-176B3E9F1E65";
paths = (
{
closed = 1;
nodes = (
"694 0 LINE",
"694 194 LINE",
"506 194 LINE",
"506 0 LINE"
);
},
{
closed = 1;
nodes = (
"694 304 LINE",
"694 486 LINE",
"506 486 LINE",
"506 304 LINE"
);
},
{
closed = 1;
nodes = (
"694 596 LINE",
"694 778 LINE",
"506 778 LINE",
"506 596 LINE"
);
},
{
closed = 1;
nodes = (
"694 888 LINE",
"694 1292 LINE",
"506 1292 LINE",
"506 888 LINE"
);
},
{
closed = 1;
nodes = (
"591 1246 LINE",
"609 1246 LINE",
"1007 864 LINE",
"1122 994 LINE",
"661 1440 LINE",
"539 1440 LINE",
"80 994 LINE",
"195 864 LINE"
);
}
);
width = 1200;
},
{
layerId = "8E053A5E-67DA-4970-A6F5-068DBFE5AD21";
paths = (
{
closed = 1;
nodes = (
"731 0 LINE",
"731 219 LINE",
"469 219 LINE",
"469 0 LINE"
);
},
{
closed = 1;
nodes = (
"731 287 LINE",
"731 503 LINE",
"469 503 LINE",
"469 287 LINE"
);
},
{
closed = 1;
nodes = (
"731 571 LINE",
"731 778 LINE",
"469 778 LINE",
"469 571 LINE"
);
},
{
closed = 1;
nodes = (
"731 846 LINE",
"731 1192 LINE",
"469 1192 LINE",
"469 846 LINE"
);
},
{
closed = 1;
nodes = (
"591 1156 LINE",
"609 1156 LINE",
"1006 770 LINE",
"1161 950 LINE",
"661 1440 LINE",
"539 1440 LINE",
"39 950 LINE",
"194 770 LINE"
);
}
);
width = 1200;
}
);
unicode = 21E1;
}
{
glyphname = upDownbaseArrow;
production = arrowupdnbse;
layers = (
{
components = (
{
name = upDownArrow;
}
);
layerId = master01;
paths = (
{
closed = 1;
nodes = (
"1080 -88 LINE",
"1080 0 LINE",
"120 0 LINE",
"120 -88 LINE"
);
}
);
width = 1200;
},
{
components = (
{
name = upDownArrow;
}
);
layerId = "1F90C004-9C90-48FA-B407-176B3E9F1E65";
paths = (
{
closed = 1;
nodes = (
"1079 -186 LINE",
"1079 0 LINE",
"119 0 LINE",
"119 -186 LINE"
);
}
);
width = 1200;
},
{
components = (
{
alignment = -1;
name = upDownArrow;
}
);
layerId = "8E053A5E-67DA-4970-A6F5-068DBFE5AD21";
paths = (
{
closed = 1;
nodes = (
"1080 -243 LINE",
"1080 0 LINE",
"120 0 LINE",
"120 -243 LINE"
);
}
);
width = 1200;
}
);
unicode = 21A8;
}
{
glyphname = returnsymbol;
layers = (
{
layerId = master01;
paths = (
{
closed = 1;
nodes = (
"1125 406 LINE",
"1125 1088 LINE",
"1035 1088 LINE",
"1035 406 LINE"
);
},
{
closed = 1;
nodes = (
"1100 1088 LINE",
"824 1088 LINE",
"824 998 LINE",
"1100 998 LINE"
);
},
{
closed = 1;
nodes = (
"1100 496 LINE",
"124 496 LINE",
"124 406 LINE",
"1100 406 LINE"
);
},
{
closed = 1;
nodes = (
"516 102 LINE",
"177 442 LINE",
"177 460 LINE",
"516 800 LINE",
"452 857 LINE",
"64 462 LINE",
"64 440 LINE",
"452 45 LINE"
);
}
);
width = 1200;
},
{
layerId = "1F90C004-9C90-48FA-B407-176B3E9F1E65";
paths = (
{
closed = 1;
nodes = (
"1125 358 LINE",
"1125 1128 LINE",
"955 1128 LINE",
"955 358 LINE"
);
},
{
closed = 1;
nodes = (
"1100 1128 LINE",
"775 1128 LINE",
"775 942 LINE",
"1100 942 LINE"
);
},
{
closed = 1;
nodes = (
"1080 544 LINE",
"130 544 LINE",
"130 358 LINE",
"1080 358 LINE"
);
},
{
closed = 1;
nodes = (
"620 44 LINE",
"238 442 LINE",
"238 460 LINE",
"620 856 LINE",
"490 971 LINE",
"44 512 LINE",
"44 390 LINE",
"490 -71 LINE"
);
}
);
width = 1200;
},
{
layerId = "8E053A5E-67DA-4970-A6F5-068DBFE5AD21";
paths = (
{
closed = 1;
nodes = (
"1165 328 LINE",
"1165 1167 LINE",
"923 1167 LINE",
"923 328 LINE"
);
},
{
closed = 1;
nodes = (
"1100 1167 LINE",
"774 1167 LINE",
"774 917 LINE",
"1100 917 LINE"
);
},
{
closed = 1;
nodes = (
"1050 576 LINE",
"203 576 LINE",
"203 326 LINE",
"1050 326 LINE"
);
},
{
closed = 1;
nodes = (
"684 45 LINE",
"298 442 LINE",
"298 460 LINE",
"684 857 LINE",
"504 1012 LINE",
"14 512 LINE",
"14 390 LINE",
"504 -110 LINE"
);
}
);
width = 1200;
}
);
unicode = 23CE;
}
{
glyphname = blackCircle;
production = uni25CF;
layers = (
{
layerId = master01;
paths = (
{
closed = 1;
nodes = (
"916 185 OFFCURVE",
"1125 394 OFFCURVE",
"1125 710 CURVE SMOOTH",
"1125 1026 OFFCURVE",
"916 1235 OFFCURVE",
"600 1235 CURVE SMOOTH",
"284 1235 OFFCURVE",
"75 1026 OFFCURVE",
"75 710 CURVE SMOOTH",
"75 394 OFFCURVE",
"284 185 OFFCURVE",
"600 185 CURVE SMOOTH"
);
}
);
width = 1200;
},
{
layerId = "1F90C004-9C90-48FA-B407-176B3E9F1E65";
paths = (
{
closed = 1;
nodes = (
"916 185 OFFCURVE",
"1125 394 OFFCURVE",
"1125 710 CURVE SMOOTH",
"1125 1026 OFFCURVE",
"916 1235 OFFCURVE",
"600 1235 CURVE SMOOTH",
"284 1235 OFFCURVE",
"75 1026 OFFCURVE",
"75 710 CURVE SMOOTH",
"75 394 OFFCURVE",
"284 185 OFFCURVE",
"600 185 CURVE SMOOTH"
);
}
);
width = 1200;
},
{
layerId = "8E053A5E-67DA-4970-A6F5-068DBFE5AD21";
paths = (
{
closed = 1;
nodes = (
"915 185 OFFCURVE",
"1125 395 OFFCURVE",
"1125 710 CURVE SMOOTH",
"1125 1025 OFFCURVE",
"915 1235 OFFCURVE",
"600 1235 CURVE SMOOTH",
"285 1235 OFFCURVE",
"75 1025 OFFCURVE",
"75 710 CURVE SMOOTH",
"75 395 OFFCURVE",
"285 185 OFFCURVE",
"600 185 CURVE SMOOTH"
);
}
);
width = 1200;
}
);
note = H18533;
unicode = 25CF;
}
{
glyphname = blackInWhiteDiamond;
production = uni25C8;
layers = (
{
components = (
{
name = whiteDiamond;
transform = "{-1, 0, 0, -1, 1200, 1420}";
}
);
layerId = master01;
paths = (
{
closed = 1;
nodes = (
"776 710 LINE",
"600 886 LINE",
"424 710 LINE",
"600 534 LINE"
);
}
);
width = 1200;
},
{
components = (
{
name = whiteDiamond;
transform = "{-1, 0, 0, -1, 1200, 1420}";
}
);
layerId = "1F90C004-9C90-48FA-B407-176B3E9F1E65";
paths = (
{
closed = 1;
nodes = (
"776 710 LINE",
"600 886 LINE",
"424 710 LINE",
"600 534 LINE"
);
}
);
width = 1200;
},
{
components = (
{
alignment = -1;
name = whiteDiamond;
transform = "{-1, 0, 0, -1, 1200, 1420}";
}
);
layerId = "8E053A5E-67DA-4970-A6F5-068DBFE5AD21";
paths = (
{
closed = 1;
nodes = (
"759 710 LINE",
"600 869 LINE",
"441 710 LINE",
"600 551 LINE"
);
}
);
width = 1200;
}
);
note = uni25C8;
unicode = 25C8;
}
{
glyphname = blackSmallSquare;
production = uni25AA;
layers = (
{
layerId = master01;
paths = (
{
closed = 1;
nodes = (
"900 410 LINE",
"900 1010 LINE",
"300 1010 LINE",
"300 410 LINE"
);
}
);
width = 1200;
},
{
layerId = "1F90C004-9C90-48FA-B407-176B3E9F1E65";
paths = (
{
closed = 1;
nodes = (
"900 410 LINE",
"900 1010 LINE",
"300 1010 LINE",
"300 410 LINE"
);
}
);
width = 1200;
},
{
layerId = "8E053A5E-67DA-4970-A6F5-068DBFE5AD21";
paths = (
{
closed = 1;
nodes = (
"900 410 LINE",
"900 1010 LINE",
"300 1010 LINE",
"300 410 LINE"
);
}
);
width = 1200;
}
);
note = H18543;
unicode = 25AA;
}
{
glyphname = blackVerticalRect;
production = uni25AE;
layers = (
{
layerId = master01;
paths = (
{
closed = 1;
nodes = (
"900 110 LINE",
"900 1310 LINE",
"300 1310 LINE",
"300 110 LINE"
);
}
);
width = 1200;
},
{
layerId = "1F90C004-9C90-48FA-B407-176B3E9F1E65";
paths = (
{
closed = 1;
nodes = (
"900 110 LINE",
"900 1310 LINE",
"300 1310 LINE",
"300 110 LINE"
);
}
);
width = 1200;
},
{
layerId = "8E053A5E-67DA-4970-A6F5-068DBFE5AD21";
paths = (
{
closed = 1;
nodes = (
"900 110 LINE",
"900 1310 LINE",
"300 1310 LINE",
"300 110 LINE"
);
}
);
width = 1200;
}
);
note = uni25AE;
unicode = 25AE;
}
{
glyphname = crosshatchFillSquare;
production = uni25A6;
layers = (
{
components = (
{
name = whiteSquare;
}
);
layerId = master01;
paths = (
{
closed = 1;
nodes = (
"1051 815 LINE",
"1051 905 LINE",
"149 905 LINE",
"149 815 LINE"
);
},
{
closed = 1;
nodes = (
"495 259 LINE",
"495 1161 LINE",
"405 1161 LINE",
"405 259 LINE"
);
},
{
closed = 1;
nodes = (
"1051 515 LINE",
"1051 605 LINE",
"149 605 LINE",
"149 515 LINE"
);
},
{
closed = 1;
nodes = (
"795 259 LINE",
"795 1161 LINE",
"705 1161 LINE",
"705 259 LINE"
);
}
);
width = 1200;
},
{
components = (
{
name = whiteSquare;
}
);
layerId = "1F90C004-9C90-48FA-B407-176B3E9F1E65";
paths = (
{
closed = 1;
nodes = (
"1051 785 LINE",
"1051 935 LINE",
"149 935 LINE",
"149 785 LINE"
);
},
{
closed = 1;
nodes = (
"525 259 LINE",
"525 1161 LINE",
"375 1161 LINE",
"375 259 LINE"
);
},
{
closed = 1;
nodes = (
"1051 485 LINE",
"1051 635 LINE",
"149 635 LINE",
"149 485 LINE"
);
},
{
closed = 1;
nodes = (
"825 259 LINE",
"825 1161 LINE",
"675 1161 LINE",
"675 259 LINE"
);
}
);
width = 1200;
},
{
components = (
{
alignment = -1;
name = whiteSquare;
}
);
layerId = "8E053A5E-67DA-4970-A6F5-068DBFE5AD21";
paths = (
{
closed = 1;
nodes = (
"1051 756 LINE",
"1051 914 LINE",
"149 914 LINE",
"149 756 LINE"
);
},
{
closed = 1;
nodes = (
"554 259 LINE",
"554 1161 LINE",
"396 1161 LINE",
"396 259 LINE"
);
},
{
closed = 1;
nodes = (
"1051 506 LINE",
"1051 664 LINE",
"149 664 LINE",
"149 506 LINE"
);
},
{
closed = 1;
nodes = (
"804 259 LINE",
"804 1161 LINE",
"646 1161 LINE",
"646 259 LINE"
);
}
);
width = 1200;
}
);
note = uni25A6;
unicode = 25A6;
}
{
glyphname = diagonalcrosshatchFillSquare;
production = uni25A9;
layers = (
{
components = (
{
name = whiteSquare;
}
);
layerId = master01;
paths = (
{
closed = 1;
nodes = (
"1092 289 LINE",
"187 1194 LINE",
"116 1133 LINE",
"1031 218 LINE"
);
},
{
closed = 1;
nodes = (
"725 246 LINE",
"150 821 LINE",
"150 689 LINE",
"593 246 LINE"
);
},
{
closed = 1;
nodes = (
"1084 1133 LINE",
"1013 1194 LINE",
"108 289 LINE",
"169 218 LINE"
);
},
{
closed = 1;
nodes = (
"607 246 LINE",
"1050 689 LINE",
"1050 821 LINE",
"475 246 LINE"
);
},
{
closed = 1;
nodes = (
"718 1177 LINE",
"586 1177 LINE",
"120 711 LINE",
"120 579 LINE"
);
},
{
closed = 1;
nodes = (
"1080 711 LINE",
"614 1177 LINE",
"482 1177 LINE",
"1080 579 LINE"
);
}
);
width = 1200;
},
{
components = (
{
name = whiteSquare;
}
);
layerId = "1F90C004-9C90-48FA-B407-176B3E9F1E65";
paths = (
{
closed = 1;
nodes = (
"1087 334 LINE",
"240 1181 LINE",
"129 1080 LINE",
"986 223 LINE"
);
},
{
closed = 1;
nodes = (
"765 246 LINE",
"150 861 LINE",
"150 649 LINE",
"553 246 LINE"
);
},
{
closed = 1;
nodes = (
"1071 1080 LINE",
"960 1181 LINE",
"113 334 LINE",
"214 223 LINE"
);
},
{
closed = 1;
nodes = (
"647 246 LINE",
"1050 649 LINE",
"1050 861 LINE",
"435 246 LINE"
);
},
{
closed = 1;
nodes = (
"758 1177 LINE",
"546 1177 LINE",
"120 751 LINE",
"120 539 LINE"
);
},
{
closed = 1;
nodes = (
"1080 751 LINE",
"654 1177 LINE",
"442 1177 LINE",
"1080 539 LINE"
);
}
);
width = 1200;
},
{
components = (
{
alignment = -1;
name = whiteSquare;
}
);
layerId = "8E053A5E-67DA-4970-A6F5-068DBFE5AD21";
paths = (
{
closed = 1;
nodes = (
"1087 317 LINE",
"223 1181 LINE",
"129 1097 LINE",
"1003 223 LINE"
);
},
{
closed = 1;
nodes = (
"798 321 LINE",
"200 919 LINE",
"200 741 LINE",
"620 321 LINE"
);
},
{
closed = 1;
nodes = (
"1071 1097 LINE",
"977 1181 LINE",
"113 317 LINE",
"197 223 LINE"
);
},
{
closed = 1;
nodes = (
"580 321 LINE",
"1000 741 LINE",
"1000 919 LINE",
"402 321 LINE"
);
},
{
closed = 1;
nodes = (
"791 1102 LINE",
"613 1102 LINE",
"170 643 LINE",
"170 464 LINE"
);
},
{
closed = 1;
nodes = (
"1030 643 LINE",
"587 1102 LINE",
"409 1102 LINE",
"1030 464 LINE"
);
}
);
width = 1200;
}
);
note = uni25A9;
unicode = 25A9;
}
{
glyphname = dottedCircle;
production = uni25CC;
layers = (
{
layerId = master01;
paths = (
{
closed = 1;
nodes = (
"863 1037 OFFCURVE",
"888 1062 OFFCURVE",
"888 1099 CURVE SMOOTH",
"888 1136 OFFCURVE",
"863 1161 OFFCURVE",
"826 1161 CURVE SMOOTH",
"789 1161 OFFCURVE",
"764 1136 OFFCURVE",
"764 1099 CURVE SMOOTH",
"764 1062 OFFCURVE",
"789 1037 OFFCURVE",
"826 1037 CURVE SMOOTH"
);
},
{
closed = 1;
nodes = (
"412 259 OFFCURVE",
"437 284 OFFCURVE",
"437 321 CURVE SMOOTH",
"437 358 OFFCURVE",
"412 383 OFFCURVE",
"375 383 CURVE SMOOTH",
"338 383 OFFCURVE",
"313 358 OFFCURVE",
"313 321 CURVE SMOOTH",
"313 284 OFFCURVE",
"338 259 OFFCURVE",
"375 259 CURVE SMOOTH"
);
},
{
closed = 1;
nodes = (
"249 424 OFFCURVE",
"274 449 OFFCURVE",
"274 486 CURVE SMOOTH",
"274 523 OFFCURVE",
"249 548 OFFCURVE",
"212 548 CURVE SMOOTH",
"175 548 OFFCURVE",
"150 523 OFFCURVE",
"150 486 CURVE SMOOTH",
"150 449 OFFCURVE",
"175 424 OFFCURVE",
"212 424 CURVE SMOOTH"
);
},
{
closed = 1;
nodes = (
"637 198 OFFCURVE",
"662 223 OFFCURVE",
"662 260 CURVE SMOOTH",
"662 297 OFFCURVE",
"637 322 OFFCURVE",
"600 322 CURVE SMOOTH",
"563 322 OFFCURVE",
"538 297 OFFCURVE",
"538 260 CURVE SMOOTH",
"538 223 OFFCURVE",
"563 198 OFFCURVE",
"600 198 CURVE SMOOTH"
);
},
{
closed = 1;
nodes = (
"187 648 OFFCURVE",
"212 673 OFFCURVE",
"212 710 CURVE SMOOTH",
"212 747 OFFCURVE",
"187 772 OFFCURVE",
"150 772 CURVE SMOOTH",
"113 772 OFFCURVE",
"88 747 OFFCURVE",
"88 710 CURVE SMOOTH",
"88 673 OFFCURVE",
"113 648 OFFCURVE",
"150 648 CURVE SMOOTH"
);
},
{
closed = 1;
nodes = (
"249 873 OFFCURVE",
"274 898 OFFCURVE",
"274 935 CURVE SMOOTH",
"274 972 OFFCURVE",
"249 997 OFFCURVE",
"212 997 CURVE SMOOTH",
"175 997 OFFCURVE",
"150 972 OFFCURVE",
"150 935 CURVE SMOOTH",
"150 898 OFFCURVE",
"175 873 OFFCURVE",
"212 873 CURVE SMOOTH"
);
},
{
closed = 1;
nodes = (
"863 259 OFFCURVE",
"888 284 OFFCURVE",
"888 321 CURVE SMOOTH",
"888 358 OFFCURVE",
"863 383 OFFCURVE",
"826 383 CURVE SMOOTH",
"789 383 OFFCURVE",
"764 358 OFFCURVE",
"764 321 CURVE SMOOTH",
"764 284 OFFCURVE",
"789 259 OFFCURVE",
"826 259 CURVE SMOOTH"
);
},
{
closed = 1;
nodes = (
"412 1037 OFFCURVE",
"437 1062 OFFCURVE",
"437 1099 CURVE SMOOTH",
"437 1136 OFFCURVE",
"412 1161 OFFCURVE",
"375 1161 CURVE SMOOTH",
"338 1161 OFFCURVE",
"313 1136 OFFCURVE",
"313 1099 CURVE SMOOTH",
"313 1062 OFFCURVE",
"338 1037 OFFCURVE",
"375 1037 CURVE SMOOTH"
);
},
{
closed = 1;
nodes = (
"1026 424 OFFCURVE",
"1051 449 OFFCURVE",
"1051 486 CURVE SMOOTH",
"1051 523 OFFCURVE",
"1026 548 OFFCURVE",
"989 548 CURVE SMOOTH",
"952 548 OFFCURVE",
"927 523 OFFCURVE",
"927 486 CURVE SMOOTH",
"927 449 OFFCURVE",
"952 424 OFFCURVE",
"989 424 CURVE SMOOTH"
);
},
{
closed = 1;
nodes = (
"1087 648 OFFCURVE",
"1112 673 OFFCURVE",
"1112 710 CURVE SMOOTH",
"1112 747 OFFCURVE",
"1087 772 OFFCURVE",
"1050 772 CURVE SMOOTH",
"1013 772 OFFCURVE",
"988 747 OFFCURVE",
"988 710 CURVE SMOOTH",
"988 673 OFFCURVE",
"1013 648 OFFCURVE",
"1050 648 CURVE SMOOTH"
);
},
{
closed = 1;
nodes = (
"637 1098 OFFCURVE",
"662 1123 OFFCURVE",
"662 1160 CURVE SMOOTH",
"662 1197 OFFCURVE",
"637 1222 OFFCURVE",
"600 1222 CURVE SMOOTH",
"563 1222 OFFCURVE",
"538 1197 OFFCURVE",
"538 1160 CURVE SMOOTH",
"538 1123 OFFCURVE",
"563 1098 OFFCURVE",
"600 1098 CURVE SMOOTH"
);
},
{
closed = 1;
nodes = (
"1026 873 OFFCURVE",
"1051 898 OFFCURVE",
"1051 935 CURVE SMOOTH",
"1051 972 OFFCURVE",
"1026 997 OFFCURVE",
"989 997 CURVE SMOOTH",
"952 997 OFFCURVE",
"927 972 OFFCURVE",
"927 935 CURVE SMOOTH",
"927 898 OFFCURVE",
"952 873 OFFCURVE",
"989 873 CURVE SMOOTH"
);
}
);
width = 1200;
},
{
layerId = "1F90C004-9C90-48FA-B407-176B3E9F1E65";
paths = (
{
closed = 1;
nodes = (
"871 1024 OFFCURVE",
"901 1054 OFFCURVE",
"901 1099 CURVE SMOOTH",
"901 1144 OFFCURVE",
"871 1174 OFFCURVE",
"826 1174 CURVE SMOOTH",
"781 1174 OFFCURVE",
"751 1144 OFFCURVE",
"751 1099 CURVE SMOOTH",
"751 1054 OFFCURVE",
"781 1024 OFFCURVE",
"826 1024 CURVE SMOOTH"
);
},
{
closed = 1;
nodes = (
"420 246 OFFCURVE",
"450 276 OFFCURVE",
"450 321 CURVE SMOOTH",
"450 366 OFFCURVE",
"420 396 OFFCURVE",
"375 396 CURVE SMOOTH",
"330 396 OFFCURVE",
"300 366 OFFCURVE",
"300 321 CURVE SMOOTH",
"300 276 OFFCURVE",
"330 246 OFFCURVE",
"375 246 CURVE SMOOTH"
);
},
{
closed = 1;
nodes = (
"257 411 OFFCURVE",
"287 441 OFFCURVE",
"287 486 CURVE SMOOTH",
"287 531 OFFCURVE",
"257 561 OFFCURVE",
"212 561 CURVE SMOOTH",
"167 561 OFFCURVE",
"137 531 OFFCURVE",
"137 486 CURVE SMOOTH",
"137 441 OFFCURVE",
"167 411 OFFCURVE",
"212 411 CURVE SMOOTH"
);
},
{
closed = 1;
nodes = (
"645 185 OFFCURVE",
"675 215 OFFCURVE",
"675 260 CURVE SMOOTH",
"675 305 OFFCURVE",
"645 335 OFFCURVE",
"600 335 CURVE SMOOTH",
"555 335 OFFCURVE",
"525 305 OFFCURVE",
"525 260 CURVE SMOOTH",
"525 215 OFFCURVE",
"555 185 OFFCURVE",
"600 185 CURVE SMOOTH"
);
},
{
closed = 1;
nodes = (
"195 635 OFFCURVE",
"225 665 OFFCURVE",
"225 710 CURVE SMOOTH",
"225 755 OFFCURVE",
"195 785 OFFCURVE",
"150 785 CURVE SMOOTH",
"105 785 OFFCURVE",
"75 755 OFFCURVE",
"75 710 CURVE SMOOTH",
"75 665 OFFCURVE",
"105 635 OFFCURVE",
"150 635 CURVE SMOOTH"
);
},
{
closed = 1;
nodes = (
"257 860 OFFCURVE",
"287 890 OFFCURVE",
"287 935 CURVE SMOOTH",
"287 980 OFFCURVE",
"257 1010 OFFCURVE",
"212 1010 CURVE SMOOTH",
"167 1010 OFFCURVE",
"137 980 OFFCURVE",
"137 935 CURVE SMOOTH",
"137 890 OFFCURVE",
"167 860 OFFCURVE",
"212 860 CURVE SMOOTH"
);
},
{
closed = 1;
nodes = (
"871 246 OFFCURVE",
"901 276 OFFCURVE",
"901 321 CURVE SMOOTH",
"901 366 OFFCURVE",
"871 396 OFFCURVE",
"826 396 CURVE SMOOTH",
"781 396 OFFCURVE",
"751 366 OFFCURVE",
"751 321 CURVE SMOOTH",
"751 276 OFFCURVE",
"781 246 OFFCURVE",
"826 246 CURVE SMOOTH"
);
},
{
closed = 1;
nodes = (
"420 1024 OFFCURVE",
"450 1054 OFFCURVE",
"450 1099 CURVE SMOOTH",
"450 1144 OFFCURVE",
"420 1174 OFFCURVE",
"375 1174 CURVE SMOOTH",
"330 1174 OFFCURVE",
"300 1144 OFFCURVE",
"300 1099 CURVE SMOOTH",
"300 1054 OFFCURVE",
"330 1024 OFFCURVE",
"375 1024 CURVE SMOOTH"
);
},
{
closed = 1;
nodes = (
"1034 411 OFFCURVE",
"1064 441 OFFCURVE",
"1064 486 CURVE SMOOTH",
"1064 531 OFFCURVE",
"1034 561 OFFCURVE",
"989 561 CURVE SMOOTH",
"944 561 OFFCURVE",
"914 531 OFFCURVE",
"914 486 CURVE SMOOTH",
"914 441 OFFCURVE",
"944 411 OFFCURVE",
"989 411 CURVE SMOOTH"
);
},
{
closed = 1;
nodes = (
"1095 635 OFFCURVE",
"1125 665 OFFCURVE",
"1125 710 CURVE SMOOTH",
"1125 755 OFFCURVE",
"1095 785 OFFCURVE",
"1050 785 CURVE SMOOTH",
"1005 785 OFFCURVE",
"975 755 OFFCURVE",
"975 710 CURVE SMOOTH",
"975 665 OFFCURVE",
"1005 635 OFFCURVE",
"1050 635 CURVE SMOOTH"
);
},
{
closed = 1;
nodes = (
"645 1085 OFFCURVE",
"675 1115 OFFCURVE",
"675 1160 CURVE SMOOTH",
"675 1205 OFFCURVE",
"645 1235 OFFCURVE",
"600 1235 CURVE SMOOTH",
"555 1235 OFFCURVE",
"525 1205 OFFCURVE",
"525 1160 CURVE SMOOTH",
"525 1115 OFFCURVE",
"555 1085 OFFCURVE",
"600 1085 CURVE SMOOTH"
);
},
{
closed = 1;
nodes = (
"1034 860 OFFCURVE",
"1064 890 OFFCURVE",
"1064 935 CURVE SMOOTH",
"1064 980 OFFCURVE",
"1034 1010 OFFCURVE",
"989 1010 CURVE SMOOTH",
"944 1010 OFFCURVE",
"914 980 OFFCURVE",
"914 935 CURVE SMOOTH",
"914 890 OFFCURVE",
"944 860 OFFCURVE",
"989 860 CURVE SMOOTH"
);
}
);
width = 1200;
},
{
layerId = "8E053A5E-67DA-4970-A6F5-068DBFE5AD21";
paths = (
{
closed = 1;
nodes = (
"879 1011 OFFCURVE",
"914 1047 OFFCURVE",
"914 1099 CURVE SMOOTH",
"914 1152 OFFCURVE",
"879 1187 OFFCURVE",
"826 1187 CURVE SMOOTH",
"774 1187 OFFCURVE",
"738 1152 OFFCURVE",
"738 1099 CURVE SMOOTH",
"738 1047 OFFCURVE",
"774 1011 OFFCURVE",
"826 1011 CURVE SMOOTH"
);
},
{
closed = 1;
nodes = (
"428 233 OFFCURVE",
"463 269 OFFCURVE",
"463 321 CURVE SMOOTH",
"463 374 OFFCURVE",
"428 409 OFFCURVE",
"375 409 CURVE SMOOTH",
"323 409 OFFCURVE",
"287 374 OFFCURVE",
"287 321 CURVE SMOOTH",
"287 269 OFFCURVE",
"323 233 OFFCURVE",
"375 233 CURVE SMOOTH"
);
},
{
closed = 1;
nodes = (
"265 398 OFFCURVE",
"300 434 OFFCURVE",
"300 486 CURVE SMOOTH",
"300 539 OFFCURVE",
"265 574 OFFCURVE",
"212 574 CURVE SMOOTH",
"160 574 OFFCURVE",
"124 539 OFFCURVE",
"124 486 CURVE SMOOTH",
"124 434 OFFCURVE",
"160 398 OFFCURVE",
"212 398 CURVE SMOOTH"
);
},
{
closed = 1;
nodes = (
"653 172 OFFCURVE",
"688 208 OFFCURVE",
"688 260 CURVE SMOOTH",
"688 313 OFFCURVE",
"653 348 OFFCURVE",
"600 348 CURVE SMOOTH",
"548 348 OFFCURVE",
"512 313 OFFCURVE",
"512 260 CURVE SMOOTH",
"512 208 OFFCURVE",
"548 172 OFFCURVE",
"600 172 CURVE SMOOTH"
);
},
{
closed = 1;
nodes = (
"203 622 OFFCURVE",
"238 658 OFFCURVE",
"238 710 CURVE SMOOTH",
"238 763 OFFCURVE",
"203 798 OFFCURVE",
"150 798 CURVE SMOOTH",
"98 798 OFFCURVE",
"62 763 OFFCURVE",
"62 710 CURVE SMOOTH",
"62 658 OFFCURVE",
"98 622 OFFCURVE",
"150 622 CURVE SMOOTH"
);
},
{
closed = 1;
nodes = (
"265 847 OFFCURVE",
"300 883 OFFCURVE",
"300 935 CURVE SMOOTH",
"300 988 OFFCURVE",
"265 1023 OFFCURVE",
"212 1023 CURVE SMOOTH",
"160 1023 OFFCURVE",
"124 988 OFFCURVE",
"124 935 CURVE SMOOTH",
"124 883 OFFCURVE",
"160 847 OFFCURVE",
"212 847 CURVE SMOOTH"
);
},
{
closed = 1;
nodes = (
"879 233 OFFCURVE",
"914 269 OFFCURVE",
"914 321 CURVE SMOOTH",
"914 374 OFFCURVE",
"879 409 OFFCURVE",
"826 409 CURVE SMOOTH",
"774 409 OFFCURVE",
"738 374 OFFCURVE",
"738 321 CURVE SMOOTH",
"738 269 OFFCURVE",
"774 233 OFFCURVE",
"826 233 CURVE SMOOTH"
);
},
{
closed = 1;
nodes = (
"428 1011 OFFCURVE",
"463 1047 OFFCURVE",
"463 1099 CURVE SMOOTH",
"463 1152 OFFCURVE",
"428 1187 OFFCURVE",
"375 1187 CURVE SMOOTH",
"323 1187 OFFCURVE",
"287 1152 OFFCURVE",
"287 1099 CURVE SMOOTH",
"287 1047 OFFCURVE",
"323 1011 OFFCURVE",
"375 1011 CURVE SMOOTH"
);
},
{
closed = 1;
nodes = (
"1042 398 OFFCURVE",
"1077 434 OFFCURVE",
"1077 486 CURVE SMOOTH",
"1077 539 OFFCURVE",
"1042 574 OFFCURVE",
"989 574 CURVE SMOOTH",
"937 574 OFFCURVE",
"901 539 OFFCURVE",
"901 486 CURVE SMOOTH",
"901 434 OFFCURVE",
"937 398 OFFCURVE",
"989 398 CURVE SMOOTH"
);
},
{
closed = 1;
nodes = (
"1103 622 OFFCURVE",
"1138 658 OFFCURVE",
"1138 710 CURVE SMOOTH",
"1138 763 OFFCURVE",
"1103 798 OFFCURVE",
"1050 798 CURVE SMOOTH",
"998 798 OFFCURVE",
"962 763 OFFCURVE",
"962 710 CURVE SMOOTH",
"962 658 OFFCURVE",
"998 622 OFFCURVE",
"1050 622 CURVE SMOOTH"
);
},
{
closed = 1;
nodes = (
"653 1072 OFFCURVE",
"688 1108 OFFCURVE",
"688 1160 CURVE SMOOTH",
"688 1213 OFFCURVE",
"653 1248 OFFCURVE",
"600 1248 CURVE SMOOTH",
"548 1248 OFFCURVE",
"512 1213 OFFCURVE",
"512 1160 CURVE SMOOTH",
"512 1108 OFFCURVE",
"548 1072 OFFCURVE",
"600 1072 CURVE SMOOTH"
);
},
{
closed = 1;
nodes = (
"1042 847 OFFCURVE",
"1077 883 OFFCURVE",
"1077 935 CURVE SMOOTH",
"1077 988 OFFCURVE",
"1042 1023 OFFCURVE",
"989 1023 CURVE SMOOTH",
"937 1023 OFFCURVE",
"901 988 OFFCURVE",
"901 935 CURVE SMOOTH",
"901 883 OFFCURVE",
"937 847 OFFCURVE",
"989 847 CURVE SMOOTH"
);
}
);
width = 1200;
}
);
note = uni25CC;
unicode = 25CC;
}
{
glyphname = downBlackSmallTriangle;
production = uni25BE;
layers = (
{
layerId = master01;
paths = (
{
closed = 1;
nodes = (
"1069 1115 LINE",
"131 1115 LINE",
"600 318 LINE"
);
}
);
width = 1200;
},
{
layerId = "1F90C004-9C90-48FA-B407-176B3E9F1E65";
paths = (
{
closed = 1;
nodes = (
"1069 1115 LINE",
"131 1115 LINE",
"600 318 LINE"
);
}
);
width = 1200;
},
{
layerId = "8E053A5E-67DA-4970-A6F5-068DBFE5AD21";
paths = (
{
closed = 1;
nodes = (
"1069 1115 LINE",
"131 1115 LINE",
"600 318 LINE"
);
}
);
width = 1200;
}
);
note = uni25BE;
unicode = 25BE;
}
{
glyphname = downBlackTriangle;
production = triagdn;
layers = (
{
layerId = master01;
paths = (
{
closed = 1;
nodes = (
"1200 1190 LINE",
"0 1190 LINE",
"600 170 LINE"
);
}
);
width = 1200;
},
{
layerId = "1F90C004-9C90-48FA-B407-176B3E9F1E65";
paths = (
{
closed = 1;
nodes = (
"1200 1190 LINE",
"0 1190 LINE",
"600 170 LINE"
);
}
);
width = 1200;
},
{
layerId = "8E053A5E-67DA-4970-A6F5-068DBFE5AD21";
paths = (
{
closed = 1;
nodes = (
"1200 1190 LINE",
"0 1190 LINE",
"600 170 LINE"
);
}
);
width = 1200;
}
);
note = triagdn;
unicode = 25BC;
}
{
glyphname = downWhiteSmallTriangle;
production = uni25BF;
layers = (
{
layerId = master01;
paths = (
{
closed = 1;
nodes = (
"1069 1115 LINE",
"131 1115 LINE",
"600 318 LINE"
);
},
{
closed = 1;
nodes = (
"637 434 LINE",
"266 1062 LINE",
"262 1025 LINE",
"945 1025 LINE",
"939 1071 LINE",
"566 434 LINE"
);
}
);
width = 1200;
},
{
layerId = "1F90C004-9C90-48FA-B407-176B3E9F1E65";
paths = (
{
closed = 1;
nodes = (
"1069 1115 LINE",
"131 1115 LINE",
"600 318 LINE"
);
},
{
closed = 1;
nodes = (
"641 544 LINE",
"352 1035 LINE",
"312 965 LINE",
"888 965 LINE",
"848 1035 LINE",
"559 544 LINE"
);
}
);
width = 1200;
},
{
layerId = "8E053A5E-67DA-4970-A6F5-068DBFE5AD21";
paths = (
{
closed = 1;
nodes = (
"1069 1115 LINE",
"131 1115 LINE",
"600 318 LINE"
);
},
{
closed = 1;
nodes = (
"683 544 LINE",
"394 1035 LINE",
"312 923 LINE",
"888 923 LINE",
"806 1035 LINE",
"517 544 LINE"
);
}
);
width = 1200;
}
);
note = uni25BF;
unicode = 25BF;
}
{
glyphname = downWhiteTriangle;
production = uni25BD;
layers = (
{
layerId = master01;
paths = (
{
closed = 1;
nodes = (
"1200 1190 LINE",
"0 1190 LINE",
"600 170 LINE"
);
},
{
closed = 1;
nodes = (
"604 340 LINE",
"116 1170 LINE",
"119 1110 LINE",
"1089 1110 LINE",
"1081 1164 LINE",
"596 340 LINE"
);
}
);
width = 1200;
},
{
layerId = "1F90C004-9C90-48FA-B407-176B3E9F1E65";
paths = (
{
closed = 1;
nodes = (
"1200 1190 LINE",
"0 1190 LINE",
"600 170 LINE"
);
},
{
closed = 1;
nodes = (
"674 340 LINE",
"186 1170 LINE",
"119 1040 LINE",
"1089 1040 LINE",
"1011 1164 LINE",
"526 340 LINE"
);
}
);
width = 1200;
},
{
layerId = "8E053A5E-67DA-4970-A6F5-068DBFE5AD21";
paths = (
{
closed = 1;
nodes = (
"1200 1190 LINE",
"0 1190 LINE",
"600 170 LINE"
);
},
{
closed = 1;
nodes = (
"702 423 LINE",
"253 1187 LINE",
"144 990 LINE",
"1056 990 LINE",
"944 1181 LINE",
"500 422 LINE"
);
}
);
width = 1200;
}
);
note = uni25BD;
unicode = 25BD;
}
{
glyphname = fisheye;
production = uni25C9;
layers = (
{
components = (
{
name = whiteCircle;
transform = "{1, 0, 0, -1, 0, 1420}";
}
);
layerId = master01;
paths = (
{
closed = 1;
nodes = (
"736 485 OFFCURVE",
"825 574 OFFCURVE",
"825 710 CURVE SMOOTH",
"825 846 OFFCURVE",
"736 935 OFFCURVE",
"600 935 CURVE SMOOTH",
"464 935 OFFCURVE",
"375 846 OFFCURVE",
"375 710 CURVE SMOOTH",
"375 574 OFFCURVE",
"464 485 OFFCURVE",
"600 485 CURVE SMOOTH"
);
}
);
width = 1200;
},
{
components = (
{
name = whiteCircle;
transform = "{1, 0, 0, -1, 0, 1420}";
}
);
layerId = "1F90C004-9C90-48FA-B407-176B3E9F1E65";
paths = (
{
closed = 1;
nodes = (
"736 485 OFFCURVE",
"825 574 OFFCURVE",
"825 710 CURVE SMOOTH",
"825 846 OFFCURVE",
"736 935 OFFCURVE",
"600 935 CURVE SMOOTH",
"464 935 OFFCURVE",
"375 846 OFFCURVE",
"375 710 CURVE SMOOTH",
"375 574 OFFCURVE",
"464 485 OFFCURVE",
"600 485 CURVE SMOOTH"
);
}
);
width = 1200;
},
{
components = (
{
alignment = -1;
name = whiteCircle;
transform = "{1, 0, 0, -1, 0, 1420}";
}
);
layerId = "8E053A5E-67DA-4970-A6F5-068DBFE5AD21";
paths = (
{
closed = 1;
nodes = (
"716 518 OFFCURVE",
"793 594 OFFCURVE",
"793 710 CURVE SMOOTH",
"793 826 OFFCURVE",
"716 903 OFFCURVE",
"600 903 CURVE SMOOTH",
"484 903 OFFCURVE",
"408 826 OFFCURVE",
"408 710 CURVE SMOOTH",
"408 594 OFFCURVE",
"484 518 OFFCURVE",
"600 518 CURVE SMOOTH"
);
}
);
width = 1200;
}
);
note = uni25C9;
unicode = 25C9;
}
{
glyphname = horizontalFillSquare;
production = uni25A4;
layers = (
{
components = (
{
name = whiteSquare;
}
);
layerId = master01;
paths = (
{
closed = 1;
nodes = (
"1051 815 LINE",
"1051 905 LINE",
"149 905 LINE",
"149 815 LINE"
);
},
{
closed = 1;
nodes = (
"1051 515 LINE",
"1051 605 LINE",
"149 605 LINE",
"149 515 LINE"
);
}
);
width = 1200;
},
{
components = (
{
name = whiteSquare;
}
);
layerId = "1F90C004-9C90-48FA-B407-176B3E9F1E65";
paths = (
{
closed = 1;
nodes = (
"1051 785 LINE",
"1051 935 LINE",
"149 935 LINE",
"149 785 LINE"
);
},
{
closed = 1;
nodes = (
"1051 485 LINE",
"1051 635 LINE",
"149 635 LINE",
"149 485 LINE"
);
}
);
width = 1200;
},
{
components = (
{
alignment = -1;
name = whiteSquare;
}
);
layerId = "8E053A5E-67DA-4970-A6F5-068DBFE5AD21";
paths = (
{
closed = 1;
nodes = (
"1051 743 LINE",
"1051 927 LINE",
"149 927 LINE",
"149 743 LINE"
);
},
{
closed = 1;
nodes = (
"1051 493 LINE",
"1051 677 LINE",
"149 677 LINE",
"149 493 LINE"
);
}
);
width = 1200;
}
);
note = uni25A4;
unicode = 25A4;
}
{
glyphname = inverseBullet;
production = invbullet;
layers = (
{
layerId = master01;
paths = (
{
closed = 1;
nodes = (
"1125 185 LINE",
"1125 1235 LINE",
"75 1235 LINE",
"75 185 LINE"
);
},
{
closed = 1;
nodes = (
"422 400 OFFCURVE",
"304 518 OFFCURVE",
"304 696 CURVE SMOOTH",
"304 874 OFFCURVE",
"422 992 OFFCURVE",
"600 992 CURVE SMOOTH",
"778 992 OFFCURVE",
"896 874 OFFCURVE",
"896 696 CURVE SMOOTH",
"896 518 OFFCURVE",
"778 400 OFFCURVE",
"600 400 CURVE SMOOTH"
);
}
);
width = 1200;
},
{
layerId = "1F90C004-9C90-48FA-B407-176B3E9F1E65";
paths = (
{
closed = 1;
nodes = (
"1125 185 LINE",
"1125 1235 LINE",
"75 1235 LINE",
"75 185 LINE"
);
},
{
closed = 1;
nodes = (
"422 400 OFFCURVE",
"304 518 OFFCURVE",
"304 696 CURVE SMOOTH",
"304 874 OFFCURVE",
"422 992 OFFCURVE",
"600 992 CURVE SMOOTH",
"778 992 OFFCURVE",
"896 874 OFFCURVE",
"896 696 CURVE SMOOTH",
"896 518 OFFCURVE",
"778 400 OFFCURVE",
"600 400 CURVE SMOOTH"
);
}
);
width = 1200;
},
{
layerId = "8E053A5E-67DA-4970-A6F5-068DBFE5AD21";
paths = (
{
closed = 1;
nodes = (
"1125 185 LINE",
"1125 1235 LINE",
"75 1235 LINE",
"75 185 LINE"
);
},
{
closed = 1;
nodes = (
"422 400 OFFCURVE",
"304 518 OFFCURVE",
"304 696 CURVE SMOOTH",
"304 874 OFFCURVE",
"422 992 OFFCURVE",
"600 992 CURVE SMOOTH",
"778 992 OFFCURVE",
"896 874 OFFCURVE",
"896 696 CURVE SMOOTH",
"896 518 OFFCURVE",
"778 400 OFFCURVE",
"600 400 CURVE SMOOTH"
);
}
);
width = 1200;
}
);
note = invbullet;
unicode = 25D8;
}
{
glyphname = inverseWhiteCircle;
production = invcircle;
layers = (
{
layerId = master01;
paths = (
{
closed = 1;
nodes = (
"1200 110 LINE",
"1200 1310 LINE",
"0 1310 LINE",
"0 110 LINE"
);
},
{
closed = 1;
nodes = (
"284 185 OFFCURVE",
"75 394 OFFCURVE",
"75 710 CURVE SMOOTH",
"75 1026 OFFCURVE",
"284 1235 OFFCURVE",
"600 1235 CURVE SMOOTH",
"916 1235 OFFCURVE",
"1125 1026 OFFCURVE",
"1125 710 CURVE SMOOTH",
"1125 394 OFFCURVE",
"916 185 OFFCURVE",
"600 185 CURVE SMOOTH"
);
},
{
closed = 1;
nodes = (
"859 277 OFFCURVE",
"1029 449 OFFCURVE",
"1029 710 CURVE SMOOTH",
"1029 971 OFFCURVE",
"859 1143 OFFCURVE",
"600 1143 CURVE SMOOTH",
"341 1143 OFFCURVE",
"171 971 OFFCURVE",
"171 710 CURVE SMOOTH",
"171 449 OFFCURVE",
"341 277 OFFCURVE",
"600 277 CURVE SMOOTH"
);
}
);
width = 1200;
},
{
layerId = "1F90C004-9C90-48FA-B407-176B3E9F1E65";
paths = (
{
closed = 1;
nodes = (
"1200 110 LINE",
"1200 1310 LINE",
"0 1310 LINE",
"0 110 LINE"
);
},
{
closed = 1;
nodes = (
"284 185 OFFCURVE",
"75 394 OFFCURVE",
"75 710 CURVE SMOOTH",
"75 1026 OFFCURVE",
"284 1235 OFFCURVE",
"600 1235 CURVE SMOOTH",
"916 1235 OFFCURVE",
"1125 1026 OFFCURVE",
"1125 710 CURVE SMOOTH",
"1125 394 OFFCURVE",
"916 185 OFFCURVE",
"600 185 CURVE SMOOTH"
);
},
{
closed = 1;
nodes = (
"826 335 OFFCURVE",
"975 484 OFFCURVE",
"975 710 CURVE SMOOTH",
"975 936 OFFCURVE",
"826 1085 OFFCURVE",
"600 1085 CURVE SMOOTH",
"374 1085 OFFCURVE",
"225 936 OFFCURVE",
"225 710 CURVE SMOOTH",
"225 484 OFFCURVE",
"374 335 OFFCURVE",
"600 335 CURVE SMOOTH"
);
}
);
width = 1200;
},
{
layerId = "8E053A5E-67DA-4970-A6F5-068DBFE5AD21";
paths = (
{
closed = 1;
nodes = (
"1200 110 LINE",
"1200 1310 LINE",
"0 1310 LINE",
"0 110 LINE"
);
},
{
closed = 1;
nodes = (
"284 185 OFFCURVE",
"75 394 OFFCURVE",
"75 710 CURVE SMOOTH",
"75 1026 OFFCURVE",
"284 1235 OFFCURVE",
"600 1235 CURVE SMOOTH",
"916 1235 OFFCURVE",
"1125 1026 OFFCURVE",
"1125 710 CURVE SMOOTH",
"1125 394 OFFCURVE",
"916 185 OFFCURVE",
"600 185 CURVE SMOOTH"
);
},
{
closed = 1;
nodes = (
"791 393 OFFCURVE",
"917 519 OFFCURVE",
"917 710 CURVE SMOOTH",
"917 901 OFFCURVE",
"791 1027 OFFCURVE",
"600 1027 CURVE SMOOTH",
"409 1027 OFFCURVE",
"283 901 OFFCURVE",
"283 710 CURVE SMOOTH",
"283 519 OFFCURVE",
"409 393 OFFCURVE",
"600 393 CURVE SMOOTH"
);
}
);
width = 1200;
}
);
note = invcircle;
unicode = 25D9;
}
{
glyphname = largeCircle;
production = uni25EF;
layers = (
{
layerId = master01;
paths = (
{
closed = 1;
nodes = (
"962 110 OFFCURVE",
"1200 348 OFFCURVE",
"1200 710 CURVE SMOOTH",
"1200 1072 OFFCURVE",
"962 1310 OFFCURVE",
"600 1310 CURVE SMOOTH",
"238 1310 OFFCURVE",
"0 1072 OFFCURVE",
"0 710 CURVE SMOOTH",
"0 348 OFFCURVE",
"238 110 OFFCURVE",
"600 110 CURVE SMOOTH"
);
},
{
closed = 1;
nodes = (
"296 202 OFFCURVE",
"96 404 OFFCURVE",
"96 710 CURVE SMOOTH",
"96 1016 OFFCURVE",
"296 1218 OFFCURVE",
"600 1218 CURVE SMOOTH",
"904 1218 OFFCURVE",
"1104 1016 OFFCURVE",
"1104 710 CURVE SMOOTH",
"1104 404 OFFCURVE",
"904 202 OFFCURVE",
"600 202 CURVE SMOOTH"
);
}
);
width = 1200;
},
{
layerId = "1F90C004-9C90-48FA-B407-176B3E9F1E65";
paths = (
{
closed = 1;
nodes = (
"962 110 OFFCURVE",
"1200 348 OFFCURVE",
"1200 710 CURVE SMOOTH",
"1200 1072 OFFCURVE",
"962 1310 OFFCURVE",
"600 1310 CURVE SMOOTH",
"238 1310 OFFCURVE",
"0 1072 OFFCURVE",
"0 710 CURVE SMOOTH",
"0 348 OFFCURVE",
"238 110 OFFCURVE",
"600 110 CURVE SMOOTH"
);
},
{
closed = 1;
nodes = (
"329 260 OFFCURVE",
"150 439 OFFCURVE",
"150 710 CURVE SMOOTH",
"150 981 OFFCURVE",
"329 1160 OFFCURVE",
"600 1160 CURVE SMOOTH",
"871 1160 OFFCURVE",
"1050 981 OFFCURVE",
"1050 710 CURVE SMOOTH",
"1050 439 OFFCURVE",
"871 260 OFFCURVE",
"600 260 CURVE SMOOTH"
);
}
);
width = 1200;
},
{
layerId = "8E053A5E-67DA-4970-A6F5-068DBFE5AD21";
paths = (
{
closed = 1;
nodes = (
"960 110 OFFCURVE",
"1200 350 OFFCURVE",
"1200 710 CURVE SMOOTH",
"1200 1070 OFFCURVE",
"960 1310 OFFCURVE",
"600 1310 CURVE SMOOTH",
"240 1310 OFFCURVE",
"0 1070 OFFCURVE",
"0 710 CURVE SMOOTH",
"0 350 OFFCURVE",
"240 110 OFFCURVE",
"600 110 CURVE SMOOTH"
);
},
{
closed = 1;
nodes = (
"380 343 OFFCURVE",
"233 490 OFFCURVE",
"233 710 CURVE SMOOTH",
"233 930 OFFCURVE",
"380 1077 OFFCURVE",
"600 1077 CURVE SMOOTH",
"820 1077 OFFCURVE",
"967 930 OFFCURVE",
"967 710 CURVE SMOOTH",
"967 490 OFFCURVE",
"820 343 OFFCURVE",
"600 343 CURVE SMOOTH"
);
}
);
width = 1200;
}
);
note = uni25EF;
unicode = 25EF;
}
{
glyphname = leftBlackPointer;
production = triaglf;
layers = (
{
layerId = master01;
paths = (
{
closed = 1;
nodes = (
"1080 1070 LINE",
"60 710 LINE",
"1080 350 LINE"
);
}
);
width = 1200;
},
{
layerId = "1F90C004-9C90-48FA-B407-176B3E9F1E65";
paths = (
{
closed = 1;
nodes = (
"1080 1070 LINE",
"60 710 LINE",
"1080 350 LINE"
);
}
);
width = 1200;
},
{
layerId = "8E053A5E-67DA-4970-A6F5-068DBFE5AD21";
paths = (
{
closed = 1;
nodes = (
"1080 1070 LINE",
"60 710 LINE",
"1080 350 LINE"
);
}
);
width = 1200;
}
);
note = triaglf;
unicode = 25C4;
}
{
glyphname = leftBlackSmallTriangle;
production = uni25C2;
layers = (
{
layerId = master01;
paths = (
{
closed = 1;
nodes = (
"1005 1179 LINE",
"208 710 LINE",
"1005 241 LINE"
);
}
);
width = 1200;
},
{
layerId = "1F90C004-9C90-48FA-B407-176B3E9F1E65";
paths = (
{
closed = 1;
nodes = (
"1005 1179 LINE",
"208 710 LINE",
"1005 241 LINE"
);
}
);
width = 1200;
},
{
layerId = "8E053A5E-67DA-4970-A6F5-068DBFE5AD21";
paths = (
{
closed = 1;
nodes = (
"1005 1179 LINE",
"208 710 LINE",
"1005 241 LINE"
);
}
);
width = 1200;
}
);
note = uni25C2;
unicode = 25C2;
}
{
glyphname = leftBlackTriangle;
production = uni25C0;
layers = (
{
layerId = master01;
paths = (
{
closed = 1;
nodes = (
"1080 1310 LINE",
"60 710 LINE",
"1080 110 LINE"
);
}
);
width = 1200;
},
{
layerId = "1F90C004-9C90-48FA-B407-176B3E9F1E65";
paths = (
{
closed = 1;
nodes = (
"1080 1310 LINE",
"60 710 LINE",
"1080 110 LINE"
);
}
);
width = 1200;
},
{
layerId = "8E053A5E-67DA-4970-A6F5-068DBFE5AD21";
paths = (
{
closed = 1;
nodes = (
"1080 1310 LINE",
"60 710 LINE",
"1080 110 LINE"
);
}
);
width = 1200;
}
);
note = uni25C0;
unicode = 25C0;
}
{
glyphname = leftHalfBlackCircle;
production = uni25D6;
layers = (
{
layerId = master01;
paths = (
{
closed = 1;
nodes = (
"600 1235 LINE",
"284 1235 OFFCURVE",
"75 1026 OFFCURVE",
"75 710 CURVE SMOOTH",
"75 394 OFFCURVE",
"284 185 OFFCURVE",
"600 185 CURVE"
);
}
);
width = 1200;
},
{
layerId = "1F90C004-9C90-48FA-B407-176B3E9F1E65";
paths = (
{
closed = 1;
nodes = (
"600 1235 LINE",
"284 1235 OFFCURVE",
"75 1026 OFFCURVE",
"75 710 CURVE SMOOTH",
"75 394 OFFCURVE",
"284 185 OFFCURVE",
"600 185 CURVE"
);
}
);
width = 1200;
},
{
layerId = "8E053A5E-67DA-4970-A6F5-068DBFE5AD21";
paths = (
{
closed = 1;
nodes = (
"600 1235 LINE",
"284 1235 OFFCURVE",
"75 1026 OFFCURVE",
"75 710 CURVE SMOOTH",
"75 394 OFFCURVE",
"284 185 OFFCURVE",
"600 185 CURVE"
);
}
);
width = 1200;
}
);
note = uni25D6;
unicode = 25D6;
}
{
glyphname = leftHalfBlackSquare;
production = uni25E7;
layers = (
{
components = (
{
name = whiteSquare;
}
);
layerId = master01;
paths = (
{
closed = 1;
nodes = (
"600 1185 LINE",
"115 1185 LINE",
"115 235 LINE",
"600 235 LINE"
);
}
);
width = 1200;
},
{
components = (
{
name = whiteSquare;
}
);
layerId = "1F90C004-9C90-48FA-B407-176B3E9F1E65";
paths = (
{
closed = 1;
nodes = (
"600 1185 LINE",
"115 1185 LINE",
"115 235 LINE",
"600 235 LINE"
);
}
);
width = 1200;
},
{
components = (
{
alignment = -1;
name = whiteSquare;
}
);
layerId = "8E053A5E-67DA-4970-A6F5-068DBFE5AD21";
paths = (
{
closed = 1;
nodes = (
"600 1185 LINE",
"115 1185 LINE",
"115 235 LINE",
"600 235 LINE"
);
}
);
width = 1200;
}
);
note = uni25E7;
unicode = 25E7;
}
{
glyphname = leftHalfBlackWhiteCircle;
production = uni25D0;
layers = (
{
components = (
{
name = whiteCircle;
}
);
layerId = master01;
paths = (
{
closed = 1;
nodes = (
"600 1175 LINE",
"259 1094 LINE",
"112 704 LINE",
"259 351 LINE",
"600 245 LINE"
);
}
);
width = 1200;
},
{
components = (
{
name = whiteCircle;
}
);
layerId = "1F90C004-9C90-48FA-B407-176B3E9F1E65";
paths = (
{
closed = 1;
nodes = (
"600 1114 LINE",
"302 1114 LINE",
"142 704 LINE",
"349 291 LINE",
"600 261 LINE"
);
}
);
width = 1200;
},
{
components = (
{
alignment = -1;
name = whiteCircle;
}
);
layerId = "8E053A5E-67DA-4970-A6F5-068DBFE5AD21";
paths = (
{
closed = 1;
nodes = (
"600 1114 LINE",
"302 1114 LINE",
"142 704 LINE",
"349 291 LINE",
"600 261 LINE"
);
}
);
width = 1200;
}
);
note = uni25D0;
unicode = 25D0;
}
{
glyphname = leftWhitePointer;
production = uni25C5;
layers = (
{
layerId = master01;
paths = (
{
closed = 1;
nodes = (
"1080 1070 LINE",
"60 710 LINE",
"1080 350 LINE"
);
},
{
closed = 1;
nodes = (
"1008 484 LINE",
"296 719 LINE",
"296 701 LINE",
"1008 936 LINE",
"990 959 LINE",
"990 461 LINE"
);
}
);
width = 1200;
},
{
layerId = "1F90C004-9C90-48FA-B407-176B3E9F1E65";
paths = (
{
closed = 1;
nodes = (
"1080 1070 LINE",
"60 710 LINE",
"1080 350 LINE"
);
},
{
closed = 1;
nodes = (
"1008 529 LINE",
"306 758 LINE",
"306 662 LINE",
"1008 891 LINE",
"930 959 LINE",
"930 461 LINE"
);
}
);
width = 1200;
},
{
layerId = "8E053A5E-67DA-4970-A6F5-068DBFE5AD21";
paths = (
{
closed = 1;
nodes = (
"1080 1070 LINE",
"60 710 LINE",
"1080 350 LINE"
);
},
{
closed = 1;
nodes = (
"1008 571 LINE",
"345 787 LINE",
"345 633 LINE",
"1008 849 LINE",
"880 942 LINE",
"880 478 LINE"
);
}
);
width = 1200;
}
);
note = uni25C5;
unicode = 25C5;
}
{
glyphname = leftWhiteSmallTriangle;
production = uni25C3;
layers = (
{
layerId = master01;
paths = (
{
closed = 1;
nodes = (
"1005 1179 LINE",
"208 710 LINE",
"1005 241 LINE"
);
},
{
closed = 1;
nodes = (
"961 371 LINE",
"324 744 LINE",
"324 673 LINE",
"952 1044 LINE",
"915 1048 LINE",
"915 365 LINE"
);
}
);
width = 1200;
},
{
layerId = "1F90C004-9C90-48FA-B407-176B3E9F1E65";
paths = (
{
closed = 1;
nodes = (
"1005 1179 LINE",
"208 710 LINE",
"1005 241 LINE"
);
},
{
closed = 1;
nodes = (
"925 462 LINE",
"434 751 LINE",
"434 669 LINE",
"925 958 LINE",
"855 998 LINE",
"855 422 LINE"
);
}
);
width = 1200;
},
{
layerId = "8E053A5E-67DA-4970-A6F5-068DBFE5AD21";
paths = (
{
closed = 1;
nodes = (
"1005 1179 LINE",
"208 710 LINE",
"1005 241 LINE"
);
},
{
closed = 1;
nodes = (
"925 504 LINE",
"434 793 LINE",
"434 627 LINE",
"925 916 LINE",
"813 998 LINE",
"813 422 LINE"
);
}
);
width = 1200;
}
);
note = uni25C3;
unicode = 25C3;
}
{
glyphname = leftWhiteTriangle;
production = uni25C1;
layers = (
{
layerId = master01;
paths = (
{
closed = 1;
nodes = (
"1080 1310 LINE",
"60 710 LINE",
"1080 110 LINE"
);
},
{
closed = 1;
nodes = (
"1054 228 LINE",
"230 713 LINE",
"230 705 LINE",
"1060 1193 LINE",
"1000 1190 LINE",
"1000 220 LINE"
);
}
);
width = 1200;
},
{
layerId = "1F90C004-9C90-48FA-B407-176B3E9F1E65";
paths = (
{
closed = 1;
nodes = (
"1080 1310 LINE",
"60 710 LINE",
"1080 110 LINE"
);
},
{
closed = 1;
nodes = (
"1054 299 LINE",
"230 784 LINE",
"230 636 LINE",
"1060 1124 LINE",
"930 1191 LINE",
"930 221 LINE"
);
}
);
width = 1200;
},
{
layerId = "8E053A5E-67DA-4970-A6F5-068DBFE5AD21";
paths = (
{
closed = 1;
nodes = (
"1080 1310 LINE",
"60 710 LINE",
"1080 110 LINE"
);
},
{
closed = 1;
nodes = (
"1076 363 LINE",
"313 812 LINE",
"312 610 LINE",
"1072 1055 LINE",
"880 1164 LINE",
"880 253 LINE"
);
}
);
width = 1200;
}
);
note = uni25C1;
unicode = 25C1;
}
{
glyphname = lowerHalfBlackWhiteCircle;
production = uni25D2;
layers = (
{
components = (
{
name = whiteCircle;
}
);
layerId = master01;
paths = (
{
closed = 1;
nodes = (
"984 369 LINE",
"1065 710 LINE",
"135 710 LINE",
"241 369 LINE",
"594 222 LINE"
);
}
);
width = 1200;
},
{
components = (
{
alignment = -1;
name = whiteCircle;
}
);
layerId = "1F90C004-9C90-48FA-B407-176B3E9F1E65";
paths = (
{
closed = 1;
nodes = (
"1015 412 LINE",
"1015 710 LINE",
"181 710 LINE",
"181 459 LINE",
"594 252 LINE"
);
}
);
width = 1200;
},
{
components = (
{
alignment = -1;
name = whiteCircle;
}
);
layerId = "8E053A5E-67DA-4970-A6F5-068DBFE5AD21";
paths = (
{
closed = 1;
nodes = (
"1015 412 LINE",
"1015 710 LINE",
"181 710 LINE",
"181 459 LINE",
"594 252 LINE"
);
}
);
width = 1200;
}
);
note = uni25D2;
unicode = 25D2;
}
{
glyphname = lowerHalfInverseWhiteCircle;
production = uni25DB;
layers = (
{
layerId = master01;
paths = (
{
closed = 1;
nodes = (
"1200 110 LINE",
"1200 710 LINE",
"1125 710 LINE",
"1125 394 OFFCURVE",
"916 185 OFFCURVE",
"600 185 CURVE SMOOTH",
"284 185 OFFCURVE",
"75 394 OFFCURVE",
"75 710 CURVE",
"0 710 LINE",
"0 110 LINE"
);
},
{
closed = 1;
nodes = (
"859 277 OFFCURVE",
"1029 449 OFFCURVE",
"1029 710 CURVE",
"171 710 LINE",
"171 449 OFFCURVE",
"341 277 OFFCURVE",
"600 277 CURVE SMOOTH"
);
}
);
width = 1200;
},
{
layerId = "1F90C004-9C90-48FA-B407-176B3E9F1E65";
paths = (
{
closed = 1;
nodes = (
"1200 110 LINE",
"1200 710 LINE",
"1125 710 LINE",
"1125 394 OFFCURVE",
"916 185 OFFCURVE",
"600 185 CURVE SMOOTH",
"284 185 OFFCURVE",
"75 394 OFFCURVE",
"75 710 CURVE",
"0 710 LINE",
"0 110 LINE"
);
},
{
closed = 1;
nodes = (
"826 335 OFFCURVE",
"975 484 OFFCURVE",
"975 710 CURVE",
"225 710 LINE",
"225 484 OFFCURVE",
"374 335 OFFCURVE",
"600 335 CURVE SMOOTH"
);
}
);
width = 1200;
},
{
layerId = "8E053A5E-67DA-4970-A6F5-068DBFE5AD21";
paths = (
{
closed = 1;
nodes = (
"1200 110 LINE",
"1200 710 LINE",
"1125 710 LINE",
"1125 394 OFFCURVE",
"916 185 OFFCURVE",
"600 185 CURVE SMOOTH",
"284 185 OFFCURVE",
"75 394 OFFCURVE",
"75 710 CURVE",
"0 710 LINE",
"0 110 LINE"
);
},
{
closed = 1;
nodes = (
"791 393 OFFCURVE",
"917 519 OFFCURVE",
"917 710 CURVE",
"283 710 LINE",
"283 519 OFFCURVE",
"409 393 OFFCURVE",
"600 393 CURVE SMOOTH"
);
}
);
width = 1200;
}
);
note = uni25DB;
unicode = 25DB;
}
{
glyphname = lowerLeftArc;
production = uni25DF;
layers = (
{
layerId = master01;
paths = (
{
closed = 1;
nodes = (
"600 277 LINE",
"341 277 OFFCURVE",
"171 449 OFFCURVE",
"171 710 CURVE",
"75 710 LINE",
"75 394 OFFCURVE",
"284 185 OFFCURVE",
"600 185 CURVE"
);
}
);
width = 1200;
},
{
layerId = "1F90C004-9C90-48FA-B407-176B3E9F1E65";
paths = (
{
closed = 1;
nodes = (
"600 335 LINE",
"374 335 OFFCURVE",
"225 484 OFFCURVE",
"225 710 CURVE",
"75 710 LINE",
"75 394 OFFCURVE",
"284 185 OFFCURVE",
"600 185 CURVE"
);
}
);
width = 1200;
},
{
layerId = "8E053A5E-67DA-4970-A6F5-068DBFE5AD21";
paths = (
{
closed = 1;
nodes = (
"600 393 LINE",
"409 393 OFFCURVE",
"283 519 OFFCURVE",
"283 710 CURVE",
"75 710 LINE",
"75 394 OFFCURVE",
"284 185 OFFCURVE",
"600 185 CURVE"
);
}
);
width = 1200;
}
);
note = uni25DF;
unicode = 25DF;
}
{
glyphname = lowerLeftQuadrantWhiteCircle;
production = uni25F5;
layers = (
{
components = (
{
name = whiteCircle;
}
);
layerId = master01;
paths = (
{
closed = 1;
nodes = (
"645 263 LINE",
"645 757 LINE",
"142 757 LINE",
"142 663 LINE",
"555 663 LINE",
"555 263 LINE"
);
}
);
width = 1200;
},
{
components = (
{
name = whiteCircle;
}
);
layerId = "1F90C004-9C90-48FA-B407-176B3E9F1E65";
paths = (
{
closed = 1;
nodes = (
"675 263 LINE",
"675 785 LINE",
"162 785 LINE",
"162 635 LINE",
"525 635 LINE",
"525 263 LINE"
);
}
);
width = 1200;
},
{
components = (
{
name = whiteCircle;
}
);
layerId = "8E053A5E-67DA-4970-A6F5-068DBFE5AD21";
paths = (
{
closed = 1;
nodes = (
"692 263 LINE",
"692 802 LINE",
"162 802 LINE",
"162 618 LINE",
"508 618 LINE",
"508 263 LINE"
);
}
);
width = 1200;
}
);
note = uni25F5;
unicode = 25F5;
}
{
glyphname = lowerLeftTriangle;
production = uni25FA;
layers = (
{
layerId = master01;
paths = (
{
closed = 1;
nodes = (
"75 185 LINE",
"1125 185 LINE",
"75 1235 LINE"
);
},
{
closed = 1;
nodes = (
"974 204 LINE",
"974 275 LINE",
"94 275 LINE",
"169 204 LINE",
"169 1094 LINE",
"86 1092 LINE"
);
}
);
width = 1200;
},
{
layerId = "1F90C004-9C90-48FA-B407-176B3E9F1E65";
paths = (
{
closed = 1;
nodes = (
"75 185 LINE",
"1125 185 LINE",
"75 1235 LINE"
);
},
{
closed = 1;
nodes = (
"820 278 LINE",
"844 335 LINE",
"144 335 LINE",
"225 254 LINE",
"225 954 LINE",
"168 930 LINE"
);
}
);
width = 1200;
},
{
layerId = "8E053A5E-67DA-4970-A6F5-068DBFE5AD21";
paths = (
{
closed = 1;
nodes = (
"75 185 LINE",
"1125 185 LINE",
"75 1235 LINE"
);
},
{
closed = 1;
nodes = (
"753 261 LINE",
"844 402 LINE",
"144 402 LINE",
"292 254 LINE",
"292 954 LINE",
"101 913 LINE"
);
}
);
width = 1200;
}
);
note = uni25FA;
unicode = 25FA;
}
{
glyphname = lowerRightArc;
production = uni25DE;
layers = (
{
layerId = master01;
paths = (
{
closed = 1;
nodes = (
"916 185 OFFCURVE",
"1125 394 OFFCURVE",
"1125 710 CURVE",
"1029 710 LINE",
"1029 449 OFFCURVE",
"859 277 OFFCURVE",
"600 277 CURVE",
"600 185 LINE"
);
}
);
width = 1200;
},
{
layerId = "1F90C004-9C90-48FA-B407-176B3E9F1E65";
paths = (
{
closed = 1;
nodes = (
"916 185 OFFCURVE",
"1125 394 OFFCURVE",
"1125 710 CURVE",
"975 710 LINE",
"975 484 OFFCURVE",
"826 335 OFFCURVE",
"600 335 CURVE",
"600 185 LINE"
);
}
);
width = 1200;
},
{
layerId = "8E053A5E-67DA-4970-A6F5-068DBFE5AD21";
paths = (
{
closed = 1;
nodes = (
"916 185 OFFCURVE",
"1125 394 OFFCURVE",
"1125 710 CURVE",
"917 710 LINE",
"917 519 OFFCURVE",
"791 393 OFFCURVE",
"600 393 CURVE",
"600 185 LINE"
);
}
);
width = 1200;
}
);
note = uni25DE;
unicode = 25DE;
}
{
glyphname = lowerRightBlackTriangle;
production = uni25E2;
layers = (
{
layerId = master01;
paths = (
{
closed = 1;
nodes = (
"1125 185 LINE",
"1125 1235 LINE",
"75 185 LINE"
);
}
);
width = 1200;
},
{
layerId = "1F90C004-9C90-48FA-B407-176B3E9F1E65";
paths = (
{
closed = 1;
nodes = (
"1125 185 LINE",
"1125 1235 LINE",
"75 185 LINE"
);
}
);
width = 1200;
},
{
layerId = "8E053A5E-67DA-4970-A6F5-068DBFE5AD21";
paths = (
{
closed = 1;
nodes = (
"1125 185 LINE",
"1125 1235 LINE",
"75 185 LINE"
);
}
);
width = 1200;
}
);
note = uni25E2;
unicode = 25E2;
}
{
glyphname = lowerRightDiagonalHalfBlackSquare;
production = uni25EA;
layers = (
{
components = (
{
name = whiteSquare;
}
);
layerId = master01;
paths = (
{
closed = 1;
nodes = (
"111 220 LINE",
"1099 220 LINE",
"1099 1199 LINE"
);
}
);
width = 1200;
},
{
components = (
{
name = whiteSquare;
}
);
layerId = "1F90C004-9C90-48FA-B407-176B3E9F1E65";
paths = (
{
closed = 1;
nodes = (
"111 220 LINE",
"1099 220 LINE",
"1099 1199 LINE"
);
}
);
width = 1200;
},
{
components = (
{
name = whiteSquare;
}
);
layerId = "8E053A5E-67DA-4970-A6F5-068DBFE5AD21";
paths = (
{
closed = 1;
nodes = (
"111 220 LINE",
"1099 220 LINE",
"1099 1199 LINE"
);
}
);
width = 1200;
}
);
note = uni25EA;
unicode = 25EA;
}
{
glyphname = lowerRightQuadrantWhiteCircle;
production = uni25F6;
layers = (
{
components = (
{
name = whiteCircle;
}
);
layerId = master01;
paths = (
{
closed = 1;
nodes = (
"645 263 LINE",
"645 663 LINE",
"1058 663 LINE",
"1058 757 LINE",
"555 757 LINE",
"555 263 LINE"
);
}
);
width = 1200;
},
{
components = (
{
name = whiteCircle;
}
);
layerId = "1F90C004-9C90-48FA-B407-176B3E9F1E65";
paths = (
{
closed = 1;
nodes = (
"675 263 LINE",
"675 635 LINE",
"1058 635 LINE",
"1058 785 LINE",
"525 785 LINE",
"525 263 LINE"
);
}
);
width = 1200;
},
{
components = (
{
alignment = -1;
name = whiteCircle;
}
);
layerId = "8E053A5E-67DA-4970-A6F5-068DBFE5AD21";
paths = (
{
closed = 1;
nodes = (
"692 263 LINE",
"692 618 LINE",
"1058 618 LINE",
"1058 802 LINE",
"508 802 LINE",
"508 263 LINE"
);
}
);
width = 1200;
}
);
note = uni25F6;
unicode = 25F6;
}
{
glyphname = lowerRightTriangle;
production = uni25FF;
layers = (
{
layerId = master01;
paths = (
{
closed = 1;
nodes = (
"75 185 LINE",
"1125 185 LINE",
"1125 1235 LINE"
);
},
{
closed = 1;
nodes = (
"1031 1094 LINE",
"1031 204 LINE",
"1106 275 LINE",
"226 275 LINE",
"226 204 LINE",
"1114 1092 LINE"
);
}
);
width = 1200;
},
{
layerId = "1F90C004-9C90-48FA-B407-176B3E9F1E65";
paths = (
{
closed = 1;
nodes = (
"75 185 LINE",
"1125 185 LINE",
"1125 1235 LINE"
);
},
{
closed = 1;
nodes = (
"975 954 LINE",
"975 254 LINE",
"1056 335 LINE",
"356 335 LINE",
"380 278 LINE",
"1032 930 LINE"
);
}
);
width = 1200;
},
{
layerId = "8E053A5E-67DA-4970-A6F5-068DBFE5AD21";
paths = (
{
closed = 1;
nodes = (
"75 185 LINE",
"1125 185 LINE",
"1125 1235 LINE"
);
},
{
closed = 1;
nodes = (
"908 954 LINE",
"908 254 LINE",
"1056 402 LINE",
"356 402 LINE",
"447 261 LINE",
"1099 913 LINE"
);
}
);
width = 1200;
}
);
note = uni25FF;
unicode = 25FF;
}
{
glyphname = lozenge;
layers = (
{
layerId = master01;
paths = (
{
closed = 1;
nodes = (
"661 0 LINE",
"1120 710 LINE",
"661 1420 LINE",
"529 1420 LINE",
"80 710 LINE",
"529 0 LINE"
);
},
{
closed = 1;
nodes = (
"192 710 LINE",
"595 1368 LINE",
"1008 710 LINE",
"595 52 LINE"
);
}
);
width = 1200;
},
{
layerId = "1F90C004-9C90-48FA-B407-176B3E9F1E65";
paths = (
{
closed = 1;
nodes = (
"711 0 LINE",
"1120 710 LINE",
"711 1420 LINE",
"479 1420 LINE",
"80 710 LINE",
"479 0 LINE"
);
},
{
closed = 1;
nodes = (
"295 710 LINE",
"595 1248 LINE",
"905 710 LINE",
"595 172 LINE"
);
}
);
width = 1200;
},
{
layerId = "8E053A5E-67DA-4970-A6F5-068DBFE5AD21";
paths = (
{
closed = 1;
nodes = (
"736 0 LINE",
"1120 710 LINE",
"736 1420 LINE",
"454 1420 LINE",
"80 710 LINE",
"454 0 LINE"
);
},
{
closed = 1;
nodes = (
"353 710 LINE",
"595 1190 LINE",
"847 710 LINE",
"595 230 LINE"
);
}
);
width = 1200;
}
);
unicode = 25CA;
}
{
glyphname = mediumBlackSmallSquare;
production = uni25FE;
layers = (
{
layerId = master01;
paths = (
{
closed = 1;
nodes = (
"975 335 LINE",
"975 1085 LINE",
"225 1085 LINE",
"225 335 LINE"
);
}
);
width = 1200;
},
{
layerId = "1F90C004-9C90-48FA-B407-176B3E9F1E65";
paths = (
{
closed = 1;
nodes = (
"975 335 LINE",
"975 1085 LINE",
"225 1085 LINE",
"225 335 LINE"
);
}
);
width = 1200;
},
{
layerId = "8E053A5E-67DA-4970-A6F5-068DBFE5AD21";
paths = (
{
closed = 1;
nodes = (
"975 335 LINE",
"975 1085 LINE",
"225 1085 LINE",
"225 335 LINE"
);
}
);
width = 1200;
}
);
note = uni25FE;
unicode = 25FE;
}
{
glyphname = mediumBlackSquare;
production = uni25FC;
layers = (
{
layerId = master01;
paths = (
{
closed = 1;
nodes = (
"1050 260 LINE",
"1050 1160 LINE",
"150 1160 LINE",
"150 260 LINE"
);
}
);
width = 1200;
},
{
layerId = "1F90C004-9C90-48FA-B407-176B3E9F1E65";
paths = (
{
closed = 1;
nodes = (
"1050 260 LINE",
"1050 1160 LINE",
"150 1160 LINE",
"150 260 LINE"
);
}
);
width = 1200;
},
{
layerId = "8E053A5E-67DA-4970-A6F5-068DBFE5AD21";
paths = (
{
closed = 1;
nodes = (
"1050 260 LINE",
"1050 1160 LINE",
"150 1160 LINE",
"150 260 LINE"
);
}
);
width = 1200;
}
);
note = uni25FC;
unicode = 25FC;
}
{
glyphname = mediumWhiteSmallSquare;
production = uni25FD;
layers = (
{
layerId = master01;
paths = (
{
closed = 1;
nodes = (
"975 335 LINE",
"975 1085 LINE",
"225 1085 LINE",
"225 335 LINE"
);
},
{
closed = 1;
nodes = (
"319 995 LINE",
"881 995 LINE",
"881 425 LINE",
"319 425 LINE"
);
}
);
width = 1200;
},
{
layerId = "1F90C004-9C90-48FA-B407-176B3E9F1E65";
paths = (
{
closed = 1;
nodes = (
"975 335 LINE",
"975 1085 LINE",
"225 1085 LINE",
"225 335 LINE"
);
},
{
closed = 1;
nodes = (
"375 935 LINE",
"825 935 LINE",
"825 485 LINE",
"375 485 LINE"
);
}
);
width = 1200;
},
{
layerId = "8E053A5E-67DA-4970-A6F5-068DBFE5AD21";
paths = (
{
closed = 1;
nodes = (
"975 335 LINE",
"975 1085 LINE",
"225 1085 LINE",
"225 335 LINE"
);
},
{
closed = 1;
nodes = (
"375 935 LINE",
"825 935 LINE",
"825 485 LINE",
"375 485 LINE"
);
}
);
width = 1200;
}
);
note = uni25FD;
unicode = 25FD;
}
{
glyphname = mediumWhiteSquare;
production = uni25FB;
layers = (
{
layerId = master01;
paths = (
{
closed = 1;
nodes = (
"1050 260 LINE",
"1050 1160 LINE",
"150 1160 LINE",
"150 260 LINE"
);
},
{
closed = 1;
nodes = (
"244 1070 LINE",
"956 1070 LINE",
"956 350 LINE",
"244 350 LINE"
);
}
);
width = 1200;
},
{
layerId = "1F90C004-9C90-48FA-B407-176B3E9F1E65";
paths = (
{
closed = 1;
nodes = (
"1050 260 LINE",
"1050 1160 LINE",
"150 1160 LINE",
"150 260 LINE"
);
},
{
closed = 1;
nodes = (
"300 1010 LINE",
"900 1010 LINE",
"900 410 LINE",
"300 410 LINE"
);
}
);
width = 1200;
},
{
layerId = "8E053A5E-67DA-4970-A6F5-068DBFE5AD21";
paths = (
{
closed = 1;
nodes = (
"1050 260 LINE",
"1050 1160 LINE",
"150 1160 LINE",
"150 260 LINE"
);
},
{
closed = 1;
nodes = (
"333 977 LINE",
"867 977 LINE",
"867 443 LINE",
"333 443 LINE"
);
}
);
width = 1200;
}
);
note = uni25FB;
unicode = 25FB;
}
{
glyphname = rightBlackPointer;
production = triagrt;
layers = (
{
layerId = master01;
paths = (
{
closed = 1;
nodes = (
"1140 710 LINE",
"120 1070 LINE",
"120 350 LINE"
);
}
);
width = 1200;
},
{
layerId = "1F90C004-9C90-48FA-B407-176B3E9F1E65";
paths = (
{
closed = 1;
nodes = (
"1140 710 LINE",
"120 1070 LINE",
"120 350 LINE"
);
}
);
width = 1200;
},
{
layerId = "8E053A5E-67DA-4970-A6F5-068DBFE5AD21";
paths = (
{
closed = 1;
nodes = (
"1140 710 LINE",
"120 1070 LINE",
"120 350 LINE"
);
}
);
width = 1200;
}
);
note = triagrt;
unicode = 25BA;
}
{
glyphname = rightBlackSmallTriangle;
production = uni25B8;
layers = (
{
layerId = master01;
paths = (
{
closed = 1;
nodes = (
"992 710 LINE",
"195 1179 LINE",
"195 241 LINE"
);
}
);
width = 1200;
},
{
layerId = "1F90C004-9C90-48FA-B407-176B3E9F1E65";
paths = (
{
closed = 1;
nodes = (
"992 710 LINE",
"195 1179 LINE",
"195 241 LINE"
);
}
);
width = 1200;
},
{
layerId = "8E053A5E-67DA-4970-A6F5-068DBFE5AD21";
paths = (
{
closed = 1;
nodes = (
"992 710 LINE",
"195 1179 LINE",
"195 241 LINE"
);
}
);
width = 1200;
}
);
note = uni25B8;
unicode = 25B8;
}
{
glyphname = rightBlackTriangle;
production = uni25B6;
layers = (
{
layerId = master01;
paths = (
{
closed = 1;
nodes = (
"1140 710 LINE",
"120 1310 LINE",
"120 110 LINE"
);
}
);
width = 1200;
},
{
layerId = "1F90C004-9C90-48FA-B407-176B3E9F1E65";
paths = (
{
closed = 1;
nodes = (
"1140 710 LINE",
"120 1310 LINE",
"120 110 LINE"
);
}
);
width = 1200;
},
{
layerId = "8E053A5E-67DA-4970-A6F5-068DBFE5AD21";
paths = (
{
closed = 1;
nodes = (
"1140 710 LINE",
"120 1310 LINE",
"120 110 LINE"
);
}
);
width = 1200;
}
);
note = uni25B6;
unicode = 25B6;
}
{
glyphname = rightHalfBlackCircle;
production = uni25D7;
layers = (
{
layerId = master01;
paths = (
{
closed = 1;
nodes = (
"916 185 OFFCURVE",
"1125 394 OFFCURVE",
"1125 710 CURVE SMOOTH",
"1125 1026 OFFCURVE",
"916 1235 OFFCURVE",
"600 1235 CURVE",
"600 185 LINE"
);
}
);
width = 1200;
},
{
layerId = "1F90C004-9C90-48FA-B407-176B3E9F1E65";
paths = (
{
closed = 1;
nodes = (
"916 185 OFFCURVE",
"1125 394 OFFCURVE",
"1125 710 CURVE SMOOTH",
"1125 1026 OFFCURVE",
"916 1235 OFFCURVE",
"600 1235 CURVE",
"600 185 LINE"
);
}
);
width = 1200;
},
{
layerId = "8E053A5E-67DA-4970-A6F5-068DBFE5AD21";
paths = (
{
closed = 1;
nodes = (
"915 185 OFFCURVE",
"1125 395 OFFCURVE",
"1125 710 CURVE SMOOTH",
"1125 1025 OFFCURVE",
"915 1235 OFFCURVE",
"600 1235 CURVE",
"600 185 LINE"
);
}
);
width = 1200;
}
);
note = uni25D7;
unicode = 25D7;
}
{
glyphname = rightHalfBlackWhiteCircle;
production = uni25D1;
layers = (
{
components = (
{
name = whiteCircle;
}
);
layerId = master01;
paths = (
{
closed = 1;
nodes = (
"941 351 LINE",
"1088 704 LINE",
"941 1094 LINE",
"600 1175 LINE",
"600 245 LINE"
);
}
);
width = 1200;
},
{
components = (
{
name = whiteCircle;
}
);
layerId = "1F90C004-9C90-48FA-B407-176B3E9F1E65";
paths = (
{
closed = 1;
nodes = (
"851 291 LINE",
"1058 704 LINE",
"898 1125 LINE",
"600 1125 LINE",
"600 291 LINE"
);
}
);
width = 1200;
},
{
components = (
{
name = whiteCircle;
}
);
layerId = "8E053A5E-67DA-4970-A6F5-068DBFE5AD21";
paths = (
{
closed = 1;
nodes = (
"851 291 LINE",
"1058 704 LINE",
"898 1125 LINE",
"600 1125 LINE",
"600 291 LINE"
);
}
);
width = 1200;
}
);
note = uni25D1;
unicode = 25D1;
}
{
glyphname = rightWhitePointer;
production = uni25BB;
layers = (
{
layerId = master01;
paths = (
{
closed = 1;
nodes = (
"1140 710 LINE",
"120 1070 LINE",
"120 350 LINE"
);
},
{
closed = 1;
nodes = (
"210 959 LINE",
"192 936 LINE",
"904 701 LINE",
"904 719 LINE",
"192 484 LINE",
"210 461 LINE"
);
}
);
width = 1200;
},
{
layerId = "1F90C004-9C90-48FA-B407-176B3E9F1E65";
paths = (
{
closed = 1;
nodes = (
"1140 710 LINE",
"120 1070 LINE",
"120 350 LINE"
);
},
{
closed = 1;
nodes = (
"270 939 LINE",
"192 891 LINE",
"847 677 LINE",
"847 743 LINE",
"192 529 LINE",
"270 481 LINE"
);
}
);
width = 1200;
},
{
layerId = "8E053A5E-67DA-4970-A6F5-068DBFE5AD21";
paths = (
{
closed = 1;
nodes = (
"1140 710 LINE",
"120 1070 LINE",
"120 350 LINE"
);
},
{
closed = 1;
nodes = (
"320 939 LINE",
"192 849 LINE",
"847 635 LINE",
"847 785 LINE",
"192 571 LINE",
"320 481 LINE"
);
}
);
width = 1200;
}
);
note = uni25BB;
unicode = 25BB;
}
{
glyphname = rightWhiteSmallTriangle;
production = uni25B9;
layers = (
{
layerId = master01;
paths = (
{
closed = 1;
nodes = (
"992 710 LINE",
"195 1179 LINE",
"195 241 LINE"
);
},
{
closed = 1;
nodes = (
"285 1048 LINE",
"248 1044 LINE",
"876 673 LINE",
"876 744 LINE",
"239 371 LINE",
"285 365 LINE"
);
}
);
width = 1200;
},
{
layerId = "1F90C004-9C90-48FA-B407-176B3E9F1E65";
paths = (
{
closed = 1;
nodes = (
"992 710 LINE",
"195 1179 LINE",
"195 241 LINE"
);
},
{
closed = 1;
nodes = (
"345 998 LINE",
"275 958 LINE",
"766 669 LINE",
"766 751 LINE",
"275 462 LINE",
"345 422 LINE"
);
}
);
width = 1200;
},
{
layerId = "8E053A5E-67DA-4970-A6F5-068DBFE5AD21";
paths = (
{
closed = 1;
nodes = (
"992 710 LINE",
"195 1179 LINE",
"195 241 LINE"
);
},
{
closed = 1;
nodes = (
"387 998 LINE",
"275 916 LINE",
"766 627 LINE",
"766 793 LINE",
"275 504 LINE",
"387 422 LINE"
);
}
);
width = 1200;
}
);
note = uni25B9;
unicode = 25B9;
}
{
glyphname = rightWhiteTriangle;
production = uni25B7;
layers = (
{
layerId = master01;
paths = (
{
closed = 1;
nodes = (
"1140 710 LINE",
"120 1310 LINE",
"120 110 LINE"
);
},
{
closed = 1;
nodes = (
"200 1190 LINE",
"140 1193 LINE",
"970 705 LINE",
"970 713 LINE",
"146 228 LINE",
"200 220 LINE"
);
}
);
width = 1200;
},
{
layerId = "1F90C004-9C90-48FA-B407-176B3E9F1E65";
paths = (
{
closed = 1;
nodes = (
"1140 710 LINE",
"120 1310 LINE",
"120 110 LINE"
);
},
{
closed = 1;
nodes = (
"270 1191 LINE",
"140 1124 LINE",
"970 636 LINE",
"970 784 LINE",
"146 299 LINE",
"270 221 LINE"
);
}
);
width = 1200;
},
{
layerId = "8E053A5E-67DA-4970-A6F5-068DBFE5AD21";
paths = (
{
closed = 1;
nodes = (
"1140 710 LINE",
"120 1310 LINE",
"120 110 LINE"
);
},
{
closed = 1;
nodes = (
"320 1164 LINE",
"128 1055 LINE",
"888 610 LINE",
"887 812 LINE",
"124 363 LINE",
"320 253 LINE"
);
}
);
width = 1200;
}
);
note = uni25B7;
unicode = 25B7;
}
{
glyphname = upBlackSmallTriangle;
production = uni25B4;
layers = (
{
layerId = master01;
paths = (
{
closed = 1;
nodes = (
"1069 305 LINE",
"600 1102 LINE",
"131 305 LINE"
);
}
);
width = 1200;
},
{
layerId = "1F90C004-9C90-48FA-B407-176B3E9F1E65";
paths = (
{
closed = 1;
nodes = (
"1069 305 LINE",
"600 1102 LINE",
"131 305 LINE"
);
}
);
width = 1200;
},
{
layerId = "8E053A5E-67DA-4970-A6F5-068DBFE5AD21";
paths = (
{
closed = 1;
nodes = (
"1069 305 LINE",
"600 1102 LINE",
"131 305 LINE"
);
}
);
width = 1200;
}
);
note = uni25B4;
unicode = 25B4;
}
{
glyphname = upLeftHalfBlackTriangle;
production = uni25ED;
layers = (
{
components = (
{
name = upWhiteTriangle;
}
);
layerId = master01;
paths = (
{
closed = 1;
nodes = (
"600 1104 LINE",
"110 280 LINE",
"600 280 LINE"
);
}
);
width = 1200;
},
{
components = (
{
name = upWhiteTriangle;
}
);
layerId = "1F90C004-9C90-48FA-B407-176B3E9F1E65";
paths = (
{
closed = 1;
nodes = (
"600 1104 LINE",
"110 280 LINE",
"600 280 LINE"
);
}
);
width = 1200;
},
{
components = (
{
alignment = -1;
name = upWhiteTriangle;
}
);
layerId = "8E053A5E-67DA-4970-A6F5-068DBFE5AD21";
paths = (
{
closed = 1;
nodes = (
"600 1104 LINE",
"110 280 LINE",
"600 280 LINE"
);
}
);
width = 1200;
}
);
note = uni25ED;
unicode = 25ED;
}
{
glyphname = upRightHalfBlackTriangle;
production = uni25EE;
layers = (
{
components = (
{
name = upWhiteTriangle;
}
);
layerId = master01;
paths = (
{
closed = 1;
nodes = (
"1090 280 LINE",
"600 1104 LINE",
"600 280 LINE"
);
}
);
width = 1200;
},
{
components = (
{
name = upWhiteTriangle;
}
);
layerId = "1F90C004-9C90-48FA-B407-176B3E9F1E65";
paths = (
{
closed = 1;
nodes = (
"1090 280 LINE",
"600 1104 LINE",
"600 280 LINE"
);
}
);
width = 1200;
},
{
components = (
{
name = upWhiteTriangle;
}
);
layerId = "8E053A5E-67DA-4970-A6F5-068DBFE5AD21";
paths = (
{
closed = 1;
nodes = (
"1090 280 LINE",
"600 1104 LINE",
"600 280 LINE"
);
}
);
width = 1200;
}
);
note = uni25EE;
unicode = 25EE;
}
{
glyphname = upWhiteSmallTriangle;
production = uni25B5;
layers = (
{
layerId = master01;
paths = (
{
closed = 1;
nodes = (
"1069 305 LINE",
"600 1102 LINE",
"131 305 LINE"
);
},
{
closed = 1;
nodes = (
"637 986 LINE",
"566 986 LINE",
"939 349 LINE",
"945 395 LINE",
"262 395 LINE",
"266 358 LINE"
);
}
);
width = 1200;
},
{
layerId = "1F90C004-9C90-48FA-B407-176B3E9F1E65";
paths = (
{
closed = 1;
nodes = (
"1069 305 LINE",
"600 1102 LINE",
"131 305 LINE"
);
},
{
closed = 1;
nodes = (
"641 876 LINE",
"559 876 LINE",
"848 385 LINE",
"888 455 LINE",
"312 455 LINE",
"352 385 LINE"
);
}
);
width = 1200;
},
{
layerId = "8E053A5E-67DA-4970-A6F5-068DBFE5AD21";
paths = (
{
closed = 1;
nodes = (
"1069 305 LINE",
"600 1102 LINE",
"131 305 LINE"
);
},
{
closed = 1;
nodes = (
"683 876 LINE",
"517 876 LINE",
"806 385 LINE",
"888 497 LINE",
"312 497 LINE",
"394 385 LINE"
);
}
);
width = 1200;
}
);
note = uni25B5;
unicode = 25B5;
}
{
glyphname = upWhiteTriangle;
production = uni25B3;
layers = (
{
layerId = master01;
paths = (
{
closed = 1;
nodes = (
"1200 230 LINE",
"600 1250 LINE",
"0 230 LINE"
);
},
{
closed = 1;
nodes = (
"604 1080 LINE",
"596 1080 LINE",
"1081 256 LINE",
"1089 310 LINE",
"119 310 LINE",
"116 250 LINE"
);
}
);
width = 1200;
},
{
layerId = "1F90C004-9C90-48FA-B407-176B3E9F1E65";
paths = (
{
closed = 1;
nodes = (
"1200 230 LINE",
"600 1250 LINE",
"0 230 LINE"
);
},
{
closed = 1;
nodes = (
"674 1080 LINE",
"526 1080 LINE",
"1011 256 LINE",
"1089 380 LINE",
"119 380 LINE",
"186 250 LINE"
);
}
);
width = 1200;
},
{
layerId = "8E053A5E-67DA-4970-A6F5-068DBFE5AD21";
paths = (
{
closed = 1;
nodes = (
"1200 230 LINE",
"600 1250 LINE",
"0 230 LINE"
);
},
{
closed = 1;
nodes = (
"702 1013 LINE",
"500 1015 LINE",
"944 256 LINE",
"1056 447 LINE",
"144 447 LINE",
"253 250 LINE"
);
}
);
width = 1200;
}
);
note = uni25B3;
unicode = 25B3;
}
{
glyphname = upWhiteTriangleWithDot;
production = uni25EC;
layers = (
{
components = (
{
name = upWhiteTriangle;
}
);
layerId = master01;
paths = (
{
closed = 1;
nodes = (
"641 515 OFFCURVE",
"675 549 OFFCURVE",
"675 590 CURVE SMOOTH",
"675 631 OFFCURVE",
"641 665 OFFCURVE",
"600 665 CURVE SMOOTH",
"559 665 OFFCURVE",
"525 631 OFFCURVE",
"525 590 CURVE SMOOTH",
"525 549 OFFCURVE",
"559 515 OFFCURVE",
"600 515 CURVE SMOOTH"
);
}
);
width = 1200;
},
{
components = (
{
name = upWhiteTriangle;
}
);
layerId = "1F90C004-9C90-48FA-B407-176B3E9F1E65";
paths = (
{
closed = 1;
nodes = (
"641 515 OFFCURVE",
"675 549 OFFCURVE",
"675 590 CURVE SMOOTH",
"675 631 OFFCURVE",
"641 665 OFFCURVE",
"600 665 CURVE SMOOTH",
"559 665 OFFCURVE",
"525 631 OFFCURVE",
"525 590 CURVE SMOOTH",
"525 549 OFFCURVE",
"559 515 OFFCURVE",
"600 515 CURVE SMOOTH"
);
}
);
width = 1200;
},
{
components = (
{
alignment = -1;
name = upWhiteTriangle;
}
);
layerId = "8E053A5E-67DA-4970-A6F5-068DBFE5AD21";
paths = (
{
closed = 1;
nodes = (
"641 515 OFFCURVE",
"675 549 OFFCURVE",
"675 590 CURVE SMOOTH",
"675 631 OFFCURVE",
"641 665 OFFCURVE",
"600 665 CURVE SMOOTH",
"559 665 OFFCURVE",
"525 631 OFFCURVE",
"525 590 CURVE SMOOTH",
"525 549 OFFCURVE",
"559 515 OFFCURVE",
"600 515 CURVE SMOOTH"
);
}
);
width = 1200;
}
);
note = uni25EC;
unicode = 25EC;
}
{
glyphname = upperHalfArc;
production = uni25E0;
layers = (
{
layerId = master01;
paths = (
{
closed = 1;
nodes = (
"171 710 LINE",
"171 971 OFFCURVE",
"341 1143 OFFCURVE",
"600 1143 CURVE SMOOTH",
"859 1143 OFFCURVE",
"1029 971 OFFCURVE",
"1029 710 CURVE",
"1125 710 LINE",
"1125 1026 OFFCURVE",
"916 1235 OFFCURVE",
"600 1235 CURVE SMOOTH",
"284 1235 OFFCURVE",
"75 1026 OFFCURVE",
"75 710 CURVE"
);
}
);
width = 1200;
},
{
layerId = "1F90C004-9C90-48FA-B407-176B3E9F1E65";
paths = (
{
closed = 1;
nodes = (
"225 710 LINE",
"225 936 OFFCURVE",
"374 1085 OFFCURVE",
"600 1085 CURVE SMOOTH",
"826 1085 OFFCURVE",
"975 936 OFFCURVE",
"975 710 CURVE",
"1125 710 LINE",
"1125 1026 OFFCURVE",
"916 1235 OFFCURVE",
"600 1235 CURVE SMOOTH",
"284 1235 OFFCURVE",
"75 1026 OFFCURVE",
"75 710 CURVE"
);
}
);
width = 1200;
},
{
layerId = "8E053A5E-67DA-4970-A6F5-068DBFE5AD21";
paths = (
{
closed = 1;
nodes = (
"283 710 LINE",
"283 901 OFFCURVE",
"409 1027 OFFCURVE",
"600 1027 CURVE SMOOTH",
"791 1027 OFFCURVE",
"917 901 OFFCURVE",
"917 710 CURVE",
"1125 710 LINE",
"1125 1026 OFFCURVE",
"916 1235 OFFCURVE",
"600 1235 CURVE SMOOTH",
"284 1235 OFFCURVE",
"75 1026 OFFCURVE",
"75 710 CURVE"
);
}
);
width = 1200;
}
);
note = uni25E0;
unicode = 25E0;
}
{
glyphname = upperHalfBlackWhiteCircle;
production = uni25D3;
layers = (
{
components = (
{
name = whiteCircle;
transform = "{1, 0, 0, -1, 0, 1420}";
}
);
layerId = master01;
paths = (
{
closed = 1;
nodes = (
"1065 710 LINE",
"984 1051 LINE",
"594 1198 LINE",
"241 1051 LINE",
"135 710 LINE"
);
}
);
width = 1200;
},
{
components = (
{
name = whiteCircle;
transform = "{-1, 0, 0, -1, 1200, 1420}";
}
);
layerId = "1F90C004-9C90-48FA-B407-176B3E9F1E65";
paths = (
{
closed = 1;
nodes = (
"1015 710 LINE",
"1015 1008 LINE",
"594 1168 LINE",
"181 961 LINE",
"181 710 LINE"
);
}
);
width = 1200;
},
{
components = (
{
alignment = -1;
name = whiteCircle;
transform = "{-1, 0, 0, -1, 1200, 1420}";
}
);
layerId = "8E053A5E-67DA-4970-A6F5-068DBFE5AD21";
paths = (
{
closed = 1;
nodes = (
"1015 710 LINE",
"1015 1008 LINE",
"594 1168 LINE",
"181 961 LINE",
"181 710 LINE"
);
}
);
width = 1200;
}
);
note = uni25D3;
unicode = 25D3;
}
{
glyphname = upperHalfInverseWhiteCircle;
production = uni25DA;
layers = (
{
layerId = master01;
paths = (
{
closed = 1;
nodes = (
"75 710 LINE",
"75 1026 OFFCURVE",
"284 1235 OFFCURVE",
"600 1235 CURVE SMOOTH",
"916 1235 OFFCURVE",
"1125 1026 OFFCURVE",
"1125 710 CURVE",
"1200 710 LINE",
"1200 1310 LINE",
"0 1310 LINE",
"0 710 LINE"
);
},
{
closed = 1;
nodes = (
"1029 710 LINE",
"1029 971 OFFCURVE",
"859 1143 OFFCURVE",
"600 1143 CURVE SMOOTH",
"341 1143 OFFCURVE",
"171 971 OFFCURVE",
"171 710 CURVE"
);
}
);
width = 1200;
},
{
layerId = "1F90C004-9C90-48FA-B407-176B3E9F1E65";
paths = (
{
closed = 1;
nodes = (
"75 710 LINE",
"75 1026 OFFCURVE",
"284 1235 OFFCURVE",
"600 1235 CURVE SMOOTH",
"916 1235 OFFCURVE",
"1125 1026 OFFCURVE",
"1125 710 CURVE",
"1200 710 LINE",
"1200 1310 LINE",
"0 1310 LINE",
"0 710 LINE"
);
},
{
closed = 1;
nodes = (
"975 710 LINE",
"975 936 OFFCURVE",
"826 1085 OFFCURVE",
"600 1085 CURVE SMOOTH",
"374 1085 OFFCURVE",
"225 936 OFFCURVE",
"225 710 CURVE"
);
}
);
width = 1200;
},
{
layerId = "8E053A5E-67DA-4970-A6F5-068DBFE5AD21";
paths = (
{
closed = 1;
nodes = (
"75 710 LINE",
"75 1026 OFFCURVE",
"284 1235 OFFCURVE",
"600 1235 CURVE SMOOTH",
"916 1235 OFFCURVE",
"1125 1026 OFFCURVE",
"1125 710 CURVE",
"1200 710 LINE",
"1200 1310 LINE",
"0 1310 LINE",
"0 710 LINE"
);
},
{
closed = 1;
nodes = (
"917 710 LINE",
"917 901 OFFCURVE",
"791 1027 OFFCURVE",
"600 1027 CURVE SMOOTH",
"409 1027 OFFCURVE",
"283 901 OFFCURVE",
"283 710 CURVE"
);
}
);
width = 1200;
}
);
note = uni25DA;
unicode = 25DA;
}
{
glyphname = upperLeftArc;
production = uni25DC;
layers = (
{
layerId = master01;
paths = (
{
closed = 1;
nodes = (
"171 710 LINE",
"171 971 OFFCURVE",
"341 1143 OFFCURVE",
"600 1143 CURVE",
"600 1235 LINE",
"284 1235 OFFCURVE",
"75 1026 OFFCURVE",
"75 710 CURVE"
);
}
);
width = 1200;
},
{
layerId = "1F90C004-9C90-48FA-B407-176B3E9F1E65";
paths = (
{
closed = 1;
nodes = (
"225 710 LINE",
"225 936 OFFCURVE",
"374 1085 OFFCURVE",
"600 1085 CURVE",
"600 1235 LINE",
"284 1235 OFFCURVE",
"75 1026 OFFCURVE",
"75 710 CURVE"
);
}
);
width = 1200;
},
{
layerId = "8E053A5E-67DA-4970-A6F5-068DBFE5AD21";
paths = (
{
closed = 1;
nodes = (
"283 710 LINE",
"283 901 OFFCURVE",
"409 1027 OFFCURVE",
"600 1027 CURVE",
"600 1235 LINE",
"284 1235 OFFCURVE",
"75 1026 OFFCURVE",
"75 710 CURVE"
);
}
);
width = 1200;
}
);
note = uni25DC;
unicode = 25DC;
}
{
glyphname = upperLeftBlackTriangle;
production = uni25E4;
layers = (
{
layerId = master01;
paths = (
{
closed = 1;
nodes = (
"1125 1235 LINE",
"75 1235 LINE",
"75 185 LINE"
);
}
);
width = 1200;
},
{
layerId = "1F90C004-9C90-48FA-B407-176B3E9F1E65";
paths = (
{
closed = 1;
nodes = (
"1125 1235 LINE",
"75 1235 LINE",
"75 185 LINE"
);
}
);
width = 1200;
},
{
layerId = "8E053A5E-67DA-4970-A6F5-068DBFE5AD21";
paths = (
{
closed = 1;
nodes = (
"1125 1235 LINE",
"75 1235 LINE",
"75 185 LINE"
);
}
);
width = 1200;
}
);
note = uni25E4;
unicode = 25E4;
}
{
glyphname = upperLeftQuadrantWhiteCircle;
production = uni25F4;
layers = (
{
components = (
{
name = whiteCircle;
}
);
layerId = master01;
paths = (
{
closed = 1;
nodes = (
"647 665 LINE",
"647 1168 LINE",
"553 1168 LINE",
"553 755 LINE",
"153 755 LINE",
"153 665 LINE"
);
}
);
width = 1200;
},
{
components = (
{
name = whiteCircle;
}
);
layerId = "1F90C004-9C90-48FA-B407-176B3E9F1E65";
paths = (
{
closed = 1;
nodes = (
"675 635 LINE",
"675 1148 LINE",
"525 1148 LINE",
"525 785 LINE",
"153 785 LINE",
"153 635 LINE"
);
}
);
width = 1200;
},
{
components = (
{
name = whiteCircle;
}
);
layerId = "8E053A5E-67DA-4970-A6F5-068DBFE5AD21";
paths = (
{
closed = 1;
nodes = (
"692 618 LINE",
"692 1148 LINE",
"508 1148 LINE",
"508 802 LINE",
"153 802 LINE",
"153 618 LINE"
);
}
);
width = 1200;
}
);
note = uni25F4;
unicode = 25F4;
}
{
glyphname = upperLeftTriangle;
production = uni25F8;
layers = (
{
layerId = master01;
paths = (
{
closed = 1;
nodes = (
"1125 1235 LINE",
"75 1235 LINE",
"75 185 LINE"
);
},
{
closed = 1;
nodes = (
"169 326 LINE",
"169 1216 LINE",
"94 1145 LINE",
"974 1145 LINE",
"974 1216 LINE",
"86 328 LINE"
);
}
);
width = 1200;
},
{
layerId = "1F90C004-9C90-48FA-B407-176B3E9F1E65";
paths = (
{
closed = 1;
nodes = (
"1125 1235 LINE",
"75 1235 LINE",
"75 185 LINE"
);
},
{
closed = 1;
nodes = (
"225 466 LINE",
"225 1166 LINE",
"144 1085 LINE",
"844 1085 LINE",
"820 1142 LINE",
"168 490 LINE"
);
}
);
width = 1200;
},
{
layerId = "8E053A5E-67DA-4970-A6F5-068DBFE5AD21";
paths = (
{
closed = 1;
nodes = (
"1125 1235 LINE",
"75 1235 LINE",
"75 185 LINE"
);
},
{
closed = 1;
nodes = (
"292 466 LINE",
"292 1166 LINE",
"144 1018 LINE",
"844 1018 LINE",
"753 1159 LINE",
"101 507 LINE"
);
}
);
width = 1200;
}
);
note = uni25F8;
unicode = 25F8;
}
{
glyphname = upperLeftWhiteCircle;
production = uni25D5;
layers = (
{
components = (
{
name = whiteCircle;
}
);
layerId = master01;
paths = (
{
closed = 1;
nodes = (
"875 276 LINE",
"1072 561 LINE",
"1072 901 LINE",
"780 1185 LINE",
"600 1185 LINE",
"600 710 LINE",
"125 710 LINE",
"125 534 LINE",
"431 225 LINE"
);
}
);
width = 1200;
},
{
components = (
{
name = whiteCircle;
}
);
layerId = "1F90C004-9C90-48FA-B407-176B3E9F1E65";
paths = (
{
closed = 1;
nodes = (
"875 276 LINE",
"1072 561 LINE",
"1072 901 LINE",
"780 1185 LINE",
"600 1185 LINE",
"600 710 LINE",
"125 710 LINE",
"125 534 LINE",
"431 225 LINE"
);
}
);
width = 1200;
},
{
components = (
{
name = whiteCircle;
}
);
layerId = "8E053A5E-67DA-4970-A6F5-068DBFE5AD21";
paths = (
{
closed = 1;
nodes = (
"875 276 LINE",
"1072 561 LINE",
"1072 901 LINE",
"780 1185 LINE",
"600 1185 LINE",
"600 710 LINE",
"125 710 LINE",
"125 534 LINE",
"431 225 LINE"
);
}
);
width = 1200;
}
);
note = uni25D5;
unicode = 25D5;
}
{
glyphname = upperRightArc;
production = uni25DD;
layers = (
{
layerId = master01;
paths = (
{
closed = 1;
nodes = (
"1125 710 LINE",
"1125 1026 OFFCURVE",
"916 1235 OFFCURVE",
"600 1235 CURVE",
"600 1143 LINE",
"859 1143 OFFCURVE",
"1029 971 OFFCURVE",
"1029 710 CURVE"
);
}
);
width = 1200;
},
{
layerId = "1F90C004-9C90-48FA-B407-176B3E9F1E65";
paths = (
{
closed = 1;
nodes = (
"1125 710 LINE",
"1125 1026 OFFCURVE",
"916 1235 OFFCURVE",
"600 1235 CURVE",
"600 1085 LINE",
"826 1085 OFFCURVE",
"975 936 OFFCURVE",
"975 710 CURVE"
);
}
);
width = 1200;
},
{
layerId = "8E053A5E-67DA-4970-A6F5-068DBFE5AD21";
paths = (
{
closed = 1;
nodes = (
"1125 710 LINE",
"1125 1026 OFFCURVE",
"916 1235 OFFCURVE",
"600 1235 CURVE",
"600 1027 LINE",
"791 1027 OFFCURVE",
"917 901 OFFCURVE",
"917 710 CURVE"
);
}
);
width = 1200;
}
);
note = uni25DD;
unicode = 25DD;
}
{
glyphname = upperRightBlackCircle;
production = uni25D4;
layers = (
{
components = (
{
name = whiteCircle;
}
);
layerId = master01;
paths = (
{
closed = 1;
nodes = (
"1075 710 LINE",
"959 1080 LINE",
"600 1185 LINE",
"600 710 LINE"
);
}
);
width = 1200;
},
{
components = (
{
name = whiteCircle;
}
);
layerId = "1F90C004-9C90-48FA-B407-176B3E9F1E65";
paths = (
{
closed = 1;
nodes = (
"1075 710 LINE",
"959 1080 LINE",
"600 1185 LINE",
"600 710 LINE"
);
}
);
width = 1200;
},
{
components = (
{
alignment = -1;
name = whiteCircle;
}
);
layerId = "8E053A5E-67DA-4970-A6F5-068DBFE5AD21";
paths = (
{
closed = 1;
nodes = (
"1075 710 LINE",
"959 1080 LINE",
"600 1185 LINE",
"600 710 LINE"
);
}
);
width = 1200;
}
);
note = uni25D4;
unicode = 25D4;
}
{
glyphname = upperRightQuadrantWhiteCircle;
production = uni25F7;
layers = (
{
components = (
{
name = whiteCircle;
}
);
layerId = master01;
paths = (
{
closed = 1;
nodes = (
"1058 663 LINE",
"1058 757 LINE",
"645 757 LINE",
"645 1157 LINE",
"555 1157 LINE",
"555 663 LINE"
);
}
);
width = 1200;
},
{
components = (
{
name = whiteCircle;
}
);
layerId = "1F90C004-9C90-48FA-B407-176B3E9F1E65";
paths = (
{
closed = 1;
nodes = (
"1058 635 LINE",
"1058 785 LINE",
"675 785 LINE",
"675 1157 LINE",
"525 1157 LINE",
"525 635 LINE"
);
}
);
width = 1200;
},
{
components = (
{
name = whiteCircle;
}
);
layerId = "8E053A5E-67DA-4970-A6F5-068DBFE5AD21";
paths = (
{
closed = 1;
nodes = (
"1058 618 LINE",
"1058 802 LINE",
"692 802 LINE",
"692 1157 LINE",
"508 1157 LINE",
"508 618 LINE"
);
}
);
width = 1200;
}
);
note = uni25F7;
unicode = 25F7;
}
{
glyphname = upperRightTriangle;
production = uni25F9;
layers = (
{
layerId = master01;
paths = (
{
closed = 1;
nodes = (
"1125 1235 LINE",
"75 1235 LINE",
"1125 185 LINE"
);
},
{
closed = 1;
nodes = (
"226 1216 LINE",
"226 1145 LINE",
"1106 1145 LINE",
"1031 1216 LINE",
"1031 326 LINE",
"1114 328 LINE"
);
}
);
width = 1200;
},
{
layerId = "1F90C004-9C90-48FA-B407-176B3E9F1E65";
paths = (
{
closed = 1;
nodes = (
"1125 1235 LINE",
"75 1235 LINE",
"1125 185 LINE"
);
},
{
closed = 1;
nodes = (
"380 1142 LINE",
"356 1085 LINE",
"1056 1085 LINE",
"975 1166 LINE",
"975 466 LINE",
"1032 490 LINE"
);
}
);
width = 1200;
},
{
layerId = "8E053A5E-67DA-4970-A6F5-068DBFE5AD21";
paths = (
{
closed = 1;
nodes = (
"1125 1235 LINE",
"75 1235 LINE",
"1125 185 LINE"
);
},
{
closed = 1;
nodes = (
"447 1159 LINE",
"356 1018 LINE",
"1056 1018 LINE",
"908 1166 LINE",
"908 466 LINE",
"1099 507 LINE"
);
}
);
width = 1200;
}
);
note = uni25F9;
unicode = 25F9;
}
{
glyphname = upperlefttolowerrightFillSquare;
production = uni25A7;
layers = (
{
components = (
{
name = whiteSquare;
}
);
layerId = master01;
paths = (
{
closed = 1;
nodes = (
"1031 218 LINE",
"1092 289 LINE",
"187 1194 LINE",
"116 1133 LINE"
);
},
{
closed = 1;
nodes = (
"593 246 LINE",
"725 246 LINE",
"150 821 LINE",
"150 689 LINE"
);
},
{
closed = 1;
nodes = (
"1080 579 LINE",
"1080 711 LINE",
"614 1177 LINE",
"482 1177 LINE"
);
}
);
width = 1200;
},
{
components = (
{
name = whiteSquare;
}
);
layerId = "1F90C004-9C90-48FA-B407-176B3E9F1E65";
paths = (
{
closed = 1;
nodes = (
"986 223 LINE",
"1087 334 LINE",
"240 1181 LINE",
"129 1080 LINE"
);
},
{
closed = 1;
nodes = (
"553 246 LINE",
"765 246 LINE",
"150 861 LINE",
"150 649 LINE"
);
},
{
closed = 1;
nodes = (
"1080 539 LINE",
"1080 751 LINE",
"654 1177 LINE",
"442 1177 LINE"
);
}
);
width = 1200;
},
{
components = (
{
alignment = -1;
name = whiteSquare;
}
);
layerId = "8E053A5E-67DA-4970-A6F5-068DBFE5AD21";
paths = (
{
closed = 1;
nodes = (
"969 223 LINE",
"1087 351 LINE",
"257 1181 LINE",
"129 1063 LINE"
);
},
{
closed = 1;
nodes = (
"586 279 LINE",
"815 279 LINE",
"183 911 LINE",
"183 682 LINE"
);
},
{
closed = 1;
nodes = (
"1063 472 LINE",
"1063 718 LINE",
"637 1127 LINE",
"409 1127 LINE"
);
}
);
width = 1200;
}
);
note = uni25A7;
unicode = 25A7;
}
{
glyphname = upperrighttolowerleftFillSquare;
production = uni25A8;
layers = (
{
components = (
{
name = whiteSquare;
}
);
layerId = master01;
paths = (
{
closed = 1;
nodes = (
"1013 1194 LINE",
"108 289 LINE",
"169 218 LINE",
"1084 1133 LINE"
);
},
{
closed = 1;
nodes = (
"1050 821 LINE",
"475 246 LINE",
"607 246 LINE",
"1050 689 LINE"
);
},
{
closed = 1;
nodes = (
"586 1177 LINE",
"120 711 LINE",
"120 579 LINE",
"718 1177 LINE"
);
}
);
width = 1200;
},
{
components = (
{
name = whiteSquare;
}
);
layerId = "1F90C004-9C90-48FA-B407-176B3E9F1E65";
paths = (
{
closed = 1;
nodes = (
"960 1181 LINE",
"113 334 LINE",
"214 223 LINE",
"1071 1080 LINE"
);
},
{
closed = 1;
nodes = (
"1050 861 LINE",
"435 246 LINE",
"647 246 LINE",
"1050 649 LINE"
);
},
{
closed = 1;
nodes = (
"546 1177 LINE",
"120 751 LINE",
"120 539 LINE",
"758 1177 LINE"
);
}
);
width = 1200;
},
{
components = (
{
name = whiteSquare;
}
);
layerId = "8E053A5E-67DA-4970-A6F5-068DBFE5AD21";
paths = (
{
closed = 1;
nodes = (
"957 1181 LINE",
"126 351 LINE",
"244 223 LINE",
"1084 1063 LINE"
);
},
{
closed = 1;
nodes = (
"1030 911 LINE",
"398 279 LINE",
"627 279 LINE",
"1030 682 LINE"
);
},
{
closed = 1;
nodes = (
"576 1127 LINE",
"150 718 LINE",
"150 472 LINE",
"805 1127 LINE"
);
}
);
width = 1200;
}
);
note = uni25A8;
unicode = 25A8;
}
{
glyphname = verticalBisectingLineWhiteSquare;
production = uni25EB;
layers = (
{
components = (
{
name = whiteSquare;
}
);
layerId = master01;
paths = (
{
closed = 1;
nodes = (
"647 1201 LINE",
"553 1201 LINE",
"553 219 LINE",
"647 219 LINE"
);
}
);
width = 1200;
},
{
components = (
{
name = whiteSquare;
}
);
layerId = "1F90C004-9C90-48FA-B407-176B3E9F1E65";
paths = (
{
closed = 1;
nodes = (
"675 1201 LINE",
"525 1201 LINE",
"525 219 LINE",
"675 219 LINE"
);
}
);
width = 1200;
},
{
components = (
{
name = whiteSquare;
}
);
layerId = "8E053A5E-67DA-4970-A6F5-068DBFE5AD21";
paths = (
{
closed = 1;
nodes = (
"708 1201 LINE",
"492 1201 LINE",
"492 219 LINE",
"708 219 LINE"
);
}
);
width = 1200;
}
);
note = uni25EB;
unicode = 25EB;
}
{
glyphname = verticalFillCircle;
production = uni25CD;
layers = (
{
components = (
{
name = whiteCircle;
}
);
layerId = master01;
paths = (
{
closed = 1;
nodes = (
"497 274 LINE",
"497 1168 LINE",
"403 1169 LINE",
"403 274 LINE"
);
},
{
closed = 1;
nodes = (
"797 274 LINE",
"797 1168 LINE",
"703 1169 LINE",
"703 274 LINE"
);
}
);
width = 1200;
},
{
components = (
{
name = whiteCircle;
}
);
layerId = "1F90C004-9C90-48FA-B407-176B3E9F1E65";
paths = (
{
closed = 1;
nodes = (
"525 274 LINE",
"525 1168 LINE",
"375 1169 LINE",
"375 274 LINE"
);
},
{
closed = 1;
nodes = (
"825 274 LINE",
"825 1168 LINE",
"675 1169 LINE",
"675 274 LINE"
);
}
);
width = 1200;
},
{
components = (
{
name = whiteCircle;
}
);
layerId = "8E053A5E-67DA-4970-A6F5-068DBFE5AD21";
paths = (
{
closed = 1;
nodes = (
"562 274 LINE",
"562 1168 LINE",
"395 1169 LINE",
"395 274 LINE"
);
},
{
closed = 1;
nodes = (
"804 274 LINE",
"804 1168 LINE",
"638 1169 LINE",
"638 274 LINE"
);
}
);
width = 1200;
}
);
note = uni25CD;
unicode = 25CD;
}
{
glyphname = verticalFillSquare;
production = uni25A5;
layers = (
{
components = (
{
name = whiteSquare;
transform = "{0, 1, -1, 0, 1310, 110}";
}
);
layerId = master01;
paths = (
{
closed = 1;
nodes = (
"495 1161 LINE",
"405 1161 LINE",
"405 259 LINE",
"495 259 LINE"
);
},
{
closed = 1;
nodes = (
"795 1161 LINE",
"705 1161 LINE",
"705 259 LINE",
"795 259 LINE"
);
}
);
width = 1200;
},
{
components = (
{
name = whiteSquare;
transform = "{0, 1, -1, 0, 1310, 110}";
}
);
layerId = "1F90C004-9C90-48FA-B407-176B3E9F1E65";
paths = (
{
closed = 1;
nodes = (
"525 1161 LINE",
"375 1161 LINE",
"375 259 LINE",
"525 259 LINE"
);
},
{
closed = 1;
nodes = (
"825 1161 LINE",
"675 1161 LINE",
"675 259 LINE",
"825 259 LINE"
);
}
);
width = 1200;
},
{
components = (
{
alignment = -1;
name = whiteSquare;
transform = "{0, 1, -1, 0, 1310, 110}";
}
);
layerId = "8E053A5E-67DA-4970-A6F5-068DBFE5AD21";
paths = (
{
closed = 1;
nodes = (
"567 1161 LINE",
"383 1161 LINE",
"383 259 LINE",
"567 259 LINE"
);
},
{
closed = 1;
nodes = (
"817 1161 LINE",
"633 1161 LINE",
"633 259 LINE",
"817 259 LINE"
);
}
);
width = 1200;
}
);
note = uni25A5;
unicode = 25A5;
}
{
glyphname = whiteBullet;
production = openbullet;
layers = (
{
layerId = master01;
paths = (
{
closed = 1;
nodes = (
"778 414 OFFCURVE",
"896 532 OFFCURVE",
"896 710 CURVE SMOOTH",
"896 888 OFFCURVE",
"778 1006 OFFCURVE",
"600 1006 CURVE SMOOTH",
"422 1006 OFFCURVE",
"304 888 OFFCURVE",
"304 710 CURVE SMOOTH",
"304 532 OFFCURVE",
"422 414 OFFCURVE",
"600 414 CURVE SMOOTH"
);
},
{
closed = 1;
nodes = (
"479 506 OFFCURVE",
"400 587 OFFCURVE",
"400 710 CURVE SMOOTH",
"400 833 OFFCURVE",
"479 914 OFFCURVE",
"600 914 CURVE SMOOTH",
"721 914 OFFCURVE",
"800 833 OFFCURVE",
"800 710 CURVE SMOOTH",
"800 587 OFFCURVE",
"721 506 OFFCURVE",
"600 506 CURVE SMOOTH"
);
}
);
width = 1200;
},
{
layerId = "1F90C004-9C90-48FA-B407-176B3E9F1E65";
paths = (
{
closed = 1;
nodes = (
"778 414 OFFCURVE",
"896 532 OFFCURVE",
"896 710 CURVE SMOOTH",
"896 888 OFFCURVE",
"778 1006 OFFCURVE",
"600 1006 CURVE SMOOTH",
"422 1006 OFFCURVE",
"304 888 OFFCURVE",
"304 710 CURVE SMOOTH",
"304 532 OFFCURVE",
"422 414 OFFCURVE",
"600 414 CURVE SMOOTH"
);
},
{
closed = 1;
nodes = (
"512 564 OFFCURVE",
"454 622 OFFCURVE",
"454 710 CURVE SMOOTH",
"454 798 OFFCURVE",
"512 856 OFFCURVE",
"600 856 CURVE SMOOTH",
"688 856 OFFCURVE",
"746 798 OFFCURVE",
"746 710 CURVE SMOOTH",
"746 622 OFFCURVE",
"688 564 OFFCURVE",
"600 564 CURVE SMOOTH"
);
}
);
width = 1200;
},
{
layerId = "8E053A5E-67DA-4970-A6F5-068DBFE5AD21";
paths = (
{
closed = 1;
nodes = (
"778 414 OFFCURVE",
"896 532 OFFCURVE",
"896 710 CURVE SMOOTH",
"896 888 OFFCURVE",
"778 1006 OFFCURVE",
"600 1006 CURVE SMOOTH",
"422 1006 OFFCURVE",
"304 888 OFFCURVE",
"304 710 CURVE SMOOTH",
"304 532 OFFCURVE",
"422 414 OFFCURVE",
"600 414 CURVE SMOOTH"
);
},
{
closed = 1;
nodes = (
"537 606 OFFCURVE",
"496 647 OFFCURVE",
"496 710 CURVE SMOOTH",
"496 773 OFFCURVE",
"537 814 OFFCURVE",
"600 814 CURVE SMOOTH",
"663 814 OFFCURVE",
"704 773 OFFCURVE",
"704 710 CURVE SMOOTH",
"704 647 OFFCURVE",
"663 606 OFFCURVE",
"600 606 CURVE SMOOTH"
);
}
);
width = 1200;
}
);
note = openbullet;
unicode = 25E6;
}
{
glyphname = whiteCircle;
production = circle;
layers = (
{
layerId = master01;
paths = (
{
closed = 1;
nodes = (
"916 185 OFFCURVE",
"1125 394 OFFCURVE",
"1125 710 CURVE SMOOTH",
"1125 1026 OFFCURVE",
"916 1235 OFFCURVE",
"600 1235 CURVE SMOOTH",
"284 1235 OFFCURVE",
"75 1026 OFFCURVE",
"75 710 CURVE SMOOTH",
"75 394 OFFCURVE",
"284 185 OFFCURVE",
"600 185 CURVE SMOOTH"
);
},
{
closed = 1;
nodes = (
"341 277 OFFCURVE",
"171 449 OFFCURVE",
"171 710 CURVE SMOOTH",
"171 971 OFFCURVE",
"341 1143 OFFCURVE",
"600 1143 CURVE SMOOTH",
"859 1143 OFFCURVE",
"1029 971 OFFCURVE",
"1029 710 CURVE SMOOTH",
"1029 449 OFFCURVE",
"859 277 OFFCURVE",
"600 277 CURVE SMOOTH"
);
}
);
width = 1200;
},
{
layerId = "1F90C004-9C90-48FA-B407-176B3E9F1E65";
paths = (
{
closed = 1;
nodes = (
"916 185 OFFCURVE",
"1125 394 OFFCURVE",
"1125 710 CURVE SMOOTH",
"1125 1026 OFFCURVE",
"916 1235 OFFCURVE",
"600 1235 CURVE SMOOTH",
"284 1235 OFFCURVE",
"75 1026 OFFCURVE",
"75 710 CURVE SMOOTH",
"75 394 OFFCURVE",
"284 185 OFFCURVE",
"600 185 CURVE SMOOTH"
);
},
{
closed = 1;
nodes = (
"374 335 OFFCURVE",
"225 484 OFFCURVE",
"225 710 CURVE SMOOTH",
"225 936 OFFCURVE",
"374 1085 OFFCURVE",
"600 1085 CURVE SMOOTH",
"826 1085 OFFCURVE",
"975 936 OFFCURVE",
"975 710 CURVE SMOOTH",
"975 484 OFFCURVE",
"826 335 OFFCURVE",
"600 335 CURVE SMOOTH"
);
}
);
width = 1200;
},
{
layerId = "8E053A5E-67DA-4970-A6F5-068DBFE5AD21";
paths = (
{
closed = 1;
nodes = (
"915 185 OFFCURVE",
"1125 395 OFFCURVE",
"1125 710 CURVE SMOOTH",
"1125 1025 OFFCURVE",
"915 1235 OFFCURVE",
"600 1235 CURVE SMOOTH",
"285 1235 OFFCURVE",
"75 1025 OFFCURVE",
"75 710 CURVE SMOOTH",
"75 395 OFFCURVE",
"285 185 OFFCURVE",
"600 185 CURVE SMOOTH"
);
},
{
closed = 1;
nodes = (
"425 418 OFFCURVE",
"308 535 OFFCURVE",
"308 710 CURVE SMOOTH",
"308 885 OFFCURVE",
"425 1002 OFFCURVE",
"600 1002 CURVE SMOOTH",
"775 1002 OFFCURVE",
"892 885 OFFCURVE",
"892 710 CURVE SMOOTH",
"892 535 OFFCURVE",
"775 418 OFFCURVE",
"600 418 CURVE SMOOTH"
);
}
);
width = 1200;
}
);
note = circle;
unicode = 25CB;
}
{
glyphname = whiteDiamond;
production = uni25C7;
layers = (
{
layerId = master01;
paths = (
{
closed = 1;
nodes = (
"1200 710 LINE",
"600 1310 LINE",
"0 710 LINE",
"600 110 LINE"
);
},
{
closed = 1;
nodes = (
"122 710 LINE",
"600 1188 LINE",
"1078 710 LINE",
"600 232 LINE"
);
}
);
width = 1200;
},
{
layerId = "1F90C004-9C90-48FA-B407-176B3E9F1E65";
paths = (
{
closed = 1;
nodes = (
"1200 710 LINE",
"600 1310 LINE",
"0 710 LINE",
"600 110 LINE"
);
},
{
closed = 1;
nodes = (
"212 710 LINE",
"600 1098 LINE",
"988 710 LINE",
"600 322 LINE"
);
}
);
width = 1200;
},
{
layerId = "8E053A5E-67DA-4970-A6F5-068DBFE5AD21";
paths = (
{
closed = 1;
nodes = (
"1200 710 LINE",
"600 1310 LINE",
"0 710 LINE",
"600 110 LINE"
);
},
{
closed = 1;
nodes = (
"287 710 LINE",
"600 1023 LINE",
"913 710 LINE",
"600 397 LINE"
);
}
);
width = 1200;
}
);
note = uni25C7;
unicode = 25C7;
}
{
glyphname = whiteInBlackSquare;
production = uni25A3;
layers = (
{
components = (
{
name = whiteSquare;
}
);
layerId = master01;
paths = (
{
closed = 1;
nodes = (
"825 485 LINE",
"825 935 LINE",
"375 935 LINE",
"375 485 LINE"
);
}
);
width = 1200;
},
{
components = (
{
name = whiteSquare;
}
);
layerId = "1F90C004-9C90-48FA-B407-176B3E9F1E65";
paths = (
{
closed = 1;
nodes = (
"825 485 LINE",
"825 935 LINE",
"375 935 LINE",
"375 485 LINE"
);
}
);
width = 1200;
},
{
components = (
{
alignment = -1;
name = whiteSquare;
}
);
layerId = "8E053A5E-67DA-4970-A6F5-068DBFE5AD21";
paths = (
{
closed = 1;
nodes = (
"825 485 LINE",
"825 935 LINE",
"375 935 LINE",
"375 485 LINE"
);
}
);
width = 1200;
}
);
note = uni25A3;
unicode = 25A3;
}
{
glyphname = whiteLowerLeftQuadrantSquare;
production = uni25F1;
layers = (
{
components = (
{
name = whiteSquare;
}
);
layerId = master01;
paths = (
{
closed = 1;
nodes = (
"109 665 LINE",
"553 665 LINE",
"553 219 LINE",
"647 219 LINE",
"647 755 LINE",
"109 755 LINE"
);
}
);
width = 1200;
},
{
components = (
{
name = whiteSquare;
}
);
layerId = "1F90C004-9C90-48FA-B407-176B3E9F1E65";
paths = (
{
closed = 1;
nodes = (
"130 635 LINE",
"526 635 LINE",
"526 239 LINE",
"676 239 LINE",
"676 785 LINE",
"130 785 LINE"
);
}
);
width = 1200;
},
{
components = (
{
alignment = -1;
name = whiteSquare;
}
);
layerId = "8E053A5E-67DA-4970-A6F5-068DBFE5AD21";
paths = (
{
closed = 1;
nodes = (
"130 618 LINE",
"509 618 LINE",
"509 239 LINE",
"693 239 LINE",
"693 802 LINE",
"130 802 LINE"
);
}
);
width = 1200;
}
);
note = uni25F1;
unicode = 25F1;
}
{
glyphname = whiteLowerRightQuadrantSquare;
production = uni25F2;
layers = (
{
components = (
{
name = whiteSquare;
}
);
layerId = master01;
paths = (
{
closed = 1;
nodes = (
"553 755 LINE",
"553 219 LINE",
"647 219 LINE",
"647 665 LINE",
"1091 665 LINE",
"1091 755 LINE"
);
}
);
width = 1200;
},
{
components = (
{
name = whiteSquare;
}
);
layerId = "1F90C004-9C90-48FA-B407-176B3E9F1E65";
paths = (
{
closed = 1;
nodes = (
"524 785 LINE",
"524 239 LINE",
"674 239 LINE",
"674 635 LINE",
"1070 635 LINE",
"1070 785 LINE"
);
}
);
width = 1200;
},
{
components = (
{
name = whiteSquare;
}
);
layerId = "8E053A5E-67DA-4970-A6F5-068DBFE5AD21";
paths = (
{
closed = 1;
nodes = (
"507 802 LINE",
"507 239 LINE",
"691 239 LINE",
"691 618 LINE",
"1070 618 LINE",
"1070 802 LINE"
);
}
);
width = 1200;
}
);
note = uni25F2;
unicode = 25F2;
}
{
glyphname = whiteParallelogram;
production = uni25B1;
layers = (
{
layerId = master01;
paths = (
{
closed = 1;
nodes = (
"1030 410 LINE",
"1200 1010 LINE",
"170 1010 LINE",
"0 410 LINE"
);
},
{
closed = 1;
nodes = (
"250 938 LINE",
"202 920 LINE",
"1083 920 LINE",
"1079 938 LINE",
"950 482 LINE",
"998 500 LINE",
"117 500 LINE",
"121 482 LINE"
);
}
);
width = 1200;
},
{
layerId = "1F90C004-9C90-48FA-B407-176B3E9F1E65";
paths = (
{
closed = 1;
nodes = (
"1030 410 LINE",
"1200 1010 LINE",
"170 1010 LINE",
"0 410 LINE"
);
},
{
closed = 1;
nodes = (
"305 938 LINE",
"202 860 LINE",
"1083 860 LINE",
"1024 938 LINE",
"895 482 LINE",
"998 560 LINE",
"117 560 LINE",
"176 482 LINE"
);
}
);
width = 1200;
},
{
layerId = "8E053A5E-67DA-4970-A6F5-068DBFE5AD21";
paths = (
{
closed = 1;
nodes = (
"1030 410 LINE",
"1200 1010 LINE",
"170 1010 LINE",
"0 410 LINE"
);
},
{
closed = 1;
nodes = (
"363 938 LINE",
"202 802 LINE",
"1083 802 LINE",
"966 938 LINE",
"837 482 LINE",
"998 618 LINE",
"117 618 LINE",
"234 482 LINE"
);
}
);
width = 1200;
}
);
note = uni25B1;
unicode = 25B1;
}
{
glyphname = whiteRect;
production = uni25AD;
layers = (
{
layerId = master01;
paths = (
{
closed = 1;
nodes = (
"1200 410 LINE",
"1200 1010 LINE",
"0 1010 LINE",
"0 410 LINE"
);
},
{
closed = 1;
nodes = (
"94 920 LINE",
"1106 920 LINE",
"1106 510 LINE",
"94 510 LINE"
);
}
);
width = 1200;
},
{
layerId = "1F90C004-9C90-48FA-B407-176B3E9F1E65";
paths = (
{
closed = 1;
nodes = (
"1200 410 LINE",
"1200 1010 LINE",
"0 1010 LINE",
"0 410 LINE"
);
},
{
closed = 1;
nodes = (
"150 860 LINE",
"1050 860 LINE",
"1050 560 LINE",
"150 560 LINE"
);
}
);
width = 1200;
},
{
layerId = "8E053A5E-67DA-4970-A6F5-068DBFE5AD21";
paths = (
{
closed = 1;
nodes = (
"1200 410 LINE",
"1200 1010 LINE",
"0 1010 LINE",
"0 410 LINE"
);
},
{
closed = 1;
nodes = (
"208 802 LINE",
"992 802 LINE",
"992 618 LINE",
"208 618 LINE"
);
}
);
width = 1200;
}
);
note = uni25AD;
unicode = 25AD;
}
{
glyphname = whiteRoundedCornersSquare;
production = uni25A2;
layers = (
{
layerId = master01;
paths = (
{
closed = 1;
nodes = (
"869 185 LINE SMOOTH",
"1022 185 OFFCURVE",
"1125 288 OFFCURVE",
"1125 441 CURVE SMOOTH",
"1125 979 LINE SMOOTH",
"1125 1132 OFFCURVE",
"1022 1235 OFFCURVE",
"869 1235 CURVE SMOOTH",
"331 1235 LINE SMOOTH",
"178 1235 OFFCURVE",
"75 1132 OFFCURVE",
"75 979 CURVE SMOOTH",
"75 441 LINE SMOOTH",
"75 288 OFFCURVE",
"178 185 OFFCURVE",
"331 185 CURVE SMOOTH"
);
},
{
closed = 1;
nodes = (
"232 275 OFFCURVE",
"169 339 OFFCURVE",
"169 440 CURVE SMOOTH",
"169 980 LINE SMOOTH",
"169 1081 OFFCURVE",
"232 1145 OFFCURVE",
"330 1145 CURVE SMOOTH",
"870 1145 LINE SMOOTH",
"968 1145 OFFCURVE",
"1031 1081 OFFCURVE",
"1031 980 CURVE SMOOTH",
"1031 440 LINE SMOOTH",
"1031 339 OFFCURVE",
"968 275 OFFCURVE",
"870 275 CURVE SMOOTH",
"330 275 LINE SMOOTH"
);
}
);
width = 1200;
},
{
layerId = "1F90C004-9C90-48FA-B407-176B3E9F1E65";
paths = (
{
closed = 1;
nodes = (
"869 185 LINE SMOOTH",
"1022 185 OFFCURVE",
"1125 288 OFFCURVE",
"1125 441 CURVE SMOOTH",
"1125 979 LINE SMOOTH",
"1125 1132 OFFCURVE",
"1022 1235 OFFCURVE",
"869 1235 CURVE SMOOTH",
"331 1235 LINE SMOOTH",
"178 1235 OFFCURVE",
"75 1132 OFFCURVE",
"75 979 CURVE SMOOTH",
"75 441 LINE SMOOTH",
"75 288 OFFCURVE",
"178 185 OFFCURVE",
"331 185 CURVE SMOOTH"
);
},
{
closed = 1;
nodes = (
"266 335 OFFCURVE",
"225 376 OFFCURVE",
"225 440 CURVE SMOOTH",
"225 980 LINE SMOOTH",
"225 1044 OFFCURVE",
"266 1085 OFFCURVE",
"330 1085 CURVE SMOOTH",
"870 1085 LINE SMOOTH",
"934 1085 OFFCURVE",
"975 1044 OFFCURVE",
"975 980 CURVE SMOOTH",
"975 440 LINE SMOOTH",
"975 376 OFFCURVE",
"934 335 OFFCURVE",
"870 335 CURVE SMOOTH",
"330 335 LINE SMOOTH"
);
}
);
width = 1200;
},
{
layerId = "8E053A5E-67DA-4970-A6F5-068DBFE5AD21";
paths = (
{
closed = 1;
nodes = (
"869 185 LINE SMOOTH",
"1022 185 OFFCURVE",
"1125 288 OFFCURVE",
"1125 441 CURVE SMOOTH",
"1125 979 LINE SMOOTH",
"1125 1132 OFFCURVE",
"1022 1235 OFFCURVE",
"869 1235 CURVE SMOOTH",
"331 1235 LINE SMOOTH",
"178 1235 OFFCURVE",
"75 1132 OFFCURVE",
"75 979 CURVE SMOOTH",
"75 441 LINE SMOOTH",
"75 288 OFFCURVE",
"178 185 OFFCURVE",
"331 185 CURVE SMOOTH"
);
},
{
closed = 1;
nodes = (
"324 393 OFFCURVE",
"283 434 OFFCURVE",
"283 498 CURVE SMOOTH",
"283 922 LINE SMOOTH",
"283 986 OFFCURVE",
"324 1027 OFFCURVE",
"388 1027 CURVE SMOOTH",
"812 1027 LINE SMOOTH",
"876 1027 OFFCURVE",
"917 986 OFFCURVE",
"917 922 CURVE SMOOTH",
"917 498 LINE SMOOTH",
"917 434 OFFCURVE",
"876 393 OFFCURVE",
"812 393 CURVE SMOOTH",
"388 393 LINE SMOOTH"
);
}
);
width = 1200;
}
);
note = uni25A2;
unicode = 25A2;
}
{
glyphname = whiteSmallSquare;
production = uni25AB;
layers = (
{
layerId = master01;
paths = (
{
closed = 1;
nodes = (
"900 410 LINE",
"900 1010 LINE",
"300 1010 LINE",
"300 410 LINE"
);
},
{
closed = 1;
nodes = (
"394 920 LINE",
"806 920 LINE",
"806 500 LINE",
"394 500 LINE"
);
}
);
width = 1200;
},
{
layerId = "1F90C004-9C90-48FA-B407-176B3E9F1E65";
paths = (
{
closed = 1;
nodes = (
"900 410 LINE",
"900 1010 LINE",
"300 1010 LINE",
"300 410 LINE"
);
},
{
closed = 1;
nodes = (
"450 860 LINE",
"750 860 LINE",
"750 560 LINE",
"450 560 LINE"
);
}
);
width = 1200;
},
{
layerId = "8E053A5E-67DA-4970-A6F5-068DBFE5AD21";
paths = (
{
closed = 1;
nodes = (
"900 410 LINE",
"900 1010 LINE",
"300 1010 LINE",
"300 410 LINE"
);
},
{
closed = 1;
nodes = (
"483 827 LINE",
"717 827 LINE",
"717 593 LINE",
"483 593 LINE"
);
}
);
width = 1200;
}
);
note = H18551;
unicode = 25AB;
}
{
glyphname = whiteSquare;
production = uni25A1;
layers = (
{
layerId = master01;
paths = (
{
closed = 1;
nodes = (
"1125 185 LINE",
"1125 1235 LINE",
"75 1235 LINE",
"75 185 LINE"
);
},
{
closed = 1;
nodes = (
"169 1145 LINE",
"1031 1145 LINE",
"1031 275 LINE",
"169 275 LINE"
);
}
);
width = 1200;
},
{
layerId = "1F90C004-9C90-48FA-B407-176B3E9F1E65";
paths = (
{
closed = 1;
nodes = (
"1125 185 LINE",
"1125 1235 LINE",
"75 1235 LINE",
"75 185 LINE"
);
},
{
closed = 1;
nodes = (
"225 1085 LINE",
"975 1085 LINE",
"975 335 LINE",
"225 335 LINE"
);
}
);
width = 1200;
},
{
layerId = "8E053A5E-67DA-4970-A6F5-068DBFE5AD21";
paths = (
{
closed = 1;
nodes = (
"1125 185 LINE",
"1125 1235 LINE",
"75 1235 LINE",
"75 185 LINE"
);
},
{
closed = 1;
nodes = (
"317 993 LINE",
"883 993 LINE",
"883 427 LINE",
"317 427 LINE"
);
}
);
width = 1200;
}
);
note = H22073;
unicode = 25A1;
}
{
glyphname = whiteUpperLeftQuadrantSquare;
production = uni25F0;
layers = (
{
components = (
{
name = whiteSquare;
}
);
layerId = master01;
paths = (
{
closed = 1;
nodes = (
"647 665 LINE",
"647 1201 LINE",
"553 1201 LINE",
"553 755 LINE",
"109 755 LINE",
"109 665 LINE"
);
}
);
width = 1200;
},
{
components = (
{
name = whiteSquare;
}
);
layerId = "1F90C004-9C90-48FA-B407-176B3E9F1E65";
paths = (
{
closed = 1;
nodes = (
"676 635 LINE",
"676 1181 LINE",
"526 1181 LINE",
"526 785 LINE",
"130 785 LINE",
"130 635 LINE"
);
}
);
width = 1200;
},
{
components = (
{
name = whiteSquare;
}
);
layerId = "8E053A5E-67DA-4970-A6F5-068DBFE5AD21";
paths = (
{
closed = 1;
nodes = (
"693 618 LINE",
"693 1181 LINE",
"509 1181 LINE",
"509 802 LINE",
"130 802 LINE",
"130 618 LINE"
);
}
);
width = 1200;
}
);
note = uni25F0;
unicode = 25F0;
}
{
glyphname = whiteUpperRightQuadrantSquare;
production = uni25F3;
layers = (
{
components = (
{
name = whiteSquare;
transform = "{-1, 0, 0, -1, 1200, 1420}";
}
);
layerId = master01;
paths = (
{
closed = 1;
nodes = (
"1091 755 LINE",
"647 755 LINE",
"647 1201 LINE",
"553 1201 LINE",
"553 665 LINE",
"1091 665 LINE"
);
}
);
width = 1200;
},
{
components = (
{
name = whiteSquare;
transform = "{-1, 0, 0, -1, 1200, 1420}";
}
);
layerId = "1F90C004-9C90-48FA-B407-176B3E9F1E65";
paths = (
{
closed = 1;
nodes = (
"1070 785 LINE",
"674 785 LINE",
"674 1181 LINE",
"524 1181 LINE",
"524 635 LINE",
"1070 635 LINE"
);
}
);
width = 1200;
},
{
components = (
{
alignment = -1;
name = whiteSquare;
transform = "{-1, 0, 0, -1, 1200, 1420}";
}
);
layerId = "8E053A5E-67DA-4970-A6F5-068DBFE5AD21";
paths = (
{
closed = 1;
nodes = (
"1070 802 LINE",
"691 802 LINE",
"691 1181 LINE",
"507 1181 LINE",
"507 618 LINE",
"1070 618 LINE"
);
}
);
width = 1200;
}
);
note = uni25F3;
unicode = 25F3;
}
{
glyphname = whiteVerticalRect;
production = uni25AF;
layers = (
{
layerId = master01;
paths = (
{
closed = 1;
nodes = (
"900 110 LINE",
"900 1310 LINE",
"300 1310 LINE",
"300 110 LINE"
);
},
{
closed = 1;
nodes = (
"394 1220 LINE",
"806 1220 LINE",
"806 200 LINE",
"394 200 LINE"
);
}
);
width = 1200;
},
{
layerId = "1F90C004-9C90-48FA-B407-176B3E9F1E65";
paths = (
{
closed = 1;
nodes = (
"900 110 LINE",
"900 1310 LINE",
"300 1310 LINE",
"300 110 LINE"
);
},
{
closed = 1;
nodes = (
"450 1160 LINE",
"750 1160 LINE",
"750 260 LINE",
"450 260 LINE"
);
}
);
width = 1200;
},
{
layerId = "8E053A5E-67DA-4970-A6F5-068DBFE5AD21";
paths = (
{
closed = 1;
nodes = (
"900 110 LINE",
"900 1310 LINE",
"300 1310 LINE",
"300 110 LINE"
);
},
{
closed = 1;
nodes = (
"508 1102 LINE",
"692 1102 LINE",
"692 318 LINE",
"508 318 LINE"
);
}
);
width = 1200;
}
);
note = uni25AF;
unicode = 25AF;
}
{
color = 10;
glyphname = ampersand;
layers = (
{
layerId = master01;
paths = (
{
closed = 1;
nodes = (
"1200 0 LINE",
"450 750 LINE SMOOTH",
"366 834 OFFCURVE",
"312 936 OFFCURVE",
"312 1040 CURVE SMOOTH",
"312 1237 OFFCURVE",
"423 1350 OFFCURVE",
"614 1350 CURVE",
"610 1440 LINE",
"360 1440 OFFCURVE",
"216 1295 OFFCURVE",
"216 1042 CURVE SMOOTH",
"216 917 OFFCURVE",
"270 801 OFFCURVE",
"355 716 CURVE SMOOTH",
"1067 0 LINE"
);
},
{
closed = 1;
nodes = (
"847 -20 OFFCURVE",
"1068 266 OFFCURVE",
"1068 766 CURVE",
"972 766 LINE",
"972 324 OFFCURVE",
"794 70 OFFCURVE",
"486 70 CURVE SMOOTH",
"289 70 OFFCURVE",
"176 173 OFFCURVE",
"176 354 CURVE SMOOTH",
"176 515 OFFCURVE",
"289 632 OFFCURVE",
"486 676 CURVE",
"436 738 LINE",
"210 702 OFFCURVE",
"80 558 OFFCURVE",
"80 344 CURVE SMOOTH",
"80 113 OFFCURVE",
"219 -20 OFFCURVE",
"462 -20 CURVE SMOOTH"
);
},
{
closed = 1;
nodes = (
"966 1122 LINE",
"966 1324 OFFCURVE",
"836 1440 OFFCURVE",
"610 1440 CURVE",
"614 1350 LINE",
"776 1350 OFFCURVE",
"870 1267 OFFCURVE",
"870 1122 CURVE"
);
}
);
width = 1200;
},
{
layerId = "1F90C004-9C90-48FA-B407-176B3E9F1E65";
paths = (
{
closed = 1;
nodes = (
"1224 0 LINE",
"566 750 LINE SMOOTH",
"476 852 OFFCURVE",
"422 942 OFFCURVE",
"422 1040 CURVE SMOOTH",
"422 1178 OFFCURVE",
"492 1256 OFFCURVE",
"614 1256 CURVE",
"610 1440 LINE",
"350 1440 OFFCURVE",
"202 1296 OFFCURVE",
"202 1042 CURVE SMOOTH",
"202 900 OFFCURVE",
"272 757 OFFCURVE",
"446 566 CURVE SMOOTH",
"962 0 LINE"
);
},
{
closed = 1;
nodes = (
"862 -20 OFFCURVE",
"1092 266 OFFCURVE",
"1092 766 CURVE",
"900 766 LINE",
"900 382 OFFCURVE",
"750 164 OFFCURVE",
"486 164 CURVE SMOOTH",
"348 164 OFFCURVE",
"258 240 OFFCURVE",
"258 354 CURVE SMOOTH",
"258 484 OFFCURVE",
"362 580 OFFCURVE",
"546 616 CURVE",
"436 738 LINE",
"194 702 OFFCURVE",
"56 558 OFFCURVE",
"56 344 CURVE SMOOTH",
"56 124 OFFCURVE",
"218 -20 OFFCURVE",
"462 -20 CURVE SMOOTH"
);
},
{
closed = 1;
nodes = (
"990 1122 LINE",
"990 1324 OFFCURVE",
"851 1440 OFFCURVE",
"610 1440 CURVE",
"614 1256 LINE",
"717 1256 OFFCURVE",
"776 1208 OFFCURVE",
"776 1122 CURVE"
);
}
);
width = 1200;
},
{
layerId = "8E053A5E-67DA-4970-A6F5-068DBFE5AD21";
paths = (
{
closed = 1;
nodes = (
"1241 0 LINE",
"583 792 LINE SMOOTH",
"513 875 OFFCURVE",
"480 950 OFFCURVE",
"480 1040 CURVE SMOOTH",
"480 1142 OFFCURVE",
"522 1189 OFFCURVE",
"614 1189 CURVE",
"627 1440 LINE",
"333 1440 OFFCURVE",
"202 1317 OFFCURVE",
"202 1042 CURVE SMOOTH",
"202 904 OFFCURVE",
"262 775 OFFCURVE",
"404 608 CURVE SMOOTH",
"912 0 LINE"
);
},
{
closed = 1;
nodes = (
"873 -20 OFFCURVE",
"1109 266 OFFCURVE",
"1109 766 CURVE",
"835 766 LINE",
"835 425 OFFCURVE",
"708 231 OFFCURVE",
"486 231 CURVE SMOOTH",
"383 231 OFFCURVE",
"316 293 OFFCURVE",
"316 387 CURVE SMOOTH",
"316 476 OFFCURVE",
"400 542 OFFCURVE",
"546 566 CURVE",
"436 771 LINE",
"183 732 OFFCURVE",
"39 576 OFFCURVE",
"39 344 CURVE SMOOTH",
"39 124 OFFCURVE",
"208 -20 OFFCURVE",
"462 -20 CURVE SMOOTH"
);
},
{
closed = 1;
nodes = (
"1007 1072 LINE",
"1007 1306 OFFCURVE",
"868 1440 OFFCURVE",
"627 1440 CURVE",
"614 1189 LINE",
"680 1189 OFFCURVE",
"718 1147 OFFCURVE",
"718 1072 CURVE"
);
}
);
width = 1200;
}
);
unicode = 0026;
}
{
glyphname = "dots12678-braille";
production = uni28E3;
layers = (
{
layerId = master01;
paths = (
{
closed = 1;
nodes = (
"400 1200 OFFCURVE",
"440 1240 OFFCURVE",
"440 1290 CURVE SMOOTH",
"440 1340 OFFCURVE",
"400 1380 OFFCURVE",
"350 1380 CURVE SMOOTH",
"300 1380 OFFCURVE",
"260 1340 OFFCURVE",
"260 1290 CURVE SMOOTH",
"260 1240 OFFCURVE",
"300 1200 OFFCURVE",
"350 1200 CURVE SMOOTH"
);
},
{
closed = 1;
nodes = (
"400 -110 OFFCURVE",
"440 -70 OFFCURVE",
"440 -20 CURVE SMOOTH",
"440 30 OFFCURVE",
"400 70 OFFCURVE",
"350 70 CURVE SMOOTH",
"300 70 OFFCURVE",
"260 30 OFFCURVE",
"260 -20 CURVE SMOOTH",
"260 -70 OFFCURVE",
"300 -110 OFFCURVE",
"350 -110 CURVE SMOOTH"
);
},
{
closed = 1;
nodes = (
"900 -110 OFFCURVE",
"940 -70 OFFCURVE",
"940 -20 CURVE SMOOTH",
"940 30 OFFCURVE",
"900 70 OFFCURVE",
"850 70 CURVE SMOOTH",
"800 70 OFFCURVE",
"760 30 OFFCURVE",
"760 -20 CURVE SMOOTH",
"760 -70 OFFCURVE",
"800 -110 OFFCURVE",
"850 -110 CURVE SMOOTH"
);
},
{
closed = 1;
nodes = (
"400 763 OFFCURVE",
"440 803 OFFCURVE",
"440 853 CURVE SMOOTH",
"440 903 OFFCURVE",
"400 943 OFFCURVE",
"350 943 CURVE SMOOTH",
"300 943 OFFCURVE",
"260 903 OFFCURVE",
"260 853 CURVE SMOOTH",
"260 803 OFFCURVE",
"300 763 OFFCURVE",
"350 763 CURVE SMOOTH"
);
},
{
closed = 1;
nodes = (
"900 327 OFFCURVE",
"940 367 OFFCURVE",
"940 417 CURVE SMOOTH",
"940 467 OFFCURVE",
"900 507 OFFCURVE",
"850 507 CURVE SMOOTH",
"800 507 OFFCURVE",
"760 467 OFFCURVE",
"760 417 CURVE SMOOTH",
"760 367 OFFCURVE",
"800 327 OFFCURVE",
"850 327 CURVE SMOOTH"
);
}
);
width = 1200;
},
{
layerId = "1F90C004-9C90-48FA-B407-176B3E9F1E65";
paths = (
{
closed = 1;
nodes = (
"432.843 1140 OFFCURVE",
"500 1207.157 OFFCURVE",
"500 1290 CURVE SMOOTH",
"500 1372.843 OFFCURVE",
"432.843 1440 OFFCURVE",
"350 1440 CURVE SMOOTH",
"267.157 1440 OFFCURVE",
"200 1372.843 OFFCURVE",
"200 1290 CURVE SMOOTH",
"200 1207.157 OFFCURVE",
"267.157 1140 OFFCURVE",
"350 1140 CURVE SMOOTH"
);
},
{
closed = 1;
nodes = (
"432.843 -170 OFFCURVE",
"500 -102.843 OFFCURVE",
"500 -20 CURVE SMOOTH",
"500 62.843 OFFCURVE",
"432.843 130 OFFCURVE",
"350 130 CURVE SMOOTH",
"267.157 130 OFFCURVE",
"200 62.843 OFFCURVE",
"200 -20 CURVE SMOOTH",
"200 -102.843 OFFCURVE",
"267.157 -170 OFFCURVE",
"350 -170 CURVE SMOOTH"
);
},
{
closed = 1;
nodes = (
"932.843 -170 OFFCURVE",
"1000 -102.843 OFFCURVE",
"1000 -20 CURVE SMOOTH",
"1000 62.843 OFFCURVE",
"932.843 130 OFFCURVE",
"850 130 CURVE SMOOTH",
"767.157 130 OFFCURVE",
"700 62.843 OFFCURVE",
"700 -20 CURVE SMOOTH",
"700 -102.843 OFFCURVE",
"767.157 -170 OFFCURVE",
"850 -170 CURVE SMOOTH"
);
},
{
closed = 1;
nodes = (
"432.843 703.333 OFFCURVE",
"500 770.491 OFFCURVE",
"500 853.333 CURVE SMOOTH",
"500 936.176 OFFCURVE",
"432.843 1003.333 OFFCURVE",
"350 1003.333 CURVE SMOOTH",
"267.157 1003.333 OFFCURVE",
"200 936.176 OFFCURVE",
"200 853.333 CURVE SMOOTH",
"200 770.491 OFFCURVE",
"267.157 703.333 OFFCURVE",
"350 703.333 CURVE SMOOTH"
);
},
{
closed = 1;
nodes = (
"932.843 266.667 OFFCURVE",
"1000 333.824 OFFCURVE",
"1000 416.667 CURVE SMOOTH",
"1000 499.509 OFFCURVE",
"932.843 566.667 OFFCURVE",
"850 566.667 CURVE SMOOTH",
"767.157 566.667 OFFCURVE",
"700 499.509 OFFCURVE",
"700 416.667 CURVE SMOOTH",
"700 333.824 OFFCURVE",
"767.157 266.667 OFFCURVE",
"850 266.667 CURVE SMOOTH"
);
}
);
width = 1200;
},
{
layerId = "8E053A5E-67DA-4970-A6F5-068DBFE5AD21";
paths = (
{
closed = 1;
nodes = (
"446 1115 OFFCURVE",
"525 1194 OFFCURVE",
"525 1290 CURVE SMOOTH",
"525 1386 OFFCURVE",
"446 1465 OFFCURVE",
"350 1465 CURVE SMOOTH",
"254 1465 OFFCURVE",
"175 1386 OFFCURVE",
"175 1290 CURVE SMOOTH",
"175 1194 OFFCURVE",
"254 1115 OFFCURVE",
"350 1115 CURVE SMOOTH"
);
},
{
closed = 1;
nodes = (
"446 -195 OFFCURVE",
"525 -116 OFFCURVE",
"525 -20 CURVE SMOOTH",
"525 76 OFFCURVE",
"446 155 OFFCURVE",
"350 155 CURVE SMOOTH",
"254 155 OFFCURVE",
"175 76 OFFCURVE",
"175 -20 CURVE SMOOTH",
"175 -116 OFFCURVE",
"254 -195 OFFCURVE",
"350 -195 CURVE SMOOTH"
);
},
{
closed = 1;
nodes = (
"946 -195 OFFCURVE",
"1025 -116 OFFCURVE",
"1025 -20 CURVE SMOOTH",
"1025 76 OFFCURVE",
"946 155 OFFCURVE",
"850 155 CURVE SMOOTH",
"754 155 OFFCURVE",
"675 76 OFFCURVE",
"675 -20 CURVE SMOOTH",
"675 -116 OFFCURVE",
"754 -195 OFFCURVE",
"850 -195 CURVE SMOOTH"
);
},
{
closed = 1;
nodes = (
"446 678 OFFCURVE",
"525 757 OFFCURVE",
"525 853 CURVE SMOOTH",
"525 950 OFFCURVE",
"446 1028 OFFCURVE",
"350 1028 CURVE SMOOTH",
"254 1028 OFFCURVE",
"175 950 OFFCURVE",
"175 853 CURVE SMOOTH",
"175 757 OFFCURVE",
"254 678 OFFCURVE",
"350 678 CURVE SMOOTH"
);
},
{
closed = 1;
nodes = (
"946 242 OFFCURVE",
"1025 320 OFFCURVE",
"1025 417 CURVE SMOOTH",
"1025 513 OFFCURVE",
"946 592 OFFCURVE",
"850 592 CURVE SMOOTH",
"754 592 OFFCURVE",
"675 513 OFFCURVE",
"675 417 CURVE SMOOTH",
"675 320 OFFCURVE",
"754 242 OFFCURVE",
"850 242 CURVE SMOOTH"
);
}
);
width = 1200;
}
);
unicode = 28E3;
}
{
glyphname = "dots278-braille";
production = uni28C2;
layers = (
{
layerId = master01;
paths = (
{
closed = 1;
nodes = (
"400 763 OFFCURVE",
"440 803 OFFCURVE",
"440 853 CURVE SMOOTH",
"440 903 OFFCURVE",
"400 943 OFFCURVE",
"350 943 CURVE SMOOTH",
"300 943 OFFCURVE",
"260 903 OFFCURVE",
"260 853 CURVE SMOOTH",
"260 803 OFFCURVE",
"300 763 OFFCURVE",
"350 763 CURVE SMOOTH"
);
},
{
closed = 1;
nodes = (
"400 -110 OFFCURVE",
"440 -70 OFFCURVE",
"440 -20 CURVE SMOOTH",
"440 30 OFFCURVE",
"400 70 OFFCURVE",
"350 70 CURVE SMOOTH",
"300 70 OFFCURVE",
"260 30 OFFCURVE",
"260 -20 CURVE SMOOTH",
"260 -70 OFFCURVE",
"300 -110 OFFCURVE",
"350 -110 CURVE SMOOTH"
);
},
{
closed = 1;
nodes = (
"900 -110 OFFCURVE",
"940 -70 OFFCURVE",
"940 -20 CURVE SMOOTH",
"940 30 OFFCURVE",
"900 70 OFFCURVE",
"850 70 CURVE SMOOTH",
"800 70 OFFCURVE",
"760 30 OFFCURVE",
"760 -20 CURVE SMOOTH",
"760 -70 OFFCURVE",
"800 -110 OFFCURVE",
"850 -110 CURVE SMOOTH"
);
}
);
width = 1200;
},
{
layerId = "1F90C004-9C90-48FA-B407-176B3E9F1E65";
paths = (
{
closed = 1;
nodes = (
"432.843 703.333 OFFCURVE",
"500 770.491 OFFCURVE",
"500 853.333 CURVE SMOOTH",
"500 936.176 OFFCURVE",
"432.843 1003.333 OFFCURVE",
"350 1003.333 CURVE SMOOTH",
"267.157 1003.333 OFFCURVE",
"200 936.176 OFFCURVE",
"200 853.333 CURVE SMOOTH",
"200 770.491 OFFCURVE",
"267.157 703.333 OFFCURVE",
"350 703.333 CURVE SMOOTH"
);
},
{
closed = 1;
nodes = (
"432.843 -170 OFFCURVE",
"500 -102.843 OFFCURVE",
"500 -20 CURVE SMOOTH",
"500 62.843 OFFCURVE",
"432.843 130 OFFCURVE",
"350 130 CURVE SMOOTH",
"267.157 130 OFFCURVE",
"200 62.843 OFFCURVE",
"200 -20 CURVE SMOOTH",
"200 -102.843 OFFCURVE",
"267.157 -170 OFFCURVE",
"350 -170 CURVE SMOOTH"
);
},
{
closed = 1;
nodes = (
"932.843 -170 OFFCURVE",
"1000 -102.843 OFFCURVE",
"1000 -20 CURVE SMOOTH",
"1000 62.843 OFFCURVE",
"932.843 130 OFFCURVE",
"850 130 CURVE SMOOTH",
"767.157 130 OFFCURVE",
"700 62.843 OFFCURVE",
"700 -20 CURVE SMOOTH",
"700 -102.843 OFFCURVE",
"767.157 -170 OFFCURVE",
"850 -170 CURVE SMOOTH"
);
}
);
width = 1200;
},
{
layerId = "8E053A5E-67DA-4970-A6F5-068DBFE5AD21";
paths = (
{
closed = 1;
nodes = (
"446 678 OFFCURVE",
"525 757 OFFCURVE",
"525 853 CURVE SMOOTH",
"525 950 OFFCURVE",
"446 1028 OFFCURVE",
"350 1028 CURVE SMOOTH",
"254 1028 OFFCURVE",
"175 950 OFFCURVE",
"175 853 CURVE SMOOTH",
"175 757 OFFCURVE",
"254 678 OFFCURVE",
"350 678 CURVE SMOOTH"
);
},
{
closed = 1;
nodes = (
"446 -195 OFFCURVE",
"525 -116 OFFCURVE",
"525 -20 CURVE SMOOTH",
"525 76 OFFCURVE",
"446 155 OFFCURVE",
"350 155 CURVE SMOOTH",
"254 155 OFFCURVE",
"175 76 OFFCURVE",
"175 -20 CURVE SMOOTH",
"175 -116 OFFCURVE",
"254 -195 OFFCURVE",
"350 -195 CURVE SMOOTH"
);
},
{
closed = 1;
nodes = (
"946 -195 OFFCURVE",
"1025 -116 OFFCURVE",
"1025 -20 CURVE SMOOTH",
"1025 76 OFFCURVE",
"946 155 OFFCURVE",
"850 155 CURVE SMOOTH",
"754 155 OFFCURVE",
"675 76 OFFCURVE",
"675 -20 CURVE SMOOTH",
"675 -116 OFFCURVE",
"754 -195 OFFCURVE",
"850 -195 CURVE SMOOTH"
);
}
);
width = 1200;
}
);
unicode = 28C2;
}
{
glyphname = "dots34678-braille";
production = uni28EC;
layers = (
{
layerId = master01;
paths = (
{
closed = 1;
nodes = (
"900 1200 OFFCURVE",
"940 1240 OFFCURVE",
"940 1290 CURVE SMOOTH",
"940 1340 OFFCURVE",
"900 1380 OFFCURVE",
"850 1380 CURVE SMOOTH",
"800 1380 OFFCURVE",
"760 1340 OFFCURVE",
"760 1290 CURVE SMOOTH",
"760 1240 OFFCURVE",
"800 1200 OFFCURVE",
"850 1200 CURVE SMOOTH"
);
},
{
closed = 1;
nodes = (
"400 -110 OFFCURVE",
"440 -70 OFFCURVE",
"440 -20 CURVE SMOOTH",
"440 30 OFFCURVE",
"400 70 OFFCURVE",
"350 70 CURVE SMOOTH",
"300 70 OFFCURVE",
"260 30 OFFCURVE",
"260 -20 CURVE SMOOTH",
"260 -70 OFFCURVE",
"300 -110 OFFCURVE",
"350 -110 CURVE SMOOTH"
);
},
{
closed = 1;
nodes = (
"400 327 OFFCURVE",
"440 367 OFFCURVE",
"440 417 CURVE SMOOTH",
"440 467 OFFCURVE",
"400 507 OFFCURVE",
"350 507 CURVE SMOOTH",
"300 507 OFFCURVE",
"260 467 OFFCURVE",
"260 417 CURVE SMOOTH",
"260 367 OFFCURVE",
"300 327 OFFCURVE",
"350 327 CURVE SMOOTH"
);
},
{
closed = 1;
nodes = (
"900 -110 OFFCURVE",
"940 -70 OFFCURVE",
"940 -20 CURVE SMOOTH",
"940 30 OFFCURVE",
"900 70 OFFCURVE",
"850 70 CURVE SMOOTH",
"800 70 OFFCURVE",
"760 30 OFFCURVE",
"760 -20 CURVE SMOOTH",
"760 -70 OFFCURVE",
"800 -110 OFFCURVE",
"850 -110 CURVE SMOOTH"
);
},
{
closed = 1;
nodes = (
"900 327 OFFCURVE",
"940 367 OFFCURVE",
"940 417 CURVE SMOOTH",
"940 467 OFFCURVE",
"900 507 OFFCURVE",
"850 507 CURVE SMOOTH",
"800 507 OFFCURVE",
"760 467 OFFCURVE",
"760 417 CURVE SMOOTH",
"760 367 OFFCURVE",
"800 327 OFFCURVE",
"850 327 CURVE SMOOTH"
);
}
);
width = 1200;
},
{
layerId = "1F90C004-9C90-48FA-B407-176B3E9F1E65";
paths = (
{
closed = 1;
nodes = (
"932.843 1140 OFFCURVE",
"1000 1207.157 OFFCURVE",
"1000 1290 CURVE SMOOTH",
"1000 1372.843 OFFCURVE",
"932.843 1440 OFFCURVE",
"850 1440 CURVE SMOOTH",
"767.157 1440 OFFCURVE",
"700 1372.843 OFFCURVE",
"700 1290 CURVE SMOOTH",
"700 1207.157 OFFCURVE",
"767.157 1140 OFFCURVE",
"850 1140 CURVE SMOOTH"
);
},
{
closed = 1;
nodes = (
"432.843 -170 OFFCURVE",
"500 -102.843 OFFCURVE",
"500 -20 CURVE SMOOTH",
"500 62.843 OFFCURVE",
"432.843 130 OFFCURVE",
"350 130 CURVE SMOOTH",
"267.157 130 OFFCURVE",
"200 62.843 OFFCURVE",
"200 -20 CURVE SMOOTH",
"200 -102.843 OFFCURVE",
"267.157 -170 OFFCURVE",
"350 -170 CURVE SMOOTH"
);
},
{
closed = 1;
nodes = (
"432.843 266.667 OFFCURVE",
"500 333.824 OFFCURVE",
"500 416.667 CURVE SMOOTH",
"500 499.509 OFFCURVE",
"432.843 566.667 OFFCURVE",
"350 566.667 CURVE SMOOTH",
"267.157 566.667 OFFCURVE",
"200 499.509 OFFCURVE",
"200 416.667 CURVE SMOOTH",
"200 333.824 OFFCURVE",
"267.157 266.667 OFFCURVE",
"350 266.667 CURVE SMOOTH"
);
},
{
closed = 1;
nodes = (
"932.843 -170 OFFCURVE",
"1000 -102.843 OFFCURVE",
"1000 -20 CURVE SMOOTH",
"1000 62.843 OFFCURVE",
"932.843 130 OFFCURVE",
"850 130 CURVE SMOOTH",
"767.157 130 OFFCURVE",
"700 62.843 OFFCURVE",
"700 -20 CURVE SMOOTH",
"700 -102.843 OFFCURVE",
"767.157 -170 OFFCURVE",
"850 -170 CURVE SMOOTH"
);
},
{
closed = 1;
nodes = (
"932.843 266.667 OFFCURVE",
"1000 333.824 OFFCURVE",
"1000 416.667 CURVE SMOOTH",
"1000 499.509 OFFCURVE",
"932.843 566.667 OFFCURVE",
"850 566.667 CURVE SMOOTH",
"767.157 566.667 OFFCURVE",
"700 499.509 OFFCURVE",
"700 416.667 CURVE SMOOTH",
"700 333.824 OFFCURVE",
"767.157 266.667 OFFCURVE",
"850 266.667 CURVE SMOOTH"
);
}
);
width = 1200;
},
{
layerId = "8E053A5E-67DA-4970-A6F5-068DBFE5AD21";
paths = (
{
closed = 1;
nodes = (
"946 1115 OFFCURVE",
"1025 1194 OFFCURVE",
"1025 1290 CURVE SMOOTH",
"1025 1386 OFFCURVE",
"946 1465 OFFCURVE",
"850 1465 CURVE SMOOTH",
"754 1465 OFFCURVE",
"675 1386 OFFCURVE",
"675 1290 CURVE SMOOTH",
"675 1194 OFFCURVE",
"754 1115 OFFCURVE",
"850 1115 CURVE SMOOTH"
);
},
{
closed = 1;
nodes = (
"446 -195 OFFCURVE",
"525 -116 OFFCURVE",
"525 -20 CURVE SMOOTH",
"525 76 OFFCURVE",
"446 155 OFFCURVE",
"350 155 CURVE SMOOTH",
"254 155 OFFCURVE",
"175 76 OFFCURVE",
"175 -20 CURVE SMOOTH",
"175 -116 OFFCURVE",
"254 -195 OFFCURVE",
"350 -195 CURVE SMOOTH"
);
},
{
closed = 1;
nodes = (
"446 242 OFFCURVE",
"525 320 OFFCURVE",
"525 417 CURVE SMOOTH",
"525 513 OFFCURVE",
"446 592 OFFCURVE",
"350 592 CURVE SMOOTH",
"254 592 OFFCURVE",
"175 513 OFFCURVE",
"175 417 CURVE SMOOTH",
"175 320 OFFCURVE",
"254 242 OFFCURVE",
"350 242 CURVE SMOOTH"
);
},
{
closed = 1;
nodes = (
"946 -195 OFFCURVE",
"1025 -116 OFFCURVE",
"1025 -20 CURVE SMOOTH",
"1025 76 OFFCURVE",
"946 155 OFFCURVE",
"850 155 CURVE SMOOTH",
"754 155 OFFCURVE",
"675 76 OFFCURVE",
"675 -20 CURVE SMOOTH",
"675 -116 OFFCURVE",
"754 -195 OFFCURVE",
"850 -195 CURVE SMOOTH"
);
},
{
closed = 1;
nodes = (
"946 242 OFFCURVE",
"1025 320 OFFCURVE",
"1025 417 CURVE SMOOTH",
"1025 513 OFFCURVE",
"946 592 OFFCURVE",
"850 592 CURVE SMOOTH",
"754 592 OFFCURVE",
"675 513 OFFCURVE",
"675 417 CURVE SMOOTH",
"675 320 OFFCURVE",
"754 242 OFFCURVE",
"850 242 CURVE SMOOTH"
);
}
);
width = 1200;
}
);
unicode = 28EC;
}
{
glyphname = "dots3568-braille";
production = uni28B4;
layers = (
{
layerId = master01;
paths = (
{
closed = 1;
nodes = (
"900 763 OFFCURVE",
"940 803 OFFCURVE",
"940 853 CURVE SMOOTH",
"940 903 OFFCURVE",
"900 943 OFFCURVE",
"850 943 CURVE SMOOTH",
"800 943 OFFCURVE",
"760 903 OFFCURVE",
"760 853 CURVE SMOOTH",
"760 803 OFFCURVE",
"800 763 OFFCURVE",
"850 763 CURVE SMOOTH"
);
},
{
closed = 1;
nodes = (
"400 327 OFFCURVE",
"440 367 OFFCURVE",
"440 417 CURVE SMOOTH",
"440 467 OFFCURVE",
"400 507 OFFCURVE",
"350 507 CURVE SMOOTH",
"300 507 OFFCURVE",
"260 467 OFFCURVE",
"260 417 CURVE SMOOTH",
"260 367 OFFCURVE",
"300 327 OFFCURVE",
"350 327 CURVE SMOOTH"
);
},
{
closed = 1;
nodes = (
"900 -110 OFFCURVE",
"940 -70 OFFCURVE",
"940 -20 CURVE SMOOTH",
"940 30 OFFCURVE",
"900 70 OFFCURVE",
"850 70 CURVE SMOOTH",
"800 70 OFFCURVE",
"760 30 OFFCURVE",
"760 -20 CURVE SMOOTH",
"760 -70 OFFCURVE",
"800 -110 OFFCURVE",
"850 -110 CURVE SMOOTH"
);
},
{
closed = 1;
nodes = (
"900 327 OFFCURVE",
"940 367 OFFCURVE",
"940 417 CURVE SMOOTH",
"940 467 OFFCURVE",
"900 507 OFFCURVE",
"850 507 CURVE SMOOTH",
"800 507 OFFCURVE",
"760 467 OFFCURVE",
"760 417 CURVE SMOOTH",
"760 367 OFFCURVE",
"800 327 OFFCURVE",
"850 327 CURVE SMOOTH"
);
}
);
width = 1200;
},
{
layerId = "1F90C004-9C90-48FA-B407-176B3E9F1E65";
paths = (
{
closed = 1;
nodes = (
"932.843 703.333 OFFCURVE",
"1000 770.491 OFFCURVE",
"1000 853.333 CURVE SMOOTH",
"1000 936.176 OFFCURVE",
"932.843 1003.333 OFFCURVE",
"850 1003.333 CURVE SMOOTH",
"767.157 1003.333 OFFCURVE",
"700 936.176 OFFCURVE",
"700 853.333 CURVE SMOOTH",
"700 770.491 OFFCURVE",
"767.157 703.333 OFFCURVE",
"850 703.333 CURVE SMOOTH"
);
},
{
closed = 1;
nodes = (
"432.843 266.667 OFFCURVE",
"500 333.824 OFFCURVE",
"500 416.667 CURVE SMOOTH",
"500 499.509 OFFCURVE",
"432.843 566.667 OFFCURVE",
"350 566.667 CURVE SMOOTH",
"267.157 566.667 OFFCURVE",
"200 499.509 OFFCURVE",
"200 416.667 CURVE SMOOTH",
"200 333.824 OFFCURVE",
"267.157 266.667 OFFCURVE",
"350 266.667 CURVE SMOOTH"
);
},
{
closed = 1;
nodes = (
"932.843 -170 OFFCURVE",
"1000 -102.843 OFFCURVE",
"1000 -20 CURVE SMOOTH",
"1000 62.843 OFFCURVE",
"932.843 130 OFFCURVE",
"850 130 CURVE SMOOTH",
"767.157 130 OFFCURVE",
"700 62.843 OFFCURVE",
"700 -20 CURVE SMOOTH",
"700 -102.843 OFFCURVE",
"767.157 -170 OFFCURVE",
"850 -170 CURVE SMOOTH"
);
},
{
closed = 1;
nodes = (
"932.843 266.667 OFFCURVE",
"1000 333.824 OFFCURVE",
"1000 416.667 CURVE SMOOTH",
"1000 499.509 OFFCURVE",
"932.843 566.667 OFFCURVE",
"850 566.667 CURVE SMOOTH",
"767.157 566.667 OFFCURVE",
"700 499.509 OFFCURVE",
"700 416.667 CURVE SMOOTH",
"700 333.824 OFFCURVE",
"767.157 266.667 OFFCURVE",
"850 266.667 CURVE SMOOTH"
);
}
);
width = 1200;
},
{
layerId = "8E053A5E-67DA-4970-A6F5-068DBFE5AD21";
paths = (
{
closed = 1;
nodes = (
"946 678 OFFCURVE",
"1025 757 OFFCURVE",
"1025 853 CURVE SMOOTH",
"1025 950 OFFCURVE",
"946 1028 OFFCURVE",
"850 1028 CURVE SMOOTH",
"754 1028 OFFCURVE",
"675 950 OFFCURVE",
"675 853 CURVE SMOOTH",
"675 757 OFFCURVE",
"754 678 OFFCURVE",
"850 678 CURVE SMOOTH"
);
},
{
closed = 1;
nodes = (
"446 242 OFFCURVE",
"525 320 OFFCURVE",
"525 417 CURVE SMOOTH",
"525 513 OFFCURVE",
"446 592 OFFCURVE",
"350 592 CURVE SMOOTH",
"254 592 OFFCURVE",
"175 513 OFFCURVE",
"175 417 CURVE SMOOTH",
"175 320 OFFCURVE",
"254 242 OFFCURVE",
"350 242 CURVE SMOOTH"
);
},
{
closed = 1;
nodes = (
"946 -195 OFFCURVE",
"1025 -116 OFFCURVE",
"1025 -20 CURVE SMOOTH",
"1025 76 OFFCURVE",
"946 155 OFFCURVE",
"850 155 CURVE SMOOTH",
"754 155 OFFCURVE",
"675 76 OFFCURVE",
"675 -20 CURVE SMOOTH",
"675 -116 OFFCURVE",
"754 -195 OFFCURVE",
"850 -195 CURVE SMOOTH"
);
},
{
closed = 1;
nodes = (
"946 242 OFFCURVE",
"1025 320 OFFCURVE",
"1025 417 CURVE SMOOTH",
"1025 513 OFFCURVE",
"946 592 OFFCURVE",
"850 592 CURVE SMOOTH",
"754 592 OFFCURVE",
"675 513 OFFCURVE",
"675 417 CURVE SMOOTH",
"675 320 OFFCURVE",
"754 242 OFFCURVE",
"850 242 CURVE SMOOTH"
);
}
);
width = 1200;
}
);
unicode = 28B4;
}
